<svg fill="none" height="102" viewBox="0 0 106 102" width="106" xmlns="http://www.w3.org/2000/svg"><g fill="#093b5c"><path clip-rule="evenodd" d="m18.508 27.3394c-.673 0-1.2619.6688-1.2619 1.2541v37.2049c0 .6688.673 1.2541 1.2619 1.2541h1.8508c.673 0 1.0936-.5017 1.346-1.2541l.5889-2.0066s3.0286 3.9295 8.8333 3.9295c7.235 0 12.4508-6.2705 12.4508-13.7951 0-7.6081-4.9635-13.6278-12.7873-13.6278-2.5238 0-5.2158.6688-6.3936 1.1705v-12.8754c0-.6689-.5889-1.2541-1.2619-1.2541zm18.0032 26.5868c0 3.7623-2.1032 7.2738-6.2254 7.2738-3.4492 0-5.3-2.0901-5.8048-3.5951v-9.3639s2.1873-1.5049 5.4683-1.5049c4.2904 0 6.5619 3.5115 6.5619 7.1901z" fill-rule="evenodd"/><path clip-rule="evenodd" d="m58.4682 80.0115c7.1508 0 13.1238-4.2639 13.1238-12.7082l-.0841-25.1656c0-.6688-.5889-1.2541-1.2619-1.2541h-2.1032c-.673 0-1.0095.5017-1.2619 1.2541l-.673 2.0902s-3.0286-3.9295-8.6651-3.9295c-7.1508 0-12.619 5.8524-12.619 13.7951 0 7.6082 5.3 13.6278 13.1238 13.6278 2.6079 0 5.1317-.6688 6.3095-1.0869v.7525c0 4.8492-2.1873 6.1869-6.2254 6.1869-2.692 0-5.2159-1.4213-6.2254-2.0066-.5047-.3344-1.2619-.1672-1.5143.3345l-1.6825 3.6786c-.3365.5017-.1683 1.1705.2524 1.505 1.2619.9196 5.1317 2.9262 9.5063 2.9262zm.1683-33.2754c3.3651 0 5.2159 2.1738 5.8047 3.6787v9.2803s-2.1873 1.5049-5.4682 1.5049c-4.2905 0-6.5619-3.5115-6.5619-7.1901 0-3.7623 2.1032-7.2738 6.2254-7.2738z" fill-rule="evenodd"/><path d="m76.0509 28.5935c0-.5853.5889-1.2541 1.2619-1.2541h4.627c.5888 0 1.2619.5852 1.2619 1.2541v37.2049c0 .6688-.5889 1.2541-1.2619 1.2541h-4.5429c-.5889 0-1.2619-.5853-1.2619-1.2541v-37.2049z"/><path d="m105.832 60.4476c0-3.595-3.113-6.6885-6.7303-6.6885-3.7016 0-6.6461 3.0935-6.6461 6.6885 0 3.5115 3.0286 6.605 6.6461 6.605 3.6173 0 6.7303-3.0935 6.7303-6.605z"/></g><path d="m100.953 49.3278c-.841 0-1.5983-.6689-1.6824-1.505-.7571-11.2868-5.4682-21.9885-13.4603-30.0983-7.9921-8.10985-18.5921-13.12625-29.8651-14.21313-.9254-.08361-1.5984-.91968-1.5143-1.75574.0842-.919677.9254-1.588528 1.7667-1.504922 12.1143 1.086882 23.3873 6.437712 31.9683 15.132792 8.4968 8.6951 13.6281 20.1492 14.3861 32.2721.084.9197-.673 1.6722-1.515 1.7558 0-.0836-.084-.0836-.084-.0836z" fill="#199a99"/><path d="m2.27167 47.9064c-.08413 0-.08413 0-.16825 0-.9254-.0836-1.598416-.9196-1.514289-1.7557 2.271429-24.4131 21.788869-43.64261 46.353969-45.899992.9254-.083606 1.6825.585245 1.7667 1.504922.0841.91967-.5889 1.67213-1.5143 1.75574-22.9667 2.09016-41.13812 20.06553-43.32542 42.89013 0 .8361-.75714 1.5049-1.59841 1.5049z" fill="#093b5c"/><path d="m47.1114 101.498c-.0842 0-.0842 0-.1683 0-24.7333-2.1733-44.16667-21.57-46.353969-46.0667-.084127-.9197.588889-1.6722 1.514289-1.7558.92539-.0836 1.68253.5853 1.76666 1.5049 2.01905 22.9082 20.27462 41.0509 43.32542 43.0574.9254.0836 1.5984.9197 1.5143 1.7557 0 .8365-.7572 1.5045-1.5984 1.5045z" fill="#0680b7"/><path d="m55.9435 101.498c-.8412 0-1.5984-.668-1.6825-1.5045-.0841-.9197.5889-1.6722 1.5143-1.7558 16.4048-1.4213 31.2111-11.5377 38.6143-26.336.4206-.8361 1.4301-1.1705 2.1873-.7525.8413.418 1.1778 1.4213.7571 2.1738-7.9079 15.8016-23.7238 26.5869-41.3063 28.092 0 .083 0 .083-.0842.083z" fill="#749d41"/></svg>