<svg fill="none" height="50" viewBox="0 0 293 50" width="293" xmlns="http://www.w3.org/2000/svg" xmlns:xlink="http://www.w3.org/1999/xlink"><clipPath id="a"><path d="m0 0h293v50h-293z"/></clipPath><g clip-path="url(#a)" fill="#003de5"><path d="m49.5081 25.2821c0 4.7908 2.776 7.9895 6.9612 7.9895 4.1923 0 7.1878-3.37 7.1878-8.0466 0-4.8479-2.8893-8.275-6.9612-8.275-4.2489 0-7.1878 3.4271-7.1878 8.3321zm0-13.5227v3.2557c2.1528-2.913 4.6951-4.1696 8.6041-4.1696 2.776 0 5.0917.6854 7.3011 2.1705 3.9657 2.7416 5.9415 6.7328 5.9415 12.0448 0 8.4464-5.205 14.044-13.0797 14.044-3.7957 0-6.5646-1.1995-8.7741-3.7698v14.6722h-7.1807v-38.2478z"/><path d="m91.4594 22.5474c-.6232-3.4842-3.1159-5.5905-6.6779-5.5905-3.4558 0-5.7786 1.9992-6.4513 5.5905zm-13.1363 4.1625c.6232 3.6556 3.2859 5.9332 6.8479 5.9332 2.6627 0 4.9288-1.3137 6.0547-3.4271l6.6213 1.8278c-2.606 5.1406-7.1878 8.0465-12.7397 8.0465-8.3209 0-14.2694-5.9332-14.2694-14.1582 0-8.275 5.7219-14.094 13.8161-14.094 8.3775 0 14.2128 5.9332 14.2128 14.4367l-.0567 1.428h-20.487z"/><path d="m106.967 11.7594v3.2557c1.926-3.0273 3.852-4.1696 7.131-4.1696 2.493 0 4.872.9139 6.452 2.456 1.699 1.7136 2.322 3.827 2.322 8.1608v16.7214h-7.187v-16.3787c0-1.485-.17-2.3418-.624-3.0843-.679-1.0853-2.039-1.7707-3.455-1.7707-2.776 0-4.646 2.1134-4.646 5.1906v16.036h-7.1807v-26.4172z"/><path d="m157.353.114258-11.324 23.118642-11.267-23.118642h-8.774v38.069442h7.755v-23.747l12.286 24.8893 12.343-24.8893v23.747h7.755v-38.069442z"/><path d="m175.411 25.1677c0 4.6266 3.002 8.1037 6.904 8.1037 4.022 0 7.245-3.7698 7.245-8.3322 0-4.6837-2.946-7.9894-7.188-7.9894-4.072 0-6.961 3.37-6.961 8.2179zm14.042-13.4085h7.188v26.4244h-7.188v-3.6556c-2.436 3.1415-5.261 4.5695-9.114 4.5695-7.357 0-12.626-5.7619-12.626-13.8156 0-8.3321 5.545-14.4438 13.193-14.4438 3.569 0 5.998 1.2566 8.547 4.2768z"/><path d="m206.662 11.7594v3.884c.737-1.942 1.247-2.7417 2.323-3.5413 1.133-.7997 2.663-1.2566 4.249-1.2566.17 0 .453 0 .85.0571v7.4182c-.567-.0571-1.133-.1142-1.53-.1142-1.983 0-3.795.9139-4.815 2.399-.85 1.1994-1.077 2.3418-1.077 4.855v12.7303h-7.187v-26.4315z"/><path d="m213.742.114258v38.069442h7.188v-10.9596l7.301 10.9596h8.321l-8.887-13.7584 8.887-12.666h-8.321l-7.301 10.1599v-21.804942z"/><path d="m254.214 22.5474c-.623-3.4842-3.116-5.5905-6.678-5.5905-3.456 0-5.778 1.9992-6.451 5.5905zm-13.129 4.1625c.623 3.6556 3.286 5.9332 6.848 5.9332 2.662 0 4.928-1.3137 6.054-3.4271l6.622 1.8278c-2.606 5.1406-7.188 8.0465-12.74 8.0465-8.321 0-14.269-5.9332-14.269-14.1582 0-8.275 5.722-14.094 13.816-14.094 8.377 0 14.212 5.9332 14.212 14.4367l-.056 1.428h-20.487z"/><path d="m270.013 30.4226c0 1.2566.454 1.5993 2.04 1.7136h1.246v6.0474h-5.715c-3.512-.1143-4.808-1.5422-4.751-5.0265v-15.4076h-3.003v-6.1046h3.003v-7.08264h7.187v7.07554h3.286v6.1045h-3.286v12.6803z"/><path d="m285.804 19.4061v-.457c0-1.5993-1.416-2.7417-3.342-2.7417-1.756 0-2.889.9711-2.889 2.399 0 .6854.283 1.3709.736 1.7136.793.6283.85.6283 4.476 1.7706 5.884 1.8278 8.207 4.1697 8.207 8.4464 0 5.1407-4.079 8.5606-10.19 8.5606-6.225 0-10.021-3.1986-10.304-8.6748h6.905c.339 2.2847 1.359 3.3128 3.455 3.3128 1.7 0 2.89-1.0281 2.89-2.5132 0-1.5993-1.02-2.3418-4.872-3.5413-5.659-1.7135-8.208-4.2839-8.208-8.4464 0-5.0264 4.022-8.3892 10.134-8.3892 5.998 0 9.624 3.1986 9.794 8.5606z"/><path d="m18.7744 0v7.33257c-3.8382.42125-6.9612 2.10624-9.19186 5.29063-1.60043 2.2847-2.32983 4.8622-2.18112 7.6538.31867 6.0546 4.85798 10.9168 10.78528 11.6165 3.4274.3998 6.5362-.5212 9.206-2.756 2.6343-2.199 4.0506-5.0835 4.4189-8.532h7.3507c-.17 3.8983-1.3597 7.3968-3.5904 10.5169-3.2858 4.598-7.7401 7.3682-13.3063 8.1251-11.5429 1.5707-21.549184-7.0613-22.2219329-18.2993-.7577281-12.59464 9.4538929-20.8982214 18.7307329-20.9482z"/><path d="m20.72.0572033c8.9015-.0285592 18.2492 8.1679267 18.3766 18.6348967h-7.2302c-.9915-6.4187-4.681-10.24564-11.1535-11.38086v-7.2540367z"/></g></svg>