<svg fill="none" height="56" viewBox="0 0 277 56" width="277" xmlns="http://www.w3.org/2000/svg"><path d="m276.653 56h-8.881l-31.056-31.0772h35.498v6.216h-20.406zm-4.443-56h-55.96v56h6.221v-49.7798h49.739z" fill="#001eff"/><path d="m15.1567 41.8082h5.5106l-6.1178-12.4082.2056-.0602c3.2051-.9128 5.0084-3.4734 4.9832-7.0182-.0447-5.1576-3.24-8.1144-8.7646-8.1144h-10.9737v27.6192h5.00838v-11.41h4.90486l5.24346 11.3946zm-10.14832-15.3706v-8.2656h5.06012c3.0792 0 4.7132 1.428 4.7132 4.1356 0 2.9316-1.6382 4.13-5.6407 4.13zm36.01422 3.052v-4.1356h-9.5873v-7.0182h13.1435v-4.144h-18.1267v27.6178h18.573v-4.1356h-13.5898v-8.1858h9.5873zm25.0951-4.1342h-9.3173v-7.0182h12.4678v-4.144h-17.4496v27.6178h5.0084v-12.32h9.2921v-4.137zm9.1116-11.1636v27.6192h4.9832v-27.6206h-4.9832zm43.1817 0v27.6192h4.984v-27.6206h-4.984zm30.693 0h-19.602v4.1356h7.318v23.4836h5.008v-23.485h7.318l-.039-4.1356zm6.058 0v27.6192h4.983v-27.6206h-4.984zm-49.839 0v19.5734h-.076l-11.2852-19.5482h-5.2784v27.6192h4.6726v-20.4526h.0755l6.1612 10.752 5.5493 9.674h4.869v-27.6192h-4.688zm78.425 0-6.433 22.4h-.045l-6.466-22.4h-4.882l8.514 27.6192h5.694l8.515-27.6192z" fill="#000"/></svg>