<svg fill="none" height="57" viewBox="0 0 160 57" width="160" xmlns="http://www.w3.org/2000/svg"><path d="m42.1165 21.8872h16.1597v2.9777h-6.3627v16.7858h-3.4876v-16.7858h-6.3361zm15.4675 5.4547h2.9817v2.7669h.0533c.1065-.3952.2928-.7642.559-1.1331.2663-.3689.5857-.7115.9851-1.0013.3727-.3163.7986-.5534 1.2778-.7379.4526-.1844.9318-.2898 1.411-.2898.3727 0 .6389.0263.7721.0263.1331.0264.2928.0527.4259.0527v3.0304c-.213-.0527-.4526-.079-.6922-.1054-.2396-.0263-.4525-.0527-.6921-.0527-.5325 0-1.0383.1054-1.5175.3162s-.8786.5271-1.2513.9223c-.3461.4216-.6389.9223-.8519 1.5284s-.3194 1.3176-.3194 2.1081v6.7987h-3.1947zm23.1082 14.3088h-3.1415v-2.0027h-.0532c-.3993.7379-.985 1.2912-1.7571 1.7392-.772.448-1.5707.6588-2.3693.6588-1.8902 0-3.2746-.448-4.1265-1.3966-.8519-.9223-1.2779-2.3453-1.2779-4.2163v-9.0912h3.1947v8.775c0 1.2649.2396 2.1608.7454 2.6615.4792.527 1.1714.7906 2.0499.7906.6656 0 1.2247-.1054 1.6772-.3163.4526-.2108.8253-.4743 1.0916-.8168.2928-.3426.4792-.7642.6123-1.2386.1331-.4743.1863-1.0013.1863-1.5547v-8.3007h3.1947v14.3088zm5.4309-4.5851c.1065.9223.4526 1.5547 1.0649 1.95.6123.3689 1.3578.5534 2.2097.5534.2928 0 .6389-.0264 1.0116-.0791s.7455-.1318 1.0649-.2635c.3461-.1318.6123-.3162.8253-.5797.213-.2636.3195-.5798.2929-.975-.0267-.3953-.1598-.7379-.4526-1.0014-.2929-.2635-.639-.448-1.0649-.6324-.426-.1581-.9318-.2899-1.4909-.3953-.559-.1054-1.1181-.2372-1.7038-.3689-.5857-.1318-1.1714-.2899-1.7304-.4743-.5591-.1845-1.0383-.4217-1.4909-.7642-.426-.3162-.7987-.7115-1.0383-1.2122-.2662-.5007-.3993-1.0804-.3993-1.8182 0-.7906.1864-1.423.5857-1.95.3727-.5271.8785-.9487 1.4642-1.2649s1.2513-.5534 1.9701-.6851c.7188-.1318 1.411-.1845 2.0499-.1845.7454 0 1.4642.0791 2.1298.2372.6655.1581 1.3045.3952 1.8369.7642.5591.3425 1.0117.8169 1.3577 1.3702.3728.5534.5857 1.2385.6922 2.0291h-3.3278c-.1597-.7642-.5058-1.2649-1.0382-1.5284-.5591-.2635-1.1714-.3953-1.8902-.3953-.213 0-.5058.0264-.7987.0527-.3195.0527-.5857.1054-.8785.2109-.2662.1054-.5058.2635-.6922.4479-.1864.1845-.2928.448-.2928.7642 0 .3953.1331.6851.3993.9223s.6123.4216 1.0649.6061c.4259.1581.9318.2899 1.4908.3953.5591.1054 1.1448.2371 1.7305.3689.5857.1317 1.1447.2898 1.7038.4743s1.0649.4216 1.4909.7642c.4259.3162.7986.7115 1.0649 1.1858.2662.4743.3993 1.0804.3993 1.7655 0 .8433-.1864 1.5548-.5857 2.1609-.3993.5797-.9052 1.0804-1.5175 1.4493s-1.3311.6324-2.0765.8169c-.7721.1581-1.5175.2635-2.2629.2635-.9052 0-1.7571-.1054-2.5291-.3162-.7721-.2108-1.4643-.5271-2.0233-.9223-.5591-.4216-1.0117-.9223-1.3311-1.5548-.3195-.606-.5059-1.3439-.5325-2.2135h3.2213v.0264zm10.5158-9.7237h2.4227v-4.3216h3.1944v4.2953h2.875v2.3453h-2.875v7.6418c0 .3426.027.6061.053.8696.027.2372.107.448.187.6061.106.1581.266.2899.452.3689.213.0791.48.1318.852.1318.213 0 .453 0 .666-.0264.213-.0263.452-.0527.665-.1054v2.4507c-.346.0527-.692.0791-1.038.1054-.346.0527-.665.0527-1.038.0527-.852 0-1.518-.079-2.023-.2371-.506-.1581-.906-.3953-1.1984-.6852-.2928-.3162-.4792-.6851-.5857-1.1331s-.1597-1.0013-.1863-1.5811v-8.4324h-2.4227v-2.398zm10.7291 0h3.008v1.95h.053c.453-.8432 1.065-1.4229 1.864-1.7919.799-.3689 1.65-.5533 2.609-.5533 1.145 0 2.13.1844 2.982.606.851.3953 1.544.9223 2.103 1.6338.559.6852.985 1.5021 1.251 2.4244s.426 1.9236.426 2.9513c0 .975-.133 1.8973-.373 2.7932-.266.896-.639 1.7129-1.145 2.398-.505.6852-1.144 1.2385-1.943 1.6602-.799.4216-1.704.6324-2.769.6324-.452 0-.931-.0527-1.384-.1318-.453-.079-.905-.2108-1.331-.3952-.426-.1845-.825-.4217-1.172-.7115-.372-.2899-.665-.6325-.905-1.0014h-.053v7.1412h-3.195v-19.6054zm11.154 7.1676c0-.6324-.079-1.2649-.266-1.8709-.159-.6061-.426-1.1332-.772-1.6075s-.772-.8432-1.251-1.1331c-.506-.2898-1.092-.4216-1.73-.4216-1.332 0-2.343.448-3.035 1.3703-.666.9223-1.012 2.1608-1.012 3.6892 0 .7378.08 1.3966.266 2.0027.187.606.426 1.1331.799 1.581.346.448.772.7906 1.278 1.0541s1.065.3953 1.73.3953c.746 0 1.331-.1581 1.837-.448s.905-.6852 1.251-1.1331c.32-.4743.559-1.0014.692-1.6074.134-.6325.213-1.2386.213-1.871zm5.618-12.6223h3.194v2.9777h-3.194zm0 5.4547h3.194v14.3088h-3.194zm6.043-5.4547h3.195v19.7635h-3.195zm12.938 20.1588c-1.144 0-2.183-.1845-3.088-.5797-.905-.3953-1.65-.896-2.289-1.5548-.613-.6588-1.092-1.4756-1.411-2.3979-.32-.9223-.506-1.95-.506-3.0305 0-1.0804.16-2.0817.506-3.004.319-.9223.798-1.7128 1.411-2.398.612-.6588 1.384-1.1858 2.289-1.5547s1.944-.5797 3.088-.5797c1.145 0 2.184.1844 3.089.5797.905.3689 1.65.8959 2.289 1.5547.613.6588 1.092 1.4757 1.411 2.398.32.9223.506 1.9236.506 3.004 0 1.1068-.16 2.1082-.506 3.0305s-.798 1.7128-1.411 2.3979c-.612.6588-1.384 1.1858-2.289 1.5548-.905.3689-1.917.5797-3.089.5797zm0-2.5034c.693 0 1.332-.1581 1.837-.448.533-.2898.932-.6851 1.278-1.1594s.586-1.0277.746-1.6075c.159-.606.239-1.2121.239-1.8446 0-.606-.08-1.2121-.239-1.8182-.16-.6061-.4-1.1331-.746-1.6074-.346-.4744-.772-.8433-1.278-1.1331-.532-.2899-1.144-.448-1.837-.448-.692 0-1.331.1581-1.836.448-.533.2898-.932.6851-1.278 1.1331-.346.4743-.586 1.0013-.746 1.6074-.159.6061-.239 1.2122-.239 1.8182 0 .6325.08 1.2386.239 1.8446.16.6061.4 1.1332.746 1.6075s.772.8696 1.278 1.1594c.532.3163 1.144.448 1.836.448zm8.253-12.2007h2.423v-4.3216h3.195v4.2953h2.875v2.3453h-2.875v7.6418c0 .3426.026.6061.053.8696.027.2372.106.448.186.6061.107.1581.267.2899.453.3689.213.0791.479.1318.852.1318.213 0 .452 0 .665-.0264.213-.0263.453-.0527.666-.1054v2.4507c-.346.0527-.692.0791-1.038.1054-.346.0527-.666.0527-1.039.0527-.852 0-1.517-.079-2.023-.2371s-.905-.3953-1.198-.6852c-.293-.3162-.479-.6851-.586-1.1331-.106-.448-.159-1.0013-.186-1.5811v-8.4324h-2.423v-2.398z" fill="#000"/><path d="m38.3891 21.8871h-14.6157l-4.4992-13.75539-4.5257 13.75539-14.615688-.0263 11.820288 8.5115-4.52578 13.7554 11.82028-8.5115 11.8203 8.5115-4.4991-13.7554z" fill="#00b67a"/><path d="m27.5815 33.4818-1.0116-3.1095-7.2945 5.2439z" fill="#005128"/></svg>