<svg width="438" height="438" viewBox="0 0 438 438" fill="none" xmlns="http://www.w3.org/2000/svg">
<mask id="path-1-inside-1" fill="white">
<rect x="50" y="90" width="70" height="212" rx="3"/>
</mask>
<rect x="50" y="90" width="70" height="212" rx="3" fill="white" stroke="#A6AAB4" stroke-width="8" mask="url(#path-1-inside-1)"/>
<mask id="path-2-inside-2" fill="white">
<rect x="230" y="56" width="70" height="183" rx="3"/>
</mask>
<rect x="230" y="56" width="70" height="183" rx="3" fill="white" stroke="#A6AAB4" stroke-width="8" mask="url(#path-2-inside-2)"/>
<mask id="path-3-inside-3" fill="white">
<rect x="320" y="186" width="70" height="103" rx="3"/>
</mask>
<rect x="320" y="186" width="70" height="103" rx="3" fill="#DFDFE0" stroke="#A6AAB4" stroke-width="8" mask="url(#path-3-inside-3)"/>
<path d="M81 68C81 65.7909 82.7909 64 85 64C87.2091 64 89 65.7909 89 68V90H81V68Z" fill="#A6AAB4"/>
<path d="M171 159C171 156.791 172.791 155 175 155C177.209 155 179 156.791 179 159V181H171V159Z" fill="#A6AAB4"/>
<path d="M261 34C261 31.7909 262.791 30 265 30C267.209 30 269 31.7909 269 34V56H261V34Z" fill="#A6AAB4"/>
<path d="M351 164C351 161.791 352.791 160 355 160C357.209 160 359 161.791 359 164V186H351V164Z" fill="#A6AAB4"/>
<path d="M81 324C81 326.209 82.7909 328 85 328C87.2091 328 89 326.209 89 324V302H81V324Z" fill="#A6AAB4"/>
<path d="M261 261C261 263.209 262.791 265 265 265C267.209 265 269 263.209 269 261V239H261V261Z" fill="#A6AAB4"/>
<path d="M351 311C351 313.209 352.791 315 355 315C357.209 315 359 313.209 359 311V289H351V311Z" fill="#A6AAB4"/>
<path d="M207.996 241.356L189.65 227.728L188.006 226.507L186.824 228.179L168.749 253.756L141.996 247.734V183C141.996 182.448 142.444 182 142.996 182H206.996C207.548 182 207.996 182.448 207.996 183V241.356Z" fill="#DFDFE0" stroke="#A6AAB4" stroke-width="4"/>
<mask id="path-12-inside-4" fill="white">
<path d="M113.296 368.523L174.167 384.834C175.767 385.262 177.412 384.313 177.841 382.712L199.737 300.995L184.377 276.268L161.963 288.125L139.941 257.491L111.175 364.849C110.746 366.449 111.696 368.094 113.296 368.523Z"/>
</mask>
<path d="M113.296 368.523L174.167 384.834C175.767 385.262 177.412 384.313 177.841 382.712L199.737 300.995L184.377 276.268L161.963 288.125L139.941 257.491L111.175 364.849C110.746 366.449 111.696 368.094 113.296 368.523Z" fill="#DFDFE0"/>
<path d="M174.167 384.834L173.132 388.697L174.167 384.834ZM113.296 368.523L114.331 364.66L113.296 368.523ZM199.737 300.995L203.601 302.03L204.05 300.356L203.135 298.884L199.737 300.995ZM177.841 382.712L173.978 381.677L177.841 382.712ZM184.377 276.268L187.775 274.157L185.806 270.987L182.507 272.732L184.377 276.268ZM139.941 257.491L143.189 255.156L138.262 248.302L136.078 256.455L139.941 257.491ZM161.963 288.125L158.715 290.46L160.751 293.292L163.833 291.661L161.963 288.125ZM111.175 364.849L115.039 365.884L111.175 364.849ZM175.202 380.97L114.331 364.66L112.261 372.387L173.132 388.697L175.202 380.97ZM195.874 299.96L173.978 381.677L181.705 383.747L203.601 302.03L195.874 299.96ZM180.98 278.378L196.34 303.106L203.135 298.884L187.775 274.157L180.98 278.378ZM136.694 259.825L158.715 290.46L165.211 285.79L143.189 255.156L136.694 259.825ZM163.833 291.661L186.248 279.804L182.507 272.732L160.093 284.589L163.833 291.661ZM115.039 365.884L143.805 258.526L136.078 256.455L107.311 363.814L115.039 365.884ZM114.331 364.66C114.865 364.802 115.181 365.351 115.039 365.884L107.311 363.814C106.311 367.548 108.527 371.386 112.261 372.387L114.331 364.66ZM173.132 388.697C176.866 389.698 180.704 387.482 181.705 383.747L173.978 381.677C174.121 381.143 174.669 380.827 175.202 380.97L173.132 388.697Z" fill="#A6AAB4" mask="url(#path-12-inside-4)"/>
<path d="M138.867 375L146.595 377.071L140.759 398.848C140.188 400.982 137.994 402.248 135.86 401.676C133.727 401.104 132.46 398.911 133.032 396.777L138.867 375Z" fill="#A6AAB4"/>
</svg>
