<svg fill="none" height="102" viewBox="0 0 106 102" width="106" xmlns="http://www.w3.org/2000/svg"><g fill="#093b5c"><path clip-rule="evenodd" d="m18.508 27.3389c-.673 0-1.2619.6688-1.2619 1.2541v37.2049c0 .6688.673 1.2541 1.2619 1.2541h1.8508c.673 0 1.0936-.5017 1.346-1.2541l.5889-2.0066s3.0286 3.9295 8.8333 3.9295c7.235 0 12.4508-6.2705 12.4508-13.795 0-7.6082-4.9635-13.6279-12.7873-13.6279-2.5238 0-5.2158.6688-6.3936 1.1705v-12.8754c0-.6689-.5889-1.2541-1.2619-1.2541zm18.0032 26.5869c0 3.7623-2.1032 7.2737-6.2254 7.2737-3.4492 0-5.3-2.0901-5.8048-3.5951v-9.3639s2.1873-1.5049 5.4683-1.5049c4.2904 0 6.5619 3.5115 6.5619 7.1902z" fill-rule="evenodd"/><path clip-rule="evenodd" d="m58.4682 80.011c7.1508 0 13.1238-4.2639 13.1238-12.7082l-.0841-25.1656c0-.6688-.5889-1.2541-1.2619-1.2541h-2.1032c-.673 0-1.0095.5017-1.2619 1.2541l-.673 2.0902s-3.0286-3.9295-8.6651-3.9295c-7.1508 0-12.619 5.8524-12.619 13.7951 0 7.6082 5.3 13.6278 13.1238 13.6278 2.6079 0 5.1317-.6688 6.3095-1.0868v.7524c0 4.8492-2.1873 6.1869-6.2254 6.1869-2.692 0-5.2159-1.4213-6.2254-2.0066-.5047-.3344-1.2619-.1672-1.5143.3345l-1.6825 3.6787c-.3365.5016-.1683 1.1704.2524 1.5049 1.2619.9196 5.1317 2.9262 9.5063 2.9262zm.1683-33.2754c3.3651 0 5.2159 2.1738 5.8047 3.6787v9.2803s-2.1873 1.5049-5.4682 1.5049c-4.2905 0-6.5619-3.5114-6.5619-7.1901 0-3.7623 2.1032-7.2738 6.2254-7.2738z" fill-rule="evenodd"/><path d="m76.0509 28.593c0-.5853.5889-1.2541 1.2619-1.2541h4.627c.5888 0 1.2619.5852 1.2619 1.2541v37.2049c0 .6688-.5889 1.2541-1.2619 1.2541h-4.5429c-.5889 0-1.2619-.5853-1.2619-1.2541v-37.2049z"/><path d="m105.832 60.4471c0-3.595-3.113-6.6885-6.7303-6.6885-3.7016 0-6.6461 3.0935-6.6461 6.6885 0 3.5115 3.0286 6.605 6.6461 6.605 3.6173 0 6.7303-3.0935 6.7303-6.605z"/></g><path d="m100.952 49.3282c-.841 0-1.598-.6688-1.6821-1.5049-.7572-11.2869-5.4683-21.9885-13.4603-30.0983-7.9921-8.10987-18.5921-13.12626-29.8651-14.21315-.9254-.0836-1.5984-.91967-1.5143-1.75574.0841-.919668.9254-1.58852 1.7667-1.504914 12.1143 1.086884 23.3873 6.437704 31.9682 15.132804 8.4968 8.6951 13.6289 20.1492 14.3859 32.2721.084.9197-.673 1.6721-1.514 1.7557 0-.0836-.085-.0836-.085-.0836z" fill="#199a99"/><path d="m2.27143 47.9069c-.08413 0-.08413 0-.16826 0-.9254-.0836-1.59841-.9196-1.514283-1.7557 2.271433-24.4131 21.788913-43.64263 46.354013-45.900004.9254-.083606 1.6825.585246 1.7666 1.504914.0841.91968-.5889 1.67214-1.5143 1.75574-22.9666 2.09017-41.13806 20.06555-43.32536 42.89015 0 .8361-.75714 1.5049-1.59841 1.5049z" fill="#093b5c"/><path d="m47.1111 101.498c-.0841 0-.0841 0-.1682 0-24.7334-2.1738-44.16671-21.5705-46.354013-46.0672-.084127-.9197.588883-1.6722 1.514283-1.7558s1.68254.5853 1.76667 1.5049c2.01905 22.9082 20.27456 41.0509 43.32536 43.0574.9254.0836 1.5984.9197 1.5143 1.7558 0 .8359-.7571 1.5049-1.5984 1.5049z" fill="#0680b7"/><path d="m55.9444 101.498c-.8413 0-1.5984-.669-1.6825-1.505-.0842-.9197.5889-1.6721 1.5142-1.7558 16.4048-1.4213 31.2112-11.5377 38.6143-26.336.4207-.8361 1.4302-1.1705 2.1873-.7525.8413.4181 1.1778 1.4213.7572 2.1738-7.908 15.8016-23.7238 26.5869-41.3064 28.0915 0 .084 0 .084-.0841.084z" fill="#749d41"/></svg>