<svg fill="none" height="21" viewBox="0 0 21 21" width="21" xmlns="http://www.w3.org/2000/svg"><g fill="#3b414b"><path d="m5.00049 1c-.55229 0-1 .44772-1 1h-1c0-1.10457.89543-2 2-2h14.00001c1.1046 0 2 .895431 2 2v14c0 1.1046-.8959 2-2.0005 2l.0005-1c.5523 0 1-.4477 1-1v-14c0-.55228-.4477-1-1-1z"/><path clip-rule="evenodd" d="m2 3c-1.104569 0-2 .89543-2 2v14c0 1.1046.895431 2 2 2h14c1.1046 0 2-.8954 2-2v-14c0-1.10457-.8954-2-2-2zm14 1h-14c-.55228 0-1 .44772-1 1v14c0 .5523.44772 1 1 1h14c.5523 0 1-.4477 1-1v-14c0-.55228-.4477-1-1-1z" fill-rule="evenodd"/></g></svg>