<svg fill="none" height="40" viewBox="0 0 128 40" width="128" xmlns="http://www.w3.org/2000/svg" xmlns:xlink="http://www.w3.org/1999/xlink"><linearGradient id="a" gradientUnits="userSpaceOnUse" x1="20.7448" x2="1.80002" y1="8.48853" y2="13.4154"><stop offset="0" stop-color="#00a0ff"/><stop offset=".00657" stop-color="#00a1ff"/><stop offset=".2601" stop-color="#00beff"/><stop offset=".5122" stop-color="#00d2ff"/><stop offset=".7604" stop-color="#00dfff"/><stop offset="1" stop-color="#00e3ff"/></linearGradient><linearGradient id="b" gradientUnits="userSpaceOnUse" x1="32.1981" x2="9.17145" y1="19.5" y2="19.5"><stop offset="0" stop-color="#ffe000"/><stop offset=".4087" stop-color="#ffbd00"/><stop offset=".7754" stop-color="#ffa500"/><stop offset="1" stop-color="#ff9c00"/></linearGradient><linearGradient id="c" gradientUnits="userSpaceOnUse" x1="23.6257" x2="7.91481" y1="21.7399" y2="47.5489"><stop offset="0" stop-color="#ff3a44"/><stop offset="1" stop-color="#c31162"/></linearGradient><linearGradient id="d" gradientUnits="userSpaceOnUse" x1="6.94186" x2="13.9513" y1=".174593" y2="11.7015"><stop offset="0" stop-color="#32a071"/><stop offset=".0685" stop-color="#2da771"/><stop offset=".4762" stop-color="#15cf74"/><stop offset=".8009" stop-color="#06e775"/><stop offset="1" stop-color="#00f076"/></linearGradient><path clip-rule="evenodd" d="m123.258 40h-118.51551c-2.61379 0-4.74249-2.2544-4.74249-5v-30c0-2.75561 2.1287-5 4.74249-5h118.51551c2.611 0 4.742 2.24439 4.742 5v30c0 2.7456-2.131 5-4.742 5z" fill="#000" fill-rule="evenodd"/><path clip-rule="evenodd" d="m123.258.800499c2.192 0 3.986 1.887781 3.986 4.199501v30c0 2.3117-1.782 4.1995-3.986 4.1995h-118.51551c-2.19229 0-3.986612-1.8878-3.986612-4.1995v-30c0-2.31172 1.782552-4.199501 3.986612-4.199501zm0-.800499h-118.51551c-2.61379 0-4.74249 2.25436-4.74249 5v30c0 2.7556 2.1287 5 4.74249 5h118.51551c2.611 0 4.742-2.2444 4.742-5v-30c0-2.74564-2.131-5-4.742-5z" fill="#a6a6a6" fill-rule="evenodd"/><path d="m67.9578 12.9014c-.8614 0-1.5876-.3088-2.1619-.9167-.5696-.5908-.8876-1.4054-.8733-2.2369 0-.88747.2942-1.63878.8733-2.23447.5719-.60786 1.2981-.91665 2.1596-.91665.8519 0 1.5781.30879 2.1619.91665.5791.61515.8733 1.36646.8733 2.23447-.0095.8899-.3037 1.6412-.8733 2.2345-.5719.6127-1.2981.9191-2.1596.9191zm-25.6324 0c-.8425 0-1.5734-.304-2.1714-.9045-.5933-.5982-.8947-1.3543-.8947-2.24667 0-.89233.3014-1.6485.8947-2.24663.5861-.60056 1.3171-.90449 2.1714-.90449.4177 0 .8235.0851 1.2127.25773.3821.16777.6929.39632.9231.67594l.057.07051-.6431.64676-.0665-.08024c-.3631-.44252-.8496-.65892-1.4927-.65892-.5743 0-1.075.20911-1.488.62245-.4153.41577-.6265.96041-.6265 1.61933 0 .65893.2112 1.20353.6265 1.61933.413.4133.9137.6224 1.488.6224.6123 0 1.1272-.2091 1.5283-.6224.2373-.2431.3845-.5835.4367-1.0139h-2.0623v-.90936h2.9475l.0118.08267c.0214.15318.0427.31122.0427.4571 0 .83889-.2468 1.51719-.7356 2.01809-.5554.5933-1.2815.8948-2.1596.8948zm34.0809-.1289h-.909l-2.7837-4.56379.0238.82182v3.73957h-.909v-6.04212h1.0371l.0285.04619 2.6176 4.29873-.0237-.8194v-3.52552h.9184zm-15.2784 0h-.9208v-5.13517h-1.5971v-.90935h4.1127v.90935h-1.5972v5.13517zm-3.2678 0h-.9185v-6.04452h.9185zm-5.1616 0h-.9185v-5.13517h-1.5971v-.90935h4.1127v.90935h-1.5971zm-3.097-.0097h-3.5218v-6.03482h3.5218v.90935h-2.601v1.65823h2.3471v.89964h-2.3471v1.6582h2.601zm16.8684-1.403c.4105.4207.9089.6322 1.4879.6322.5957 0 1.0822-.2067 1.488-.6322.4034-.4133.6075-.9555.6075-1.60957 0-.65405-.2041-1.19869-.6051-1.6096-.4106-.42063-.9113-.63217-1.488-.63217-.5957 0-1.0821.20667-1.4856.63217-.4034.41334-.6075.95555-.6075 1.6096 0 .65407.2017 1.19867.6028 1.60957z" fill="#fff"/><g clip-rule="evenodd" fill-rule="evenodd"><path d="m64.8371 21.2116c-2.2426 0-4.0605 1.7433-4.0605 4.148 0 2.3828 1.8297 4.148 4.0605 4.148 2.2426 0 4.0605-1.7555 4.0605-4.148 0-2.4047-1.8179-4.148-4.0605-4.148zm0 6.6523c-1.2269 0-2.283-1.0406-2.283-2.5141 0-1.4953 1.0585-2.5141 2.283-2.5141 1.2269 0 2.283 1.0188 2.283 2.5141.0024 1.4832-1.0561 2.5141-2.283 2.5141zm-8.859-6.6523c-2.2426 0-4.0605 1.7433-4.0605 4.148 0 2.3828 1.8297 4.148 4.0605 4.148 2.2426 0 4.0605-1.7555 4.0605-4.148 0-2.4047-1.8202-4.148-4.0605-4.148zm0 6.6523c-1.2269 0-2.283-1.0406-2.283-2.5141 0-1.4953 1.0585-2.5141 2.283-2.5141 1.2269 0 2.283 1.0188 2.283 2.5141 0 1.4832-1.0561 2.5141-2.283 2.5141zm-10.5416-5.3856v1.7555h4.1127c-.1258.9847-.4438 1.7117-.9303 2.2102-.6027.6176-1.533 1.2886-3.1729 1.2886-2.5274 0-4.5042-2.091-4.5042-4.6805 0-2.5894 1.9768-4.6804 4.5042-4.6804 1.3646 0 2.359.5519 3.097 1.257l1.2151-1.2449c-1.0252-1.0066-2.3898-1.7774-4.3026-1.7774-3.4672 0-6.3766 2.8934-6.3766 6.436 0 3.5523 2.9071 6.436 6.3766 6.436 1.8725 0 3.2774-.6273 4.388-1.809 1.132-1.1598 1.4903-2.7961 1.4903-4.1164 0-.4109-.0308-.7805-.0949-1.0941h-5.8047c.0023-.0025.0023.0194.0023.0194zm43.1179 1.3665c-.3393-.9312-1.3645-2.643-3.4672-2.643-2.0836 0-3.816 1.6801-3.816 4.148 0 2.3293 1.7134 4.148 4.0178 4.148 1.851 0 2.9284-1.1597 3.3722-1.8405l-1.374-.9434c-.4557.6929-1.0893 1.1476-1.9887 1.1476-.909 0-1.545-.4231-1.9674-1.257l5.4132-2.2977c0 .0024-.1899-.462-.1899-.462zm-5.5199 1.3859c-.0428-1.6023 1.215-2.4168 2.1144-2.4168.7096 0 1.3005.3574 1.5023.8777zm-4.3975 4.0191h1.7775v-12.1862h-1.7775zm-2.919-7.1167h-.0641c-.401-.4887-1.1628-.9313-2.1358-.9313-2.0195 0-3.8801 1.8212-3.8801 4.1602 0 2.3293 1.8511 4.1286 3.8801 4.1286.9611 0 1.7348-.445 2.1358-.9434h.0641v.5957c0 1.5828-.8258 2.4362-2.1572 2.4362-1.0893 0-1.7656-.8023-2.0409-1.4734l-1.5449.6613c.4438 1.0942 1.628 2.4485 3.5835 2.4485 2.0836 0 3.8492-1.2571 3.8492-4.3231v-7.4426h-1.6802v.6833zm-2.0409 5.7308c-1.2269 0-2.2521-1.0503-2.2521-2.5019 0-1.4637 1.0252-2.5238 2.2521-2.5238 1.2151 0 2.1572 1.0722 2.1572 2.5238.0119 1.4516-.9398 2.5019-2.1572 2.5019zm23.2-10.8003h-4.2503v12.1862h1.7775v-4.6148h2.4752c1.9673 0 3.9015-1.4613 3.9015-3.7809 0-2.3195-1.9271-3.7905-3.9039-3.7905zm.0522 5.8694h-2.5274v-4.182h2.5274c1.3313 0 2.0836 1.1257 2.0836 2.091 0 .9555-.7618 2.091-2.0836 2.091zm10.9757-1.7433c-1.291 0-2.622.5859-3.173 1.8624l1.576.6711c.339-.6711.961-.8996 1.619-.8996.92 0 1.851.5641 1.872 1.5707v.1289c-.318-.1848-1.016-.4669-1.851-.4669-1.702 0-3.427.9531-3.427 2.7402 0 1.6364 1.395 2.6868 2.95 2.6868 1.194 0 1.851-.552 2.261-1.1914h.065v.9434h1.713v-4.6684c0-2.1737-1.576-3.3772-3.605-3.3772zm-.223 6.6742c-.581 0-1.395-.2917-1.395-1.0406 0-.9434 1.015-1.3008 1.882-1.3008.783 0 1.153.1726 1.618.4109-.128 1.0941-1.03 1.9208-2.105 1.9305zm10.079-6.4141-2.041 5.2859h-.064l-2.115-5.2859h-1.912l3.173 7.3891-1.809 4.1067h1.851l4.882-11.4958zm-16 7.8h1.778v-12.1862h-1.778z" fill="#fff"/><path d="m9.9294 7.34495c-.27528.30392-.43428.76832-.43428 1.37618v21.55937c0 .6079.159 1.0723.44378 1.3641l.0736.0656 11.7898-12.0793v-.2699l-11.7993-12.0817z" fill="url(#a)"/><path d="m25.725 23.6699-3.9323-4.0289v-.2821l3.9323-4.0288.0855.0535 4.6514 2.7086c1.3313.7683 1.3313 2.0375 0 2.8156l-4.6514 2.7086z" fill="url(#b)"/><path d="m25.8104 23.6164-4.0178-4.1164-11.8634 12.1547c.4343.4765 1.1628.53 1.9768.0656z" fill="url(#c)"/><path d="m25.8104 15.3839-13.9044-8.09179c-.814-.47656-1.5449-.41091-1.9768.06564l11.8634 12.14255z" fill="url(#d)"/><path d="m25.725 23.5293-13.8094 8.0383c-.7713.4547-1.4595.4231-1.9033.0097l-.07358.0754.07358.0656c.4438.4109 1.132.445 1.9033-.0097l13.9043-8.0918z" fill="#000" opacity=".2"/><path d="m30.4618 20.7668-4.7487 2.7621.0855.0875 4.6513-2.7086c.6669-.389.9944-.8996.9944-1.4078-.0403.4668-.3797.9094-.9825 1.2668z" fill="#000" opacity=".12"/><path d="m11.9062 7.43249 18.5557 10.80041c.6028.3477.9422.8023.9944 1.2667 0-.5081-.3275-1.0187-.9944-1.4078l-18.5557-10.80033c-1.3313-.78049-2.41108-.12887-2.41108 1.42968v.14102c0-1.56097 1.07978-2.20044 2.41108-1.42968z" fill="#fff" opacity=".25"/></g></svg>