<svg fill="none" height="40" viewBox="0 0 128 40" width="128" xmlns="http://www.w3.org/2000/svg"><path d="m117.807.00013h-107.6081c-.39227 0-.77981 0-1.17101.002-.32748.002-.65235.00781-.98297.0127-.71826.0079018-1.43484.0669763-2.14349.17671-.70766.112123-1.39316.323506-2.0333.627-.63936.30606-1.22356.70376-1.73141 1.17866-.51051.47357-.93606 1.02095-1.260293 1.62109-.325123.59895-.550565 1.24078-.668538 1.90332-.1190954.66171-.1831816 1.33104-.1916836 2.002-.00992649.3066-.01097476.61422-.0162054.92086v23.11423c.00523064.3105.00627891.6113.0162054.9219.0085046.671.0725908 1.3403.1916836 2.0019.117647.663.343102 1.3052.668538 1.9043.324083.5982.749693 1.1434 1.260293 1.6143.50593.477 1.0905.875 1.73141 1.1787.64014.3043 1.32556.517 2.0333.6308.70878.1089 1.42528.168 2.14349.1768.33062.0068.65549.0107.98297.0107.39119.002.77876.002 1.17101.002h107.6081c.384 0 .775 0 1.159-.002.326 0 .661-.0039.987-.0107.716-.0083 1.432-.0674 2.139-.1768.71-.1146 1.398-.3272 2.041-.6308.64-.3039 1.224-.7018 1.73-1.1787.509-.4727.936-1.0175 1.264-1.6143.323-.5996.546-1.2417.662-1.9043.119-.6617.186-1.3309.198-2.0019.005-.3106.005-.6114.005-.9219.008-.3633.008-.7246.008-1.0938v-20.92864c0-.36621 0-.72949-.008-1.09179 0-.30664 0-.61426-.005-.9209-.012-.67102-.079-1.3402-.198-2.002-.116-.66216-.34-1.30394-.662-1.90332-.661-1.20292-1.708-2.18209-2.994-2.7998-.643-.302753-1.331-.51408-2.041-.627-.707-.1102172-1.423-.1693122-2.139-.17676-.326-.00488-.661-.01074-.987-.01269-.384-.002-.775-.002-1.159-.002z" fill="#a6a6a6"/><path d="m9.03312 39.125c-.32591 0-.64394-.0039-.96728-.0107-.66985-.0082-1.33812-.0627-1.99935-.1631-.61656-.0993-1.21385-.2839-1.77215-.5479-.55319-.2618-1.05773-.605-1.49432-1.0166-.4429-.4067-.81164-.8785-1.0916-1.3965-.28304-.5214-.47892-1.0803-.58082-1.6572-.11005-.6199-.169583-1.2467-.178102-1.875-.006782-.2109-.01566-.9131-.01566-.9131v-23.10056s.009456-.69141.015713-.89454c.008157-.62732.067349-1.25315.177059-1.87207.10209-.57848.29812-1.13898.58132-1.6621.27893-.51769.64562-.98977 1.08586-1.39795.43974-.41206.9459-.75708 1.50002-1.02247.55703-.26312 1.15318-.44648 1.7685-.54394.6634-.101434 1.33399-.156274 2.00616-.16406l.96517-.01221h109.92736l.977.0127c.666.007399 1.33.06175 1.988.16259.621.09869 1.224.28333 1.787.54785 1.11.53485 2.013 1.38102 2.583 2.41993.279.51951.472 1.07544.573 1.64892.111.624.173 1.25475.186 1.88721.003.2832.003.5874.003.89014.008.375.008.73193.008 1.09179v20.92867c0 .3633 0 .7178-.008 1.0752 0 .3252 0 .6231-.004.9297-.013.6212-.074 1.2407-.183 1.8535-.1.5811-.295 1.1443-.578 1.67-.282.5124-.648.9801-1.086 1.3857-.437.4138-.943.759-1.497 1.0225-.562.266-1.163.4513-1.784.5498-.661.101-1.33.1555-2 .1631-.313.0068-.641.0107-.96.0107l-1.159.002z" fill="#000"/><g fill="#fff"><path d="m28.7973 20.3013c.0108-.8347.2325-1.653.6445-2.379.412-.7259 1.001-1.3359 1.7121-1.7731-.4518-.6451-1.0477-1.1761-1.7405-1.5506-.6929-.3746-1.4635-.5824-2.2507-.607-1.6792-.1763-3.3072 1.0048-4.1629 1.0048-.8723 0-2.1898-.9873-3.6085-.9581-.9177.0296-1.812.2965-2.5959.7745-.7839.4781-1.4305 1.151-1.877 1.9533-1.934 3.3484-.4914 8.2695 1.3612 10.9761.9269 1.3254 2.0102 2.8058 3.4276 2.7533 1.3871-.0575 1.9051-.8845 3.5794-.8845 1.6588 0 2.1448.8845 3.591.8511 1.4884-.0241 2.4262-1.3312 3.3205-2.6691.666-.9444 1.1785-1.9881 1.5185-3.0925-.8648-.3658-1.6027-.9779-2.1218-1.7602s-.7965-1.7001-.7975-2.639z"/><path d="m26.0656 12.2113c.8116-.9742 1.2114-2.22636 1.1146-3.4906-1.2399.13022-2.3851.72278-3.2076 1.6596-.4022.4577-.7102.9901-.9064 1.5669s-.2769 1.1865-.2373 1.7945c.6201.0064 1.2336-.128 1.7943-.3931.5606-.2651 1.0539-.654 1.4424-1.1373z"/><path d="m46.3308 27.1407h-4.7334l-1.1367 3.3564h-2.0049l4.4834-12.418h2.083l4.4834 12.418h-2.0391zm-4.2432-1.5489h3.752l-1.8496-5.4472h-.0517z"/><path d="m59.1883 25.9704c0 2.8135-1.5059 4.6211-3.7784 4.6211-.5756.0301-1.1481-.1025-1.6519-.3826s-.9185-.6965-1.1967-1.2014h-.043v4.4844h-1.8584v-12.0488h1.7989v1.5058h.0342c.2909-.5024.7126-.9166 1.2203-1.1985.5076-.2818 1.0821-.4208 1.6625-.4021 2.2978.0001 3.8125 1.8165 3.8125 4.6221zm-1.9102 0c0-1.833-.9473-3.0381-2.3926-3.0381-1.4199 0-2.375 1.2305-2.375 3.0381 0 1.8242.9551 3.0459 2.375 3.0459 1.4453 0 2.3926-1.1963 2.3926-3.0459z"/><path d="m69.1531 25.9704c0 2.8135-1.5059 4.6211-3.7783 4.6211-.5757.0301-1.1482-.1025-1.652-.3826-.5038-.2802-.9185-.6965-1.1966-1.2014h-.043v4.4844h-1.8584v-12.0488h1.7988v1.5058h.0342c.2909-.5024.7126-.9166 1.2203-1.1985.5076-.2818 1.0822-.4208 1.6625-.4021 2.2979 0 3.8125 1.8164 3.8125 4.6221zm-1.9102 0c0-1.833-.9472-3.0381-2.3925-3.0381-1.42 0-2.375 1.2305-2.375 3.0381 0 1.8242.955 3.0459 2.375 3.0459 1.4453 0 2.3926-1.1963 2.3926-3.0459z"/><path d="m75.739 27.0372c.1377 1.2314 1.334 2.04 2.9688 2.04 1.5664 0 2.6934-.8086 2.6934-1.919 0-.9639-.6797-1.541-2.2891-1.9365l-1.6094-.3877c-2.2802-.5508-3.3389-1.6172-3.3389-3.3477 0-2.1425 1.8672-3.6142 4.5186-3.6142 2.624 0 4.4229 1.4717 4.4834 3.6142h-1.876c-.1123-1.2392-1.1367-1.9873-2.6338-1.9873s-2.5215.7569-2.5215 1.8584c0 .878.6543 1.3946 2.2549 1.79l1.3682.336c2.5478.6025 3.6064 1.626 3.6064 3.4424 0 2.3232-1.8506 3.7783-4.7939 3.7783-2.7539 0-4.6133-1.4209-4.7334-3.667z"/><path d="m87.3747 19.3008v2.1426h1.7217v1.4716h-1.7217v4.9912c0 .7754.3448 1.1368 1.1016 1.1368.2044-.0036.4085-.0179.6113-.043v1.4629c-.3402.0635-.6861.0923-1.0322.0859-1.833 0-2.5478-.6885-2.5478-2.4443v-5.1895h-1.3164v-1.4716h1.3163v-2.1426z"/><path d="m90.0935 25.9707c0-2.8486 1.6777-4.6387 4.294-4.6387 2.625 0 4.2949 1.79 4.2949 4.6387 0 2.8565-1.6612 4.6387-4.2949 4.6387-2.6329 0-4.294-1.7823-4.294-4.6387zm6.6953 0c0-1.9541-.8955-3.1074-2.4014-3.1074-1.5058 0-2.4003 1.1621-2.4003 3.1074 0 1.9619.8945 3.1065 2.4003 3.1065 1.5059 0 2.4014-1.1446 2.4014-3.1065z"/><path d="m100.215 21.443h1.772v1.541h.043c.12-.4813.402-.9066.799-1.2045.396-.2979.883-.4502 1.379-.4312.214-.0008.428.0225.637.0693v1.7383c-.271-.0826-.553-.1206-.835-.1123-.27-.011-.54.0366-.789.1395-.25.1029-.475.2586-.659.4565s-.323.4333-.407.6899c-.085.2567-.113.5286-.082.7971v5.3701h-1.858z"/><path d="m113.413 27.8379c-.25 1.6435-1.851 2.7715-3.899 2.7715-2.633 0-4.268-1.7647-4.268-4.5957 0-2.8399 1.643-4.6817 4.19-4.6817 2.505 0 4.08 1.7207 4.08 4.4658v.6368h-6.394v.1123c-.03.3332.012.6688.122.9847.11.3158.287.6046.517.8471.23.2426.51.4334.819.5597.31.1263.643.1852.977.1729.44.0412.88-.0605 1.257-.29.377-.2294.669-.5743.834-.9834zm-6.282-2.7022h4.526c.017-.2996-.029-.5994-.133-.8806-.105-.2812-.267-.5377-.475-.7535-.209-.2158-.46-.3861-.737-.5003-.278-.1142-.576-.1699-.876-.1634-.302-.0018-.602.0563-.882.1711-.28.1147-.535.2838-.749.4974-.215.2136-.385.4676-.5.7473-.116.2796-.175.5794-.174.882z"/><path d="m41.8545 8.73138c.3896-.02796.7806.0309 1.1447.17233.3641.14144.6923.36192.9609.64554.2685.28363.4708.62335.5922.99455.1214.3713.1589.7649.1098 1.1524 0 1.9063-1.0303 3.002-2.8076 3.002h-2.1553v-5.96682zm-1.2285 5.12302h1.125c.2784.0166.557-.029.8155-.1336.2586-.1047.4905-.2656.679-.4712.1885-.2055.3288-.4505.4107-.7172.0818-.2666.1032-.5481.0625-.824.0377-.2749.0142-.5546-.0689-.8193s-.2238-.5077-.4118-.7116c-.1881-.20392-.4189-.36372-.676-.46796s-.534-.15032-.811-.13495h-1.125z"/><path d="m45.709 12.4448c-.0283-.2959.0056-.5945.0994-.8766.0938-.282.2456-.5414.4455-.7614.2-.22.4437-.3957.7155-.516.2719-.1203.5659-.1824.8632-.1824.2972 0 .5912.0621.8631.1824.2718.1203.5155.296.7155.516.1999.22.3517.4794.4455.7614.0939.2821.1277.5807.0994.8766.0288.2962-.0046.5952-.0982.8777s-.2453.5423-.4453.7628c-.1999.2204-.4438.3965-.716.517-.2721.1206-.5664.1828-.864.1828-.2977 0-.592-.0622-.8641-.1828-.2721-.1205-.516-.2966-.716-.517-.2-.2205-.3517-.4803-.4453-.7628s-.127-.5815-.0982-.8777zm3.333 0c0-.9761-.4385-1.5469-1.208-1.5469-.7724 0-1.207.5708-1.207 1.5469 0 .9839.4346 1.5503 1.207 1.5503.7696 0 1.208-.5703 1.208-1.5503z"/><path d="m55.6016 14.6982h-.9219l-.9307-3.3164h-.0703l-.9267 3.3164h-.9131l-1.2412-4.5029h.9013l.8067 3.436h.0664l.9258-3.436h.8525l.9258 3.436h.0703l.8027-3.436h.8887z"/><path d="m57.8818 10.1949h.8555v.7153h.0664c.1127-.2569.3027-.4723.5435-.6161.2409-.1438.5207-.2089.8003-.1862.2191-.0164.4391.0166.6437.0967s.3885.2052.5382.3661c.1497.1608.2613.3533.3265.5631s.0823.4316.0502.6489v2.915h-.8887v-2.6918c0-.7236-.3145-1.0835-.9717-1.0835-.1488-.0069-.2973.0184-.4353.0742-.1381.0559-.2624.1409-.3645.2493-.1022.1084-.1796.2375-.2272.3787-.0475.1411-.064.2908-.0482.4389v2.6343h-.8887z"/><path d="m63.1221 8.4375h.8886v6.2607h-.8886z"/><path d="m65.2461 12.4449c-.0283-.296.0056-.5946.0995-.8766.0938-.2821.2456-.5415.4456-.7615.1999-.2199.4437-.3957.7155-.516.2719-.1203.5659-.1824.8632-.1824s.5913.0621.8632.1824c.2718.1203.5155.2961.7155.516.2.22.3518.4794.4456.7615.0939.282.1278.5806.0995.8766.0288.2962-.0047.5952-.0983.8777s-.2453.5423-.4454.7627c-.2.2205-.4439.3966-.716.5171s-.5665.1828-.8641.1828-.592-.0623-.8641-.1828c-.2722-.1205-.5161-.2966-.7161-.5171-.2-.2204-.3517-.4802-.4453-.7627s-.1271-.5815-.0983-.8777zm3.333 0c0-.9761-.4385-1.5469-1.208-1.5469-.7725 0-1.207.5708-1.207 1.5469 0 .9839.4346 1.5503 1.207 1.5503.7695 0 1.208-.5704 1.208-1.5503z"/><path d="m70.4292 13.4248c0-.8106.6035-1.2778 1.6748-1.3442l1.2197-.0704v-.3886c0-.4756-.3144-.7442-.9218-.7442-.4961 0-.8399.1822-.9385.5005h-.8604c.0908-.7734.8184-1.2695 1.8399-1.2695 1.1289 0 1.7656.562 1.7656 1.5132v3.0766h-.8555v-.6328h-.0703c-.1427.227-.3431.4121-.5807.5363-.2377.1242-.504.1831-.7718.1707-.1891.0197-.3801-.0005-.5609-.0592-.1807-.0587-.3472-.1546-.4886-.2816-.1414-.1269-.2547-.2821-.3324-.4555-.0778-.1735-.1184-.3612-.1191-.5513zm2.8945-.3848v-.3764l-1.0996.0703c-.6201.0415-.9014.2524-.9014.6494 0 .4053.3516.6411.835.6411.1417.0143.2848 0 .4208-.0421.136-.042.2621-.1111.3709-.2029s.198-.2046.2623-.3317c.0643-.127.1024-.2656.112-.4077z"/><path d="m75.3765 12.4448c0-1.4228.7314-2.3242 1.8691-2.3242.2814-.0129.5607.0545.8052.1944.2446.1398.4442.3465.5757.5956h.0664v-2.4731h.8886v6.2607h-.8515v-.7114h-.0703c-.1416.2475-.3482.4515-.5975.59-.2492.1385-.5316.2062-.8166.1956-1.1455.0001-1.8691-.9013-1.8691-2.3276zm.918 0c0 .9551.4502 1.5298 1.2031 1.5298.749 0 1.2119-.583 1.2119-1.5259 0-.9384-.4678-1.5297-1.2119-1.5297-.7481 0-1.2032.5786-1.2032 1.5258z"/><path d="m83.2583 12.4448c-.0283-.2959.0056-.5945.0994-.8766.0939-.282.2456-.5414.4456-.7614.1999-.22.4436-.3957.7155-.516.2718-.1203.5658-.1824.8631-.1824.2972 0 .5912.0621.8631.1824.2718.1203.5155.296.7155.516.1999.22.3517.4794.4455.7614.0939.2821.1277.5807.0994.8766.0289.2962-.0046.5952-.0982.8777s-.2452.5423-.4452.7628c-.2.2204-.4439.3965-.7161.517-.2721.1206-.5664.1828-.864.1828-.2977 0-.592-.0622-.8641-.1828-.2721-.1205-.516-.2966-.716-.517-.2-.2205-.3517-.4803-.4453-.7628s-.127-.5815-.0982-.8777zm3.333 0c0-.9761-.4384-1.5469-1.208-1.5469-.7724 0-1.207.5708-1.207 1.5469 0 .9839.4346 1.5503 1.207 1.5503.7696 0 1.208-.5703 1.208-1.5503z"/><path d="m88.6978 10.1949h.8554v.7153h.0664c.1127-.2569.3027-.4723.5436-.6161.2408-.1438.5206-.2089.8002-.1862.2191-.0164.4391.0166.6437.0967s.3885.2052.5382.3661c.1497.1608.2613.3533.3265.5631s.0823.4316.0502.6489v2.915h-.8887v-2.6918c0-.7236-.3144-1.0835-.9717-1.0835-.1487-.0069-.2972.0184-.4353.0742-.138.0559-.2624.1409-.3645.2493s-.1796.2375-.2272.3787c-.0475.1411-.0639.2908-.0482.4389v2.6343h-.8886z"/><path d="m97.5435 9.07422v1.14158h.9756v.7486h-.9756v2.3154c0 .4717.1943.6782.6367.6782.1132-.0004.2264-.0072.3389-.0205v.7402c-.1596.0286-.3213.0438-.4835.0454-.9882 0-1.3818-.3476-1.3818-1.2158v-2.543h-.7148v-.7485h.7148v-1.14158z"/><path d="m99.7329 8.4375h.8811v2.4815h.07c.118-.2594.313-.476.559-.6203.246-.1444.53-.2094.814-.1864.218-.0119.436.0245.638.1066.202.082.384.2077.532.368.148.1604.259.3514.325.5596.066.2081.085.4282.056.6445v2.9072h-.89v-2.6879c0-.7193-.335-1.0835-.963-1.0835-.152-.0126-.306.0084-.45.0615-.144.053-.274.1369-.382.2456s-.191.2398-.243.3839-.072.2979-.058.4505v2.6299h-.8891z"/><path d="m108.789 13.4825c-.12.4115-.382.7675-.739 1.0057-.356.2381-.785.3433-1.212.297-.296.0079-.591-.049-.864-.1665-.272-.1175-.516-.2929-.714-.5141-.198-.2211-.345-.4827-.432-.7665-.086-.2838-.11-.5831-.07-.8771-.039-.2949-.015-.5948.072-.8795.086-.2846.233-.5474.43-.7705.196-.2231.439-.4012.711-.5224.271-.1212.566-.1827.863-.1801 1.253 0 2.009.856 2.009 2.27v.3101h-3.18v.0498c-.013.1652.007.3315.061.4883.055.1567.141.3004.254.4219s.25.218.402.2834c.153.0654.317.0982.483.0964.212.0255.428-.0128.618-.11.191-.0972.349-.249.453-.4359zm-3.126-1.4512h2.275c.011-.1511-.009-.3029-.06-.4456s-.132-.2732-.236-.3831c-.104-.1098-.231-.1966-.371-.2548-.139-.0582-.29-.0864-.442-.083-.153-.0019-.306.027-.448.0849s-.272.1438-.38.2525c-.109.1087-.195.2381-.253.3805s-.087.2949-.085.4486z"/></g></svg>