<svg fill="none" height="57" viewBox="0 0 160 57" width="160" xmlns="http://www.w3.org/2000/svg"><path d="m68.0886 29.6925c0 7.4955-5.8765 13.0187-13.0883 13.0187-7.2117 0-13.0882-5.5232-13.0882-13.0187 0-7.5482 5.8765-13.0187 13.0882-13.0187 7.2118 0 13.0883 5.4705 13.0883 13.0187zm-5.7294 0c0-4.6839-3.4059-7.8887-7.3589-7.8887-3.9529 0-7.3588 3.2048-7.3588 7.8887 0 4.637 3.4059 7.8887 7.3588 7.8887 3.953 0 7.3589-3.2576 7.3589-7.8887z" fill="#ea4335"/><path d="m96.323 29.6925c0 7.4955-5.8765 13.0187-13.0883 13.0187-7.2117 0-13.0882-5.5232-13.0882-13.0187 0-7.5424 5.8765-13.0187 13.0882-13.0187 7.2118 0 13.0883 5.4705 13.0883 13.0187zm-5.7295 0c0-4.6839-3.4058-7.8887-7.3588-7.8887-3.9529 0-7.3588 3.2048-7.3588 7.8887 0 4.637 3.4059 7.8887 7.3588 7.8887 3.953 0 7.3588-3.2576 7.3588-7.8887z" fill="#fbbc05"/><path d="m123.383 17.4603v23.3727c0 9.6143-5.682 13.5411-12.4 13.5411-6.324 0-10.13-4.2203-11.5648-7.6716l4.9878-2.0719c.889 2.1189 3.065 4.6193 6.571 4.6193 4.3 0 6.965-2.6472 6.965-7.6304v-1.8724h-.2c-1.283 1.5789-3.753 2.9583-6.871 2.9583-6.523 0-12.4999-5.67-12.4999-12.9659 0-7.3487 5.9769-13.0657 12.4999-13.0657 3.112 0 5.582 1.3794 6.871 2.9113h.2v-2.1189h5.441zm-5.035 12.2792c0-4.5842-3.065-7.9357-6.965-7.9357-3.953 0-7.265 3.3515-7.265 7.9357 0 4.5372 3.312 7.8417 7.265 7.8417 3.9 0 6.965-3.3045 6.965-7.8417z" fill="#4285f4"/><path d="m132.354 3.76099v38.15221h-5.588v-38.15221z" fill="#34a853"/><path d="m154.128 33.9773 4.447 2.9583c-1.435 2.1189-4.894 5.7698-10.87 5.7698-7.412 0-12.947-5.717-12.947-13.0187 0-7.742 5.582-13.0187 12.306-13.0187 6.77 0 10.082 5.3765 11.164 8.2819l.595 1.4792-17.442 7.2078c1.336 2.6119 3.412 3.9443 6.324 3.9443 2.918 0 4.941-1.4321 6.423-3.6039zm-13.688-4.6839 11.659-4.8306c-.641-1.6259-2.571-2.7587-4.841-2.7587-2.912 0-6.965 2.565-6.818 7.5893z" fill="#ea4335"/><path d="m20.758 26.3059v-5.5233h18.6529c.1824.9626.2765 2.1013.2765 3.3339 0 4.1439-1.1353 9.2681-4.7941 12.9189-3.5588 3.6979-8.1059 5.67-14.1294 5.67-11.16473 0-20.552962-9.0743-20.552962-20.2147 0-11.1405 9.388232-20.21482 20.552962-20.21482 6.1764 0 10.5765 2.41826 13.8823 5.57022l-3.9059 3.8974c-2.3705-2.21871-5.5823-3.94436-9.9823-3.94436-8.1529 0-14.52941 6.55626-14.52941 14.69156 0 8.1352 6.37651 14.6915 14.52941 14.6915 5.2882 0 8.3-2.1189 10.2294-4.0441 1.5647-1.5614 2.5941-3.7918 3-6.8381z" fill="#4285f4"/></svg>