<svg fill="none" height="48" viewBox="0 0 48 48" width="48" xmlns="http://www.w3.org/2000/svg"><path d="m24 48c13.2548 0 24-10.7452 24-24s-10.7452-24-24-24-24 10.7452-24 24 10.7452 24 24 24z" fill="#f0f0f0"/><g fill="#d80027"><path d="m22.957 24.0001h25.0435c0-2.1661-.2888-4.2646-.8268-6.2608h-24.2167z"/><path d="m22.957 11.4784h21.5209c-1.4691-2.39734-3.3476-4.51637-5.5378-6.26087h-15.9831z"/><path d="m23.9982 48.0001c5.6484 0 10.84-1.9522 14.9396-5.2174h-29.87921c4.09971 3.2652 9.29131 5.2174 14.93961 5.2174z"/><path d="m3.52195 36.5218h40.95485c1.1795-1.9246 2.0942-4.0284 2.6958-6.2609h-46.346428c.601598 2.2325 1.516308 4.3363 2.695778 6.2609z"/></g><path d="m11.1172 3.74794h2.1871l-2.0343 1.47797.7771 2.39146-2.0343-1.47796-2.0343 1.47796.67125-2.06596c-1.79119 1.49203-3.36113 3.24009-4.65488 5.18789h.70079l-1.29497.9407c-.20175.3366-.39525.6785-.58069 1.0255l.61837 1.9032-1.15368-.8382c-.28678.6076-.5491 1.2288-.78488 1.8631l.68128 2.097h2.51457l-2.03438 1.4779.77709 2.3915-2.03428-1.478-1.218559.8854c-.1219685.9804-.185531 1.9791-.185531 2.9926h24c0-13.2548 0-14.81738 0-24-4.7411 0-9.1608 1.37531-12.8828 3.74794zm.9299 17.85206-2.0343-1.478-2.0343 1.478.77709-2.3915-2.03437-1.4779h2.51456l.77702-2.3915.777 2.3915h2.5145l-2.0343 1.4779zm-.7771-9.3828.7771 2.3915-2.0343-1.478-2.0343 1.478.77709-2.3915-2.03437-1.4779h2.51456l.77702-2.39152.777 2.39152h2.5145zm9.3858 9.3828-2.0343-1.478-2.0343 1.478.7771-2.3915-2.0344-1.4779h2.5146l.777-2.3915.777 2.3915h2.5145l-2.0343 1.4779zm-.7771-9.3828.7771 2.3915-2.0343-1.478-2.0343 1.478.7771-2.3915-2.0344-1.4779h2.5146l.777-2.39152.777 2.39152h2.5145zm0-6.99129.7771 2.39146-2.0343-1.47796-2.0343 1.47796.7771-2.39146-2.0344-1.47797h2.5146l.777-2.39147.777 2.39147h2.5145z" fill="#0052b4"/></svg>