<svg fill="none" height="140" viewBox="0 0 160 140" width="160" xmlns="http://www.w3.org/2000/svg"><rect height="36" rx="1.5" stroke="#3b414b" width="14" x="121.5" y="43.5"/><path d="m128 35h1v9h-1z" fill="#3b414b"/><path d="m128 79h1v7h-1z" fill="#3b414b"/><rect height="43" rx="1.5" stroke="#3b414b" width="14" x="25.5" y="45.5"/><path d="m32 38h1v8h-1z" fill="#3b414b"/><path d="m32 88h1v7h-1z" fill="#3b414b"/><g fill="#7ab800"><rect height="35" rx="2" width="15" x="49" y="69"/><path d="m56 59h1v10h-1z"/><path d="m56 93h1v15h-1z"/></g><rect height="22" rx="1.5" stroke="#3b414b" width="14" x="73.5" y="48.5"/><path d="m80 25h1v24h-1z" fill="#3b414b"/><path d="m80 70h1v7h-1z" fill="#3b414b"/><rect fill="#7ab800" height="24" rx="2" width="15" x="97" y="31"/><path d="m104 25h1v11h-1z" fill="#7ab800"/><path d="m104 49h1v8h-1z" fill="#7ab800"/><path d="m151 124h-141" stroke="#3b414b"/></svg>