<svg fill="none" height="140" viewBox="0 0 160 140" width="160" xmlns="http://www.w3.org/2000/svg" xmlns:xlink="http://www.w3.org/1999/xlink"><mask id="a" fill="#fff"><path clip-rule="evenodd" d="m19.6593 105h120.6817c.434-2.937.659-5.9422.659-9 0-33.6894-27.311-61-61-61-33.6894 0-61 27.3106-61 61 0 3.0578.225 6.063.6593 9z" fill="#fff" fill-rule="evenodd"/></mask><g fill="#3b414b"><path d="m19.6593 105-.9892.146.1262.854h.863zm120.6817 0v1h.863l.126-.854zm-120.6817 1h120.6817v-2h-120.6817zm121.6707-.854c.441-2.985.67-6.0391.67-9.146h-2c0 3.0086-.221 5.965-.649 8.854zm.67-9.146c0-34.2417-27.758-62-62-62v2c33.137 0 60 26.8629 60 60zm-62-62c-34.2417 0-62 27.7583-62 62h2c0-33.1371 26.8629-60 60-60zm-62 62c0 3.1069.2286 6.161.6701 9.146l1.9784-.292c-.4271-2.889-.6485-5.8454-.6485-8.854z" mask="url(#a)"/><circle cx="80" cy="43" r="3"/><circle cx="27" cy="97" r="3"/><circle cx="133" cy="97" r="3"/></g><circle cx="42.5234" cy="59.5239" fill="#7ab800" r="3" transform="matrix(.70710678 .70710678 -.70710678 .70710678 54.544569 -12.634438)"/><circle fill="#3b414b" r="3" transform="matrix(-.707107 .707107 .707107 .707107 117.479 59.5239)"/><path d="m85.5876 82.688c2.7336 2.7337 2.7336 7.1658 0 9.8995-2.7337 2.7337-7.1659 2.7337-9.8995 0-2.098-2.098-12.0126-17.8434-16.5102-25.0527-.5585-.8952.4618-1.9154 1.3569-1.357 7.2094 4.4976 22.9548 14.4122 25.0528 16.5102z" fill="#7ab800"/></svg>