<svg fill="none" height="140" viewBox="0 0 160 140" width="160" xmlns="http://www.w3.org/2000/svg" xmlns:xlink="http://www.w3.org/1999/xlink"><clipPath id="a"><path d="m0 0h160v140h-160z"/></clipPath><g clip-path="url(#a)"><path d="m103.5 34.5h40v11h-40z" stroke="#3b414b"/><rect fill="#7ab800" height="6" rx="3" width="6" x="129" y="37"/><path d="m103.5 54.5h40v11h-40z" stroke="#3b414b"/><rect fill="#7ab800" height="6" rx="3" width="6" x="135" y="57"/><path d="m103.5 74.5h40v11h-40z" stroke="#3b414b"/><rect fill="#7ab800" height="6" rx="3" width="6" x="129" y="77"/><path d="m103.5 94.5h40v11h-40z" stroke="#3b414b"/><rect fill="#7ab800" height="6" rx="3" width="6" x="135" y="97"/><path clip-rule="evenodd" d="m95.9999 66.3636c0-20.083-16.2806-36.3636-36.3637-36.3636v36.3636z" fill="#7ab800" fill-rule="evenodd"/><path d="m51.8636 37.7769v.0035.0628.0627.0625.0624.0622.0622.062.0619.0617.0617.0615.0614.0613.0611.0611.0609.0608.0607.0606.0605.0604.0602.0602.06.0599.0598.0598.0596.0595.0594.0593.0592.0591.059.0589.0588.0587.0586.0586.0584.0583.0583.0581.0581.058.0579.0578.0577.0577.0575.0575.0574.0573.0572.0572.0571.057.0569.0569.0567.0567.0567.0565.0565.0565.0563.0563.0562.0562.0561.056.056.0559.0559.0558.0557.0557.0556.0556.0555.0555.0554.0553.0554.0552.0552.0552.0551.0551.055.055.055.0549.0548.0549.0547.0548.0547.0547.0546.0546.0546.0546.0545.0545.0544.0545.0544.0543.0544.0543.0543.0543.0543.0542.0543.0542.0542.0541.0542.0541.0542.0541.0541.0541.0541.0541.0541.0541.054.0541.054.0541.0541.054.0541.054.0541.0541.054.0541.0541.0541.0541.0541.0541.0541.0542.0541.0542.0542.0542.0542.0542.0543.0543.0543.0543.0543.0544.0544.0544.0545.0544.0545.0546.0545.0546.0547.0546.0547.0548.0547.0548.0549.0549.0549.055.055.055.0551.0552.0552.0552.0553.0553.0554.0555.0555.0555.0556.0557.0557.0558.0558.0559.0559.056.0561.0561.0562.0563.0563.0564.0565.0565.0566.0567.0567.0569.0569.0569.0571.0571.0572.0573.0573.0575.0575.0576.0577.0577.0579.0579.0581.0581.0582.0583.0584.0585.0586.0586.0588.0589.0589.0591.0591.0593.0593.0595.0596.0596.0598.0599.06.0601.0602.0603.0604.0606.0606.0608.0608.061.0612.0612.0613.0615.0616.0617.0618.062.0621.0622.0623.0625.0626.0627.0628.063.0631.0633.0633.0636.0636.0638.0639.0641.0642.0644.0644.0647.0648.0649.0651.0652.0653.0655.0657.0658.066.0661.0663.0664.0666.0667.0669.0671.0672.0674.0675.0677.0679.068.0682.0684.0685.0687.0689.069.0692.0694.0696.0697.0699.0701.0702.0705.0706.0708.071.0711.0714.0715.0717.0719.0721.0723.0724.0727.0728.0731.0732.0734.0736.0739.074.0742.0744.0746.0748.075.0752.0754.0756.0759.076.0762.0765.0767.0768.0771.0773.0775.0777.078.0781.0784.0786.0788.079.0792.0795.0797.0799.0802.0803.0806.0808.0811.0813.0815.0817.082.0822.0825.0826.083.0831.0834.0837.0838.0841.0844.0846.0849.0851.0853.0856.0858.0861.0863.0866.0869.0871.0873.0876.0879.0881.0884.0886.0889.0891.0895.0896.09.0902.0905.0907.091.0913.0916.0918.0921.0923.0927.0929.0932.0935.0937.094.0943.0946.0949.0951.0955.0957.096.0963.0965.0969.0972.0974.0977.0981.0983.0986.0989.0992.0995.0998.1001.1004.1007.101.1014.1016.1019.1022.1025.1029.1031.1035.1037.1041.1044.1047.1051.1053.1056.106.1063.1066.107.1072.1076.1079.1082.1086.1088.1092.1096.1098.1102.1105.1109.1112.1115.1119.1122.1125.1129.1132.1135.1139.1143.1145.115.1152.1156.116.1163.1167.117.1173.1177.1181.1184.1188.1191.1195.1198.1202.1206.5h.5.0746.0746.0745.0745.0745.0745.0745.0745.0744.0745.0744.0744.0744.0744.0744.0743.0744.0743.0743.0743.0743.0743.0743.0742.0742.0743.0742.0742.0741.0742.0742.0741.0741.0741.0741.0741.0741.074.0741.074.074.074.074.074.0739.074.0739.0739.0739.0739.0739.0738.0739.0738.0738.0738.0738.0738.0738.0737.0737.0738.0737.0737.0736.0737.0737.0736.0736.0736.0736.0736.0736.0735.0736.0735.0735.0735.0735.0735.0734.0735.0734.0734.0734.0734.0734.0733.0734.0733.0733.0733.0733.0733.0733.0732.0732.0733.0732.0732.0731.0732.0732.0731.0731.0731.0731.0731.0731.073.0731.073.073.073.073.073.0729.073.0729.0729.0729.0729.0729.0729.0728.0728.0729.0728.0727.0728.0728.0727.0728.0727.0727.0727.0727.0726.0727.0726.0727.0726.0726.0726.0725.0726.0725.0725.0726.0725.0724.0725.0725.0724.0725.0724.0724.0724.0723.0724.0723.0724.0723.0723.0723.0723.0722.0723.0722.0723.0722.0722.0721.0722.0722.0721.0721.0721.0721.0721.0721.072.0721.072.072.072.072.072.0719.072.0719.0719.0719.0719.0719.0719.0718.0719.0718.0718.0718.0718.0717.0718.0717.0717.0717.0717.0717.0717.0716.0717.0716.0716.0716.0716.0716.0715.0716.0715.0715.0715.0715.0715.0714.0715.0714.0714.0714.0714.0714.0714.0713.0713.0714.0713.0713.0712.0713.0713.0712.0712.0712.0712.0712.0712.0711.0712.0711.0711.0711.0711.0711.071.0711.071.071.071.071.071.0709.071.0709.0709.0709.0709.0709.0709.0708.0709.0708.0708.0708.0708.0707.0708.0707.0707.0708.0707.0706.0707.0707.0706.0706.0706.0706.0706.0706.0706.0705.0705.0705.0706.0704.0705.0705.0704.0705.0704.0704.0704.0704.0703.0704.0703.0703.0703.0703.0703.0703.0702.0703.0702.0702.0702.0702.0702.0701.0701.0702.0701.0701.0701.07.0701.0701.07.07.07.07.07.0699.07.0699.0699.0699.0699.0699.0699.0698.0699.0698.0698.0698.0698.0697.0698.0697.0698.0697.0697.0696.0697.0697.0696.0696.0697.0696.0695.0696.0696.0695.0696.0695.0695.0695.0694.0695.0695.0694.0694.0694.0694.0694.0694.0693.0693.0694.0693.0693.0693.0692.0693.0692.0692.0693.0692.0691.0692.0692.0691.0691.0692.0691.069.0691.0691.069.0691.069.069.069.0689.069.069.0689.0689.0689.0689.0689.0689.0688.0688.0689.0688.0688.0688.0687.0688.0687.0687.0688.0687.0686.0687.0687.0686.0687.0686.0686.0686.0685.0686.0685.0686.0685.0685.0685.0685.0684.0685.0684.0684.0684.0684.0684.0684.0683.0684.0683.0683.0683.0683.0683.0682.0683.0682.0682.0682.0682.0682.0681.0682.0681.0681.0681.0681.0681.068.0681.068.068.068.068.068.068.0679.068.0679.0679.0679.0679.0678.0679.0678.0678.0679.0678.0677.0678.0678.0677.0677.0677.0678.0676.0677.0677.0676.0676.0677.0676.0676.0368c-.2676 19.5764-16.2203 35.3639-35.8603 35.3639-19.8069 0-35.8636-16.057-35.8636-35.8639 0-19.64 15.7872-35.5927 35.3636-35.8602z" stroke="#3b414b"/></g></svg>