<svg fill="none" height="140" viewBox="0 0 160 140" width="160" xmlns="http://www.w3.org/2000/svg"><path d="m88.1106 69.1101h-.0001c-1.1468-.5578-2.0473-.9689-2.7038-1.2369-.6655-.2709-1.6325-.6439-2.903-1.1197l-.0022-.0008c-1.1286-.4287-1.9729-.758-2.5313-.9865l-.0003-.0002c-.5616-.2303-1.2947-.555-2.1976-.9734m10.3383 4.3175-1.4369-14.4134.2107-.4534c-.778-.3614-1.7014-.6792-2.7643-.9585-1.0817-.2842-2.1512-.4272-3.2041-.4272-2.3532 0-4.3226.529-5.8685 1.628-1.5575 1.1074-2.3694 2.5747-2.3694 4.3716 0 .675.1116 1.3086.3397 1.8957l.0001.0004c.2371.6084.641 1.1635 1.1891 1.6683.5149.4744 1.0039.8803 1.4671 1.2156.4829.3494 1.1888.7345 2.0982 1.1554m10.3383 4.3175c.2746.1335.5342.2634.779.3899m-.779-.3899.779.3899m-11.1173-4.7074.2102-.4536m-.2102.4536s.0001.0001.0002.0001l.21-.4537m0 0c-.8994-.4164-1.5713-.7856-2.0153-1.1069-.4438-.3212-.9175-.714-1.4215-1.1782-.5039-.4643-.8578-.9584-1.0619-1.4821-.2035-.5239-.3057-1.0955-.3057-1.7146 0-1.6187.7196-2.9405 2.1591-3.9641zm-8.1153 5.1607c.2697.1785.5262.3453.7695.5003h19.1753c-.2798-.1601-.5872-.3268-.9224-.5m-19.0224-.0003 15.728-2.0896c.6713.274 1.5831.6905 2.734 1.2503.6065.2948 1.1448.5747 1.6149.8396h-1.0545m-19.0224-.0003c-.7915-.5237-1.4334-1.0298-1.9254-1.5175m1.9254 1.5175-1.9254-1.5175m20.9478 1.5178h-18.1067c-.2039-.1308-.4171-.2699-.6398-.4173-.7733-.5116-1.3871-.9975-1.8491-1.4555-.4764-.4726-.9865-1.0422-1.5297-1.7103-.5267-.6478-.9267-1.2985-1.2056-1.9525l-.0001-.0003c-.2866-.6708-.5303-1.4338-.7285-2.2914l-.0001-.0002c-.1947-.8409-.2934-1.7314-.2934-2.6724 0-3.1524 1.1229-5.9112 3.3896-8.2987 2.2704-2.391 5.2308-3.9416 8.908-4.6386l.4069-.0771v-.4142-6.4286c0-.1708.0568-.3124.1942-.4488.1372-.1363.2816-.1941.4573-.1941h4.8589c.2193 0 .3639.0652.476.1761.1113.1111.1754.2529.1754.4668v6.286.4506l.4481.0467c1.3354.1394 2.6282.4062 3.8783.801l.0003.0001c1.2702.4003 2.2886.7907 3.0624 1.1684.7809.382 1.5207.8157 2.2191 1.3008.7251.5035 1.1681.832 1.3575.9997l.0018.0016c.2089.1831.3786.3408.5132.4738.149.1581.2003.2836.2126.3768.012.0904-.0048.2092-.1032.372l-.0044.0073-.0042.0074-2.9156 5.2144h-.0001l-.0036.0067c-.1229.228-.2573.2989-.4212.3097l-.0357.0024-.035.0074c-.1664.0352-.3376.0073-.5431-.1425zm-20.9478-1.5178c-.4917-.4879-1.0137-1.0713-1.5655-1.7498-.5517-.6788-.9778-1.3691-1.2775-2.0718m2.843 3.8216-2.843-3.8216m0 0c-.3-.7023-.5522-1.494-.7559-2.3753z" stroke="#3b414b"/><path clip-rule="evenodd" d="m70.5195 70c.4768.3001.9035.5562 1.28.768.5712.3203 1.3302.6905 2.2773 1.1062.9475.417 1.6947.7321 2.2414.9468.5466.2141 1.2935.5121 2.2413.8922 1.3117.5 2.2836.8871 2.9151 1.161.632.274 1.4334.6549 2.4057 1.143.9714.4876 1.6817.9342 2.1314 1.3391.4494.4049.8562.9049 1.2208 1.5.3647.5951.5473 1.2261.5473 1.8931 0 1.881-.747 3.3331-2.2414 4.3561-1.4938 1.0241-3.2253 1.536-5.1927 1.536-.898 0-1.7976-.0947-2.6961-.2851-3.1581-.6198-6.1095-2.1079-8.8546-4.4649l-.0729-.0715c-.2188-.2612-.5104-.3685-.8744-.3206-.3888.0475-.6683.1905-.8382.4291l-3.7533 4.8211c-.3645.4761-.3399.9641.073 1.4641.1216.143.3341.3578.6376.643.3043.2863.8692.732 1.6947 1.3403.8258.6075 1.7247 1.1782 2.6966 1.7146.9718.5355 2.2044 1.065 3.6987 1.589 1.4943.5232 3.0426.8921 4.6461 1.1062v6.2502c0 .31.1155.577.3461.804.2309.226.504.339.8198.339h4.9196c.3407 0 .6202-.107.8386-.321.2183-.214.3271-.488.3271-.822v-6.25c3.8632-.619 7.0031-2.2441 9.4199-4.8752 2.4171-2.6311 3.626-5.768 3.626-9.4106-.0013-1.1903-.1589-2.3094-.4777-3.3577-.3154-1.0466-.698-1.9576-1.1474-2.7311-.4492-.7744-1.0924-1.5297-1.9311-2.2685-.8376-.7384-1.5912-1.3331-2.2593-1.7852-.0866-.0587-.1774-.1182-.2723-.1787z" fill="#7ab800" fill-rule="evenodd"/><circle cx="80" cy="70" r="45.5" stroke="#3b414b"/></svg>