<svg fill="none" height="140" viewBox="0 0 160 140" width="160" xmlns="http://www.w3.org/2000/svg"><circle r="34.5" stroke="#3b414b" transform="matrix(1 0 0 -1 60 53)"/><path d="m48.7058 59.362c-1.3173 1.3-3.2586 1.95-5.824 1.95-2.5653 0-4.5153-.65-5.85-1.95-1.3173-1.3173-1.976-3.0767-1.976-5.278v-10.426h3.744v10.296c0 1.248.3554 2.2447 1.066 2.99.7107.728 1.716 1.092 3.016 1.092s2.2967-.364 2.99-1.092c.7107-.7453 1.066-1.742 1.066-2.99v-10.296h3.77v10.4c0 2.236-.6673 4.004-2.002 5.304zm11.5804 1.95c-3.0853 0-5.5293-.9187-7.332-2.756l2.002-2.808c1.4907 1.56 3.328 2.34 5.512 2.34.9533 0 1.69-.182 2.21-.546.5373-.3813.806-.8407.806-1.378 0-.468-.2513-.858-.754-1.17-.4853-.312-1.1007-.5373-1.846-.676-.728-.1387-1.5253-.338-2.392-.598s-1.6727-.5547-2.418-.884c-.728-.3293-1.3433-.8493-1.846-1.56-.4853-.7107-.728-1.5773-.728-2.6 0-1.4907.598-2.7387 1.794-3.744 1.196-1.0227 2.7907-1.534 4.784-1.534 2.756 0 5.0093.806 6.76 2.418l-2.054 2.704c-1.3693-1.2653-3.0507-1.898-5.044-1.898-.78 0-1.3867.156-1.82.468s-.65.7367-.65 1.274c0 .416.2427.7713.728 1.066.5027.2773 1.118.4853 1.846.624.7453.1387 1.5427.3467 2.392.624.8667.26 1.664.5633 2.392.91.7453.3293 1.3607.858 1.846 1.586.5027.7107.754 1.5687.754 2.574 0 1.664-.598 3.0073-1.794 4.03-1.1787 1.0227-2.8947 1.534-5.148 1.534zm16.2658-.312h-6.838v-17.342h6.838c2.7214 0 4.9314.7973 6.63 2.392 1.716 1.5947 2.574 3.692 2.574 6.292s-.8493 4.6973-2.548 6.292c-1.6986 1.5773-3.9173 2.366-6.656 2.366zm0-3.25c1.664 0 2.9814-.52 3.952-1.56.988-1.04 1.482-2.3227 1.482-3.848 0-1.5947-.4766-2.8947-1.43-3.9-.9533-1.0227-2.288-1.534-4.004-1.534h-3.146v10.842z" fill="#7ab800"/><circle fill="#fff" r="34.5" stroke="#3b414b" transform="matrix(1 0 0 -1 100 87)"/><path d="m90.3421 96h-4.536l-1.148-3.164h-8.008l-1.176 3.164h-4.536l7.224-18.676h4.984zm-6.776-6.664-2.912-8.036-2.912 8.036zm22.2709 4.9c-1.419 1.4-3.509 2.1-6.2719 2.1-2.7627 0-4.8627-.7-6.3-2.1-1.4187-1.4187-2.128-3.3133-2.128-5.684v-11.228h4.032v11.088c0 1.344.3826 2.4173 1.148 3.22.7653.784 1.848 1.176 3.248 1.176 1.3999 0 2.4729-.392 3.2199-1.176.765-.8027 1.148-1.876 1.148-3.22v-11.088h4.06v11.2c0 2.408-.719 4.312-2.156 5.712zm13.199 1.764h-7.364v-18.676h7.364c2.931 0 5.311.8587 7.14 2.576 1.848 1.7173 2.772 3.976 2.772 6.776s-.914 5.0587-2.744 6.776c-1.829 1.6987-4.218 2.548-7.168 2.548zm0-3.5c1.792 0 3.211-.56 4.256-1.68 1.064-1.12 1.596-2.5013 1.596-4.144 0-1.7173-.513-3.1173-1.54-4.2-1.026-1.1013-2.464-1.652-4.312-1.652h-3.388v11.676z" fill="#7ab800"/></svg>