<svg fill="none" height="140" viewBox="0 0 160 140" width="160" xmlns="http://www.w3.org/2000/svg" xmlns:xlink="http://www.w3.org/1999/xlink"><mask id="a" height="122" maskUnits="userSpaceOnUse" width="122" x="19" y="11"><path d="m140.5 72c0 33.413-27.087 60.5-60.5 60.5-33.4132 0-60.5-27.087-60.5-60.5 0-33.4132 27.0868-60.5 60.5-60.5 33.413 0 60.5 27.0868 60.5 60.5z" fill="#fff" stroke="#797d82" stroke-miterlimit="10"/></mask><path d="m140.5 72c0 33.413-27.087 60.5-60.5 60.5-33.4132 0-60.5-27.087-60.5-60.5 0-33.4132 27.0868-60.5 60.5-60.5 33.413 0 60.5 27.0868 60.5 60.5z" fill="#fff" stroke="#797d82" stroke-miterlimit="10"/><g mask="url(#a)"><g fill="#fff" stroke="#3b414b"><path d="m25 29.5c5.654 0 10.2391 4.5923 10.2391 10.2591 0 5.6669-4.5851 10.2591-10.2391 10.2591-5.6541 0-10.2391-4.5922-10.2391-10.2591 0-5.6668 4.585-10.2591 10.2391-10.2591zm-18.5 79.911v-45.6508c0-5.2097 4.2152-9.4315 9.413-9.4315h18.1739c5.1978 0 9.413 4.2218 9.413 9.4315l.0001 45.6508z"/><path d="m62 29.5c5.654 0 10.2391 4.5923 10.2391 10.2591 0 5.6669-4.5851 10.2591-10.2391 10.2591-5.6541 0-10.2391-4.5922-10.2391-10.2591 0-5.6668 4.585-10.2591 10.2391-10.2591zm-18.5 79.911v-45.6508c0-5.2097 4.2152-9.4315 9.413-9.4315h18.1739c5.1978 0 9.413 4.2218 9.413 9.4315l.0001 45.6508z"/><path d="m136 29.5c5.654 0 10.239 4.5923 10.239 10.2591 0 5.6669-4.585 10.2591-10.239 10.2591s-10.239-4.5922-10.239-10.2591c0-5.6668 4.585-10.2591 10.239-10.2591zm-18.5 79.911v-45.6508c0-5.2097 4.215-9.4315 9.413-9.4315h18.174c5.198 0 9.413 4.2218 9.413 9.4315v45.6508z"/></g><path d="m109.739 39.7591c0-5.9421-4.808-10.7591-10.739-10.7591-5.9311 0-10.7391 4.817-10.7391 10.7591s4.808 10.7591 10.7391 10.7591c5.931 0 10.739-4.817 10.739-10.7591z" fill="#7ab800"/><path d="m80 109.911v-46.1508c0-5.485 4.4382-9.9315 9.913-9.9315h18.174c5.475 0 9.913 4.4465 9.913 9.9315v46.1508z" fill="#7ab800"/><path d="m80 69.5c5.654 0 10.2391 4.5923 10.2391 10.2591 0 5.6669-4.5851 10.2591-10.2391 10.2591-5.6541 0-10.2391-4.5922-10.2391-10.2591 0-5.6668 4.585-10.2591 10.2391-10.2591zm-18.5 79.911v-45.651c0-5.2095 4.2152-9.4313 9.413-9.4313h18.1739c5.1978 0 9.413 4.2218 9.413 9.4313l.0001 45.651z" fill="#fff" stroke="#3b414b"/><path d="m53.7391 79.7591c0-5.9421-4.8081-10.7591-10.7391-10.7591-5.9311 0-10.7391 4.817-10.7391 10.7591s4.808 10.7591 10.7391 10.7591c5.931 0 10.7391-4.817 10.7391-10.7591z" fill="#7ab800"/><path d="m24 149.911v-46.151c0-5.4848 4.4382-9.9313 9.913-9.9313h18.1739c5.4748 0 9.913 4.4465 9.913 9.9313l.0001 46.151z" fill="#7ab800"/><path d="m117 69.5c5.654 0 10.239 4.5923 10.239 10.2591 0 5.6669-4.585 10.2591-10.239 10.2591s-10.239-4.5922-10.239-10.2591c0-5.6668 4.585-10.2591 10.239-10.2591zm-18.5 79.911v-45.651c0-5.2095 4.215-9.4313 9.413-9.4313h18.174c5.198 0 9.413 4.2218 9.413 9.4313v45.651z" fill="#fff" stroke="#3b414b"/></g><path d="m140.5 72c0 33.413-27.087 60.5-60.5 60.5-33.4132 0-60.5-27.087-60.5-60.5 0-33.4132 27.0868-60.5 60.5-60.5 33.413 0 60.5 27.0868 60.5 60.5z" stroke="#3b414b" stroke-miterlimit="10"/></svg>