<svg fill="none" height="112" viewBox="0 0 103 112" width="103" xmlns="http://www.w3.org/2000/svg"><path d="m102.024 20.6147c.009.0815.018.1718.028.2706.054.5415.126 1.34.197 2.3638.141 2.0477.275 4.9958.247 8.5909-.054 7.1919-.754 16.9629-3.3334 27.2888-5.1494 20.6146-17.768 43.3872-47.6626 52.3492-29.8946-8.962-42.51318-31.7346-47.66256-52.3492-2.57934-10.3259-3.27946-20.0969-3.333899-27.2888-.027212-3.5951.106921-6.5432.247656-8.5909.070363-1.0238.142363-1.8223.19664-2.3638.009904-.0988.019219-.1891.027825-.2706.125888.0261.272178.0547.438478.0845.6499.1164 1.60538.2516 2.84292.331 2.47538.1588 6.07794.0943 10.61884-.7894 9.0195-1.7553 21.7176-6.7375 36.6241-19.579876 14.9065 12.842376 27.6046 17.824576 36.6241 19.579876 4.5409.8837 8.1435.9482 10.6188.7894 1.2376-.0794 2.1931-.2146 2.8431-.331.166-.0298.312-.0584.438-.0845z" stroke="#3b414b"/><path clip-rule="evenodd" d="m51.5 32c7.8408 0 14.228 6.2234 14.4915 14h.0085v8h2v21c0 2.2091-1.7909 4-4 4h-25c-2.2091 0-4-1.7909-4-4v-21h2v-8h.0085c.2635-7.7766 6.6507-14 14.4915-14zm-8.5 22h17v-7.5c0-4.6943-3.8056-8.5-8.5-8.5s-8.5 3.8057-8.5 8.5z" fill="#7ab800" fill-rule="evenodd"/></svg>