<svg fill="none" height="140" viewBox="0 0 160 140" width="160" xmlns="http://www.w3.org/2000/svg"><path d="m15.6224 71.6137c-.7938-2.0616.2339-4.3764 2.2955-5.1702l83.9881-32.3411c2.062-.7939 4.377.2339 5.17 2.2954l5.391 13.9981-91.4544 35.2158z" stroke="#797d82"/><path d="m141.448 60.8633h1v13h-1z" fill="#797d82" transform="matrix(0 1 -1 0 202.3113 -80.5847)"/><path d="m133.605 41h1v15h-1z" fill="#797d82" transform="matrix(.70710678 .70710678 -.70710678 .70710678 68.123377 -82.46438)"/><path d="m134.312 81.0195h1v15h-1z" fill="#797d82" transform="matrix(-.70710678 .70710678 -.70710678 -.70710678 286.574364 43.336012)"/><g stroke="#797d82"><path d="m56.3186 40.9401c.9113 2.3667 2.5154 6.5324 3.5934 9.332-1.8664.7187-6.5448 2.5202-9.332 3.5935-5.154 1.9846-10.9409-.5847-12.9255-5.7386-1.9846-5.154.5846-10.9409 5.7386-12.9255 5.1539-1.9846 10.9409.5846 12.9255 5.7386z"/><path d="m56.3185 40.9408c.9114 2.3667 2.5154 6.5325 3.5935 9.3321 1.8664-.7187 6.5448-2.5202 9.332-3.5935 5.154-1.9846 7.7232-7.7715 5.7386-12.9255-1.9846-5.1539-7.7715-7.7232-12.9255-5.7386-5.1539 1.9846-7.7232 7.7716-5.7386 12.9255z"/><path d="m112 122v-51h-53l-26 10v41z" fill="#fff"/></g><path d="m81.733 100.135c-.1762-.6219-.39-1.1627-.6412-1.622-.2509-.4598-.6104-.9083-1.0791-1.3469-.4681-.4385-.8892-.7916-1.2625-1.06-.3732-.2686-.8858-.569-1.5376-.9015-.6511-.3323-1.1671-.5797-1.5469-.7423-.3803-.1625-.9304-.3851-1.65-.6679-.638-.2543-1.113-.4488-1.4255-.583-.3122-.1344-.7227-.3251-1.2318-.5726-.5089-.2472-.8891-.4665-1.1403-.6572-.2511-.1908-.5191-.424-.8043-.6996-.2851-.2756-.4853-.569-.6008-.88-.1152-.3111-.173-.6504-.173-1.018 0-.9611.4071-1.746 1.2217-2.3537.8145-.6077 1.8668-.9117 3.1565-.9117.5699 0 1.1509.0812 1.741.2439s1.0959.346 1.5168.5512c.4212.2051.8181.4314 1.1916.6786.3733.2475.6379.4347.7942.5619.1561.1273.2551.2121.2954.2546.1767.1413.3595.1907.5496.1484.2035-.0141.3598-.1273.4686-.3392l1.6497-3.096c.1629-.2826.1292-.5513-.1017-.8059-.0816-.0848-.183-.1837-.3061-.2969-.1218-.1132-.3866-.3181-.7942-.6151-.4072-.2968-.8382-.5619-1.2927-.7952-.455-.2331-1.0457-.47-1.772-.7102-.7259-.2406-1.4762-.403-2.2502-.4878v-3.7323c0-.1978-.061-.3605-.1828-.4878-.1221-.127-.2783-.1908-.4687-.1908h-2.7492c-.1764 0-.3291.0671-.4581.2014-.1289.1344-.1934.2933-.1934.4772v3.817c-2.1314.424-3.8623 1.3712-5.1927 2.8414-1.3303 1.4704-1.9956 3.1807-1.9956 5.1318 0 .5796.0579 1.1309.1733 1.6537.1152.5233.2579.9934.4276 1.4103.1697.4173.4107.8272.7229 1.2302.3122.4028.6075.7492.8858 1.0389.2783.2896.6415.5901 1.0894.901.4481.3112.8316.5624 1.1507.7531.3192.1901.7433.41 1.2726.6568.5294.2476.947.4347 1.2525.5622.3055.1271.7229.304 1.2525.5297.733.2969 1.2761.5267 1.629.6894.3532.1626.8011.3888 1.3444.6786.5428.2895.9398.5543 1.1911.7953.2511.24.4784.537.6822.89.2038.354.3058.728.3058 1.124 0 1.117-.4174 1.979-1.2525 2.587-.8348.608-1.8024.912-2.9018.912-.5018 0-1.0045-.056-1.5066-.169-1.7649-.368-3.4142-1.252-4.9482-2.651l-.0408-.043c-.1222-.155-.2852-.219-.4886-.19-.2172.028-.3734.113-.4684.255l-2.0974 2.862c-.2037.283-.19.573.0408.869.0679.085.1867.213.3563.382.17.17.4857.435.947.796.4615.361.9638.7 1.5069 1.018s1.2319.632 2.067.944c.835.31 1.7002.529 2.5963.656v3.711c0 .184.0645.343.1934.478.129.134.2817.201.4581.201h2.7492c.1904 0 .3466-.064.4686-.191.1221-.127.1828-.289.1828-.488v-3.711c2.1589-.367 3.9135-1.332 5.2641-2.894 1.3507-1.562 2.0263-3.425 2.0263-5.588-.0007-.707-.0888-1.371-.267-1.993z" fill="#7ab800"/></svg>