<svg fill="none" height="140" viewBox="0 0 160 140" width="160" xmlns="http://www.w3.org/2000/svg"><path d="m96.5223 76.9635c-.3154-1.0466-.698-1.9576-1.1474-2.7311-.4492-.7744-1.0924-1.5297-1.9311-2.2685-.8376-.7384-1.5912-1.3331-2.2593-1.7852-.6678-.4525-1.5851-.9583-2.7513-1.5183-1.1653-.5598-2.0886-.9763-2.7682-1.2503-.6806-.2736-1.665-.6486-2.9526-1.1248-1.1417-.4283-1.9917-.7558-2.551-.9819-.5586-.2263-1.2933-.5475-2.2043-.9644-.9107-.4164-1.5909-.7856-2.0405-1.1069-.4493-.3212-.929-.714-1.4392-1.1782-.5103-.4643-.8686-.9584-1.0752-1.4821-.2061-.5239-.3095-1.0955-.3095-1.7146 0-1.6187.7285-2.9405 2.186-3.9641 1.4577-1.0235 3.3407-1.5355 5.6486-1.5355 1.0198 0 2.0595.1367 3.1155.4108s1.961.5828 2.7142.9283c.7538.3455 1.464.7266 2.1323 1.143.6682.4168 1.1417.7321 1.4213.9464.2794.2144.4564.3571.5285.4286.3163.2381.6434.3213.9836.2501.3642-.0238.6439-.2145.8386-.5713l2.9521-5.2144c.2914-.476.2312-.9284-.1821-1.3573-.146-.1428-.3275-.3093-.5477-.5-.218-.1906-.6919-.5357-1.4213-1.036-.7286-.4999-1.4999-.9463-2.3132-1.3392-.8141-.3926-1.8712-.7916-3.1709-1.1962-1.2991-.4052-2.6416-.6787-4.0267-.8215v-6.286c0-.3332-.1091-.6071-.3271-.8215-.2185-.2139-.498-.3214-.8387-.3214h-4.9196c-.3158 0-.589.113-.8198.3393-.2307.2262-.3461.4939-.3461.8036v6.4286c-3.8141.7141-6.9115 2.3094-9.2922 4.7856-2.3804 2.4764-3.5711 5.3569-3.5711 8.643 0 .9761.1036 1.9047.3101 2.7852.2063.8813.4615 1.673.7653 2.3753.3035.7027.7349 1.393 1.2936 2.0718.5586.6785 1.0871 1.2619 1.585 1.7498.4981.4877 1.148.9938 1.9494 1.5175.8019.5241 1.4882.9471 2.0592 1.2683.5712.3203 1.3302.6905 2.2773 1.1062.9475.4169 1.6947.7321 2.2414.9468.5466.2141 1.2935.5121 2.2413.8922 1.3117.5 2.2836.8871 2.9151 1.161.632.274 1.4334.6549 2.4057 1.143.9714.4876 1.6817.9342 2.1314 1.3391.4494.4049.8562.9049 1.2208 1.5.3647.5951.5473 1.2261.5473 1.8931 0 1.881-.747 3.3331-2.2414 4.3561-1.4938 1.0241-3.2253 1.536-5.1927 1.536-.898 0-1.7976-.0947-2.6961-.2851-3.1581-.6198-6.1095-2.1079-8.8546-4.4649l-.0729-.0715c-.2188-.2612-.5104-.3685-.8744-.3206-.3888.0476-.6683.1905-.8382.4291l-3.7533 4.8211c-.3645.4761-.3399.9641.073 1.4641.1216.143.3341.3578.6376.643.3043.2863.8692.732 1.6947 1.3403.8258.6075 1.7247 1.1782 2.6966 1.7146.9718.5355 2.2044 1.065 3.6987 1.589 1.4943.5232 3.0426.8921 4.6461 1.1062v6.2502c0 .31.1155.577.3461.804.2309.226.504.339.8198.339h4.9196c.3407 0 .6202-.107.8386-.321.2183-.214.3271-.488.3271-.822v-6.25c3.8632-.619 7.0031-2.2441 9.4199-4.8752 2.4171-2.6311 3.626-5.768 3.626-9.4106-.0013-1.1903-.1589-2.3094-.4777-3.3577z" fill="#7ab800"/><circle cx="80" cy="70" r="45.5" stroke="#3b414b"/></svg>