<svg fill="none" height="140" viewBox="0 0 160 140" width="160" xmlns="http://www.w3.org/2000/svg"><path d="m131.024 34.6147c.009.0815.018.1718.028.2706.054.5415.126 1.34.197 2.3638.141 2.0477.275 4.9958.247 8.5909-.054 7.1919-.754 16.9629-3.333 27.2888-5.15 20.6146-17.768 43.3872-47.663 52.3492-29.8946-8.962-42.5132-31.7346-47.6626-52.3492-2.5793-10.3259-3.2794-20.0969-3.3339-27.2888-.0272-3.5951.107-6.5432.2477-8.5909.0704-1.0238.1424-1.8223.1966-2.3638.0099-.0988.0193-.1891.0279-.2706.1258.0261.2721.0547.4384.0845.6499.1164 1.6054.2516 2.843.331 2.4753.1588 6.0779.0943 10.6188-.7894 9.0195-1.7553 21.7176-6.7375 36.6241-19.5799 14.9065 12.8424 27.605 17.8246 36.624 19.5799 4.541.8837 8.144.9482 10.619.7894 1.237-.0794 2.193-.2146 2.843-.331.166-.0298.312-.0584.438-.0845z" stroke="#3b414b"/><g clip-rule="evenodd" fill-rule="evenodd"><path d="m80.5 46c7.8408 0 14.228 6.2234 14.4915 14h.0085v8h2v21c0 2.2091-1.7909 4-4 4h-25c-2.2091 0-4-1.7909-4-4v-21h2v-8h.0085c.2635-7.7766 6.6507-14 14.4915-14zm-8.5 22h17v-7.5c0-4.6943-3.8056-8.5-8.5-8.5s-8.5 3.8057-8.5 8.5z" fill="#7ab800"/><path d="m82 81.6632c1.1825-.5617 2-1.767 2-3.1632 0-1.933-1.567-3.5-3.5-3.5s-3.5 1.567-3.5 3.5c0 1.3962.8175 2.6015 2 3.1632v4.3368h3z" fill="#fff"/></g></svg>