<svg fill="none" height="48" viewBox="0 0 48 48" width="48" xmlns="http://www.w3.org/2000/svg"><path d="m48 24c0 13.2547-10.7453 24-24 24-13.2548 0-24-10.7453-24-24 0 .0056 24-23.99728125 24-24 13.2547 0 24 10.7452 24 24z" fill="#0052b4"/><path d="m24 0c-.0013 0-.0026.00008303-.0039.00008303z" fill="#f0f0f0"/><path d="m23.9355 24.0001h.0643c0-.0217 0-.0425 0-.0642-.0214.0215-.0428.0429-.0643.0642z" fill="#f0f0f0"/><path d="m24 12.5227c0-4.22298 0-6.99019 0-12.52172344h-.004c-13.253.00215625-23.996 10.74632344-23.996 23.99992344h12.5217v-7.0511l7.0511 7.0511h4.3631l.0642-.0642c0-1.6169 0-3.0597 0-4.3628l-7.0512-7.0512z" fill="#f0f0f0"/><path d="m12.1425 3.13049c-3.75367 2.13741-6.87423 5.25797-9.01164 9.01161v11.858h6.26091v-14.60861-.00009h14.60873c0-1.97466 0-3.85584 0-6.26091z" fill="#d80027"/><path d="m23.9997 21.0486-8.5269-8.5267h-2.9513c0-.0001 0 0 0 0l11.4781 11.4781h.0001s0-2.0349 0-2.9514z" fill="#d80027"/><g fill="#f0f0f0"><path d="m14.4746 28.1743 1.3172 2.7542 2.9744-.6875-1.332 2.7471 2.3919 1.8968-2.9781.6713.0083 3.0529-2.3817-1.91-2.3816 1.91.0083-3.0529-2.97825-.6713 2.39205-1.8968-1.3322-2.7471 2.9746.6875z"/><path d="m35.9335 33.3915.6586 1.3771 1.4873-.3438-.6661 1.3735 1.196.9485-1.4891.3356.0041 1.5265-1.1908-.9551-1.1908.9551.0041-1.5265-1.489-.3356 1.196-.9485-.666-1.3735 1.4871.3438z"/><path d="m29.8067 18.7831.6585 1.3772 1.4872-.3439-.666 1.3735 1.196.9485-1.489.3356.004 1.5265-1.1907-.9551-1.1908.9551.004-1.5265-1.489-.3356 1.1959-.9485-.666-1.3735 1.4873.3439z"/><path d="m35.9335 10.4351.6586 1.3771 1.4873-.3437-.666 1.3735 1.1958.9484-1.489.3357.0041 1.5264-1.1908-.955-1.1908.955.0041-1.5264-1.489-.3357 1.1959-.9484-.6659-1.3735 1.4871.3437z"/><path d="m41.2852 16.6959.6585 1.3772 1.4872-.3439-.666 1.3736 1.196.9484-1.4891.3358.0041 1.5263-1.1907-.9549-1.1908.9549.004-1.5263-1.489-.3358 1.1959-.9484-.666-1.3736 1.4872.3439z"/><path d="m37.4581 24.0002.5179 1.5944h1.6765l-1.3563.9854.5182 1.5942-1.3563-.9853-1.3562.9853.518-1.5942-1.3562-.9854h1.6763z"/></g></svg>