<svg fill="none" height="140" viewBox="0 0 160 140" width="160" xmlns="http://www.w3.org/2000/svg"><circle cx="80" cy="70" r="47.5" stroke="#3b414b"/><circle cx="80" cy="70" r="34.5" stroke="#3b414b"/><circle cx="80" cy="70" fill="#7ab800" r="6"/><path d="m78 27h4v44h-4z" fill="#7ab800"/><g fill="#3b414b"><rect height="4" rx="2" width="4" x="78" y="109"/><rect height="4" rx="2" transform="matrix(0 1 -1 0 191 -55)" width="4" x="123" y="68"/><rect height="4" rx="2" transform="matrix(0 1 -1 0 109 27)" width="4" x="41" y="68"/><rect height="4" rx="2" transform="matrix(-.5 .8660254 -.8660254 -.5 255.099522 32.253422)" width="4" x="118.239" y="89.7676"/><rect height="4" rx="2" transform="matrix(-.5 .8660254 -.8660254 -.5 113.07133 32.253437)" width="4" x="47.2249" y="48.7676"/><rect height="4" rx="2" transform="matrix(-.8660254 .5 -.5 -.8660254 245.752534 146.626807)" width="4" x="103.232" y="106.238"/><rect height="4" rx="2" transform="matrix(-.8660254 .5 -.5 -.8660254 133.739166 34.613898)" width="4" x="62.2322" y="35.2246"/><rect height="4" rx="2" transform="matrix(.866025 .5 .5 -.866025 56.7688 106.238)" width="4"/><rect height="4" rx="2" transform="matrix(.866025 .5 .5 -.866025 97.7688 35.2246)" width="4"/><rect height="4" rx="2" transform="matrix(-.5 -.866025 -.866025 .5 118.239 50.2324)" width="4"/><rect height="4" rx="2" transform="matrix(-.5 -.866025 -.866025 .5 47.2251 91.2324)" width="4"/></g><path d="m60.2336 62.4707 1.6818-2.9128 1.6817-2.9128 16.5586 9.5601c1.6087.9288 2.1599 2.9858 1.2311 4.5945s-2.9858 2.1599-4.5945 1.2311z" fill="#7ab800"/></svg>