<svg fill="none" height="140" viewBox="0 0 160 140" width="160" xmlns="http://www.w3.org/2000/svg"><rect height="85" rx="3.5" stroke="#3b414b" transform="matrix(0 -1 1 0 -96 159)" width="113" x="31.5" y="127.5"/><path d="m39.5 104.5v-82h69v82z" stroke="#3b414b"/><circle cx="74" cy="116" r="4.5" stroke="#3b414b"/><path d="m49 68s22.4597-2.9178 22.4597-18.9647-21.7352-16.0471-21.7352 0c0 0-.7245 13.8588 16.6637 13.8588 10.8676 0 15.9392-10.9412 10.8676-10.9412-5.0715 0-.7245 10.9412 10.8676 10.9412 11.5922 0 10.8677-10.9412 10.8677-10.9412" stroke="#7ab800" stroke-width="4"/><g stroke="#3b414b"><path d="m104.978 53c.014-.1647.022-.3315.022-.5 0-3.0376-2.462-5.5-5.5-5.5-3.0376 0-5.5 2.4624-5.5 5.5 0 .1685.0076.3353.0224.5h-.0224v21.2572c-.9509-.7854-2.1704-1.2572-3.5-1.2572-3.0376 0-5.5 2.4624-5.5 5.5 0 .1685.0076.3353.0224.5h-.0224v16l12 13v20h29v-15.509c3.371-2.351 5.658-6.148 5.965-10.491h.035v-23h-.022c.014-.1647.022-.3315.022-.5 0-3.0376-2.462-5.5-5.5-5.5-1.332 0-2.553.4735-3.505 1.2614-.125-2.9269-2.537-5.2614-5.495-5.2614-1.86 0-3.505.9234-4.5 2.3369-.995-1.4135-2.64-2.3369-4.5-2.3369-1.33 0-2.549.4718-3.5 1.2572v-17.2572z" fill="#fff"/><path d="m105 70.5v10"/><path d="m94 73.5v14"/><path d="m113 70.5v10"/><path d="m123 74.5v6"/></g></svg>