<svg fill="none" height="140" viewBox="0 0 160 140" width="160" xmlns="http://www.w3.org/2000/svg" xmlns:xlink="http://www.w3.org/1999/xlink"><mask id="a" fill="#fff"><path clip-rule="evenodd" d="m112.179 96.0818c-7.597 9.6912-19.4108 15.9182-32.6794 15.9182-13.115 0-24.8091-6.084-32.4142-15.5828 8.5375-3.9741 20.137-6.4172 32.915-6.4172 12.4145 0 23.7166 2.3061 32.1786 6.0818z" fill="#fff" fill-rule="evenodd"/></mask><mask id="b" fill="#fff"><path clip-rule="evenodd" d="m112.179 44.9182c-7.597-9.6911-19.4108-15.9182-32.6794-15.9182-13.115 0-24.8091 6.0836-32.4142 15.5828 8.5375 3.9741 20.137 6.4172 32.915 6.4172 12.4145 0 23.7166-2.3061 32.1786-6.0818z" fill="#fff" fill-rule="evenodd"/></mask><circle cx="79.5" cy="70.5" r="41" stroke="#3b414b"/><path d="m99.5 70.5c0 11.4016-2.2282 21.6993-5.8083 29.1279-3.5971 7.4641-8.47 11.8721-13.6917 11.8721s-10.0946-4.408-13.6917-11.8721c-3.5801-7.4286-5.8083-17.7263-5.8083-29.1279s2.2282-21.6993 5.8083-29.1279c3.5971-7.464 8.47-11.8721 13.6917-11.8721s10.0946 4.4081 13.6917 11.8721c3.5801 7.4286 5.8083 17.7263 5.8083 29.1279z" stroke="#3b414b"/><g fill="#3b414b"><path d="m112.179 96.0818.787.6169.791-1.0081-1.17-.522zm-65.0936.3354-.422-.9066-1.1545.5374.7959.9942zm64.3066-.9523c-7.415 9.4601-18.944 15.5351-31.8924 15.5351v2c13.5889 0 25.6884-6.379 33.4664-16.3013zm-31.8924 15.5351c-12.7985 0-24.21-5.935-31.6335-15.2078l-1.5613 1.25c7.7867 9.7258 19.7633 15.9578 33.1948 15.9578zm-31.9921-13.6762c8.3801-3.9009 19.8302-6.3238 32.4929-6.3238v-2c-12.8932 0-24.6421 2.4633-33.337 6.5106zm32.4929-6.3238c12.3015 0 23.4606 2.2867 31.7716 5.995l.815-1.8264c-8.614-3.8432-20.0592-6.1686-32.5866-6.1686z" mask="url(#a)"/><path d="m112.179 44.9182.787-.6169.791 1.0081-1.17.522zm-65.0936-.3354-.422.9066-1.1545-.5374.7959-.9942zm64.3066.9523c-7.415-9.4597-18.944-15.5351-31.8924-15.5351v-2c13.5889 0 25.6884 6.3787 33.4664 16.3013zm-31.8924-15.5351c-12.7985 0-24.21 5.9354-31.6335 15.2078l-1.5613-1.25c7.7867-9.726 19.7633-15.9578 33.1948-15.9578zm-31.9921 13.6762c8.3801 3.9009 19.8302 6.3238 32.4929 6.3238v2c-12.8932 0-24.6421-2.4633-33.337-6.5106zm32.4929 6.3238c12.3015 0 23.4606-2.2867 31.7716-5.995l.815 1.8264c-8.614 3.8432-20.0592 6.1686-32.5866 6.1686z" mask="url(#b)"/><path d="m38 70h83v1h-83z"/><path d="m80 29h83v.999996h-83z" transform="matrix(0 1 -1 0 109 -51)"/></g></svg>