<svg fill="none" height="140" viewBox="0 0 160 140" width="160" xmlns="http://www.w3.org/2000/svg"><rect height="78" rx="3.5" stroke="#3b414b" width="123" x="18.5" y="29.5"/><path d="m51.733 67.1346c-.1762-.6215-.39-1.1623-.6412-1.6216-.2509-.4598-.6104-.9083-1.0791-1.3469-.4681-.4385-.8892-.7916-1.2625-1.06-.3732-.2686-.8858-.569-1.5376-.9015-.6511-.3323-1.1671-.5797-1.5469-.7423-.3803-.1625-.9304-.3851-1.65-.6679-.638-.2543-1.113-.4488-1.4255-.583-.3122-.1344-.7227-.3251-1.2318-.5726-.5089-.2472-.8891-.4665-1.1403-.6572-.2511-.1908-.5191-.424-.8043-.6996-.2851-.2756-.4853-.569-.6008-.88-.1152-.3111-.173-.6504-.173-1.018 0-.9611.4071-1.746 1.2217-2.3537.8145-.6077 1.8668-.9117 3.1565-.9117.5699 0 1.1509.0812 1.741.2439s1.0959.346 1.5168.5512c.4212.2051.8181.4314 1.1916.6786.3733.2475.6379.4347.7942.5619.1561.1273.2551.2121.2954.2546.1767.1413.3595.1907.5496.1484.2035-.0141.3598-.1273.4686-.3392l1.6497-3.096c.1629-.2826.1292-.5513-.1017-.8059-.0816-.0848-.183-.1837-.3061-.2969-.1218-.1132-.3866-.3181-.7942-.6151-.4072-.2968-.8382-.5619-1.2927-.7952-.455-.2331-1.0457-.47-1.772-.7102-.7259-.2406-1.4762-.403-2.2502-.4878v-3.7323c0-.1978-.061-.3605-.1828-.4878-.1221-.127-.2783-.1908-.4687-.1908h-2.7492c-.1764 0-.3291.0671-.4581.2014-.1289.1344-.1934.2933-.1934.4772v3.817c-2.1314.424-3.8623 1.3712-5.1927 2.8414-1.3303 1.4704-1.9956 3.1807-1.9956 5.1318 0 .5796.0579 1.1309.1733 1.6537.1152.5233.2579.9934.4276 1.4103.1697.4173.4107.8272.7229 1.2302.3122.4028.6075.7492.8858 1.0389.2783.2896.6415.5901 1.0894.901.4481.3112.8316.5624 1.1507.7531.3192.1901.7433.41 1.2726.6568.5294.2476.947.4347 1.2525.5622.3055.1271.7229.304 1.2525.5297.733.2969 1.2761.5267 1.629.6894.3532.1626.8011.3888 1.3444.6786.5428.2895.9398.5547 1.1911.7951.2511.2404.4784.5373.6822.8906.2038.3534.3058.728.3058 1.124 0 1.1169-.4174 1.9791-1.2525 2.5865-.8348.6081-1.8024.912-2.9018.912-.5018 0-1.0045-.0562-1.5066-.1693-1.7649-.368-3.4142-1.2516-4.9482-2.651l-.0408-.0425c-.1222-.155-.2852-.2188-.4886-.1903-.2172.0282-.3734.1131-.4684.2547l-2.0974 2.8626c-.2037.2827-.19.5724.0408.8693.0679.0849.1867.2124.3563.3817.17.1701.4857.4347.947.7959.4615.3607.9638.6995 1.5069 1.018.5431.318 1.2319.6324 2.067.9435.835.3106 1.7002.5297 2.5963.6568v3.711c0 .184.0645.3429.1934.4773.129.1346.2817.2014.4581.2014h2.7492c.1904 0 .3466-.0635.4686-.1906.1221-.1271.1828-.2897.1828-.488v-3.711c2.1589-.3675 3.9135-1.3324 5.2641-2.8946 1.3507-1.5622 2.0263-3.4248 2.0263-5.5876-.0007-.7067-.0888-1.3712-.267-1.9936z" fill="#7ab800"/><g stroke="#3b414b"><path d="m64.5 44.5h64v12h-64z"/><path d="m64.5 64.5h64v12h-64z"/><path d="m64.5 84.5h8v8h-8z"/><path d="m80.5 84.5h8v8h-8z"/><path d="m96.5 84.5h8v8h-8z"/><path d="m112.5 84.5h8v8h-8z"/></g></svg>