<svg fill="none" height="140" viewBox="0 0 160 140" width="160" xmlns="http://www.w3.org/2000/svg" xmlns:xlink="http://www.w3.org/1999/xlink"><mask id="a" height="122" maskUnits="userSpaceOnUse" width="122" x="19" y="11"><path d="m140.5 72c0 33.413-27.087 60.5-60.5 60.5-33.4132 0-60.5-27.087-60.5-60.5 0-33.4132 27.0868-60.5 60.5-60.5 33.413 0 60.5 27.0868 60.5 60.5z" fill="#fff" stroke="#797d82" stroke-miterlimit="10"/></mask><mask id="b" fill="#fff"><path clip-rule="evenodd" d="m111.423 53c5.931 0 10.739 4.817 10.739 10.7591s-4.808 10.7591-10.739 10.7591-10.739-4.817-10.739-10.7591 4.808-10.7591 10.739-10.7591zm-18.9999 39.9777v40.9333h37.9999v-46.1508c0-5.485-4.438-9.9315-9.913-9.9315h-18.174c-1.621 0-3.1512.3899-4.5022 1.0811l-13.5109-24.6058c-10.0907 4.727 4.9097 32.9264 8.1002 38.6737z" fill="#fff" fill-rule="evenodd"/></mask><path d="m140.5 72c0 33.413-27.087 60.5-60.5 60.5-33.4132 0-60.5-27.087-60.5-60.5 0-33.4132 27.0868-60.5 60.5-60.5 33.413 0 60.5 27.0868 60.5 60.5z" fill="#fff" stroke="#797d82" stroke-miterlimit="10"/><g mask="url(#a)"><path d="m92.4231 133.911v1h-1v-1zm0-40.9333.8743-.4853.1257.2264v.2589zm37.9999 40.9333h1v1h-1zm0-46.1508h-1zm-32.5892-8.8504.4554.8903-.8645.4423-.4675-.8513zm-13.5109-24.6058-.4242-.9056.8493-.3979.4515.8222zm36.8391 9.4551c0-5.3915-4.362-9.7591-9.739-9.7591v-2c6.485 0 11.739 5.2665 11.739 11.7591zm-9.739 9.7591c5.377 0 9.739-4.3675 9.739-9.7591h2c0 6.4926-5.254 11.7591-11.739 11.7591zm-9.739-9.7591c0 5.3916 4.362 9.7591 9.739 9.7591v2c-6.485 0-11.739-5.2665-11.739-11.7591zm9.739-9.7591c-5.377 0-9.739 4.3676-9.739 9.7591h-2c0-6.4926 5.254-11.7591 11.739-11.7591zm-19.9999 79.911v-40.9333h2v40.9333zm38.9999 1h-37.9999v-2h37.9999zm1-47.1508v46.1508h-2v-46.1508zm-10.913-10.9315c6.029 0 10.913 4.896 10.913 10.9315h-2c0-4.9345-3.992-8.9315-8.913-8.9315zm-18.174 0h18.174v2h-18.174zm-4.9577 1.1909c1.4887-.7617 3.1747-1.1909 4.9577-1.1909v2c-1.459 0-2.8334.3506-4.0468.9714zm-.4211 1.3715-13.5108-24.6058 1.7531-.9626 13.5108 24.6058zm-12.2101-24.1816c-1.9867.9307-2.8999 3.0563-2.8643 6.3123.0354 3.236 1.0222 7.2623 2.4549 11.4099 2.8581 8.2737 7.3707 16.6983 8.9597 19.5607l-1.7486.9707c-1.6015-2.885-6.1844-11.4338-9.1015-19.8784-1.4548-4.2115-2.5255-8.4805-2.5644-12.041-.0387-3.5405.9571-6.7124 4.0158-8.1453z" fill="#797d82" mask="url(#b)"/><path clip-rule="evenodd" d="m50.8814 53c-5.9311 0-10.7391 4.817-10.7391 10.7591s4.808 10.7591 10.7391 10.7591c5.931 0 10.7391-4.817 10.7391-10.7591s-4.8081-10.7591-10.7391-10.7591zm18.9999 39.9777v40.9333h-38l.0001-46.1508c0-5.485 4.4382-9.9315 9.913-9.9315h18.1739c1.6211 0 3.1513.3899 4.5024 1.0811l13.5108-24.6058c10.0908 4.727-4.9097 32.9264-8.1002 38.6737z" fill="#7ab800" fill-rule="evenodd"/><path d="m119.999 92v31.5" stroke="#797d82"/><path d="m41.9985 92v31.5" stroke="#fff"/></g><path d="m140.5 72c0 33.413-27.087 60.5-60.5 60.5-33.4132 0-60.5-27.087-60.5-60.5 0-33.4132 27.0868-60.5 60.5-60.5 33.413 0 60.5 27.0868 60.5 60.5z" stroke="#797d82" stroke-miterlimit="10"/><g fill="#797d82"><path d="m81 30h1v13h-1z"/><path d="m61.1367 37.8438h1v15h-1z" transform="matrix(.70710678 -.70710678 .70710678 .70710678 -8.853083 54.314368)"/><path d="m101.156 37.1367h1v15h-1z" transform="matrix(.70710678 .70710678 -.70710678 .70710678 55.887519 -60.651006)"/></g></svg>