<svg fill="none" height="140" viewBox="0 0 160 140" width="160" xmlns="http://www.w3.org/2000/svg"><g stroke="#3b414b"><path d="m19.5 112.5h103v19h-103z"/><path d="m32.5 61.5h17v51h-17z"/><path d="m58.5 61.5h17v51h-17z"/><path d="m84.5 61.5h17v51h-17z"/><path d="m110.5 61.5h17v51h-17z"/><path d="m23.5 48.5h113v13h-113z"/><path d="m19.5 48.5v-12.5141l60.5-24.4466 60.5 24.4466v12.5141z"/><circle cx="80" cy="32" r="6.5"/></g><path d="m128 139c15.464 0 28-12.536 28-28s-12.536-28-28-28-28 12.536-28 28 12.536 28 28 28z" fill="#fff"/><path d="m149.5 111c0 11.874-9.626 21.5-21.5 21.5s-21.5-9.626-21.5-21.5c0-11.8741 9.626-21.5 21.5-21.5s21.5 9.6259 21.5 21.5z" fill="#fff" stroke="#7ab800" stroke-miterlimit="10"/><path d="m125.412 132.849c.937.091 1.893.14 2.863.149 5.406-.066 10.342-2.082 14.139-5.377v-4.666c0-4.161-3.367-7.534-7.52-7.534h-13.788c-4.153 0-7.52 3.373-7.52 7.534v4.666c3.248 2.818 7.33 4.701 11.826 5.228z" fill="#7ab800"/><path d="m119.853 104.748c0-4.508 3.648-8.1621 8.147-8.1621s8.147 3.6541 8.147 8.1621c0 4.507-3.648 8.161-8.147 8.161s-8.147-3.654-8.147-8.161z" fill="#7ab800"/><circle cx="142" cy="125" fill="#7ab800" r="10.5" stroke="#fff"/><path d="m136 124h12v2h-12z" fill="#fff"/><path d="m143 119h12v2h-12z" fill="#fff" transform="matrix(0 1 -1 0 262 -24)"/></svg>