<svg fill="none" height="50" viewBox="0 0 293 50" width="293" xmlns="http://www.w3.org/2000/svg" xmlns:xlink="http://www.w3.org/1999/xlink"><clipPath id="a"><path d="m0 0h293v50h-293z"/></clipPath><g clip-path="url(#a)" fill="#003de5"><path d="m49.5074 25.2824c0 4.7908 2.7759 7.9894 6.9612 7.9894 4.1922 0 7.1878-3.37 7.1878-8.0465 0-4.848-2.8893-8.2751-6.9612-8.2751-4.249 0-7.1878 3.4271-7.1878 8.3322zm0-13.5228v3.2557c2.1528-2.913 4.6951-4.1696 8.6041-4.1696 2.776 0 5.0916.6854 7.3011 2.1705 3.9657 2.7417 5.9414 6.7328 5.9414 12.0448 0 8.4464-5.2049 14.044-13.0796 14.044-3.7958 0-6.5647-1.1995-8.7741-3.7698v14.6723h-7.1807v-38.2479z"/><path d="m91.4584 22.5472c-.6231-3.4843-3.1158-5.5905-6.6779-5.5905-3.4558 0-5.7785 1.9991-6.4513 5.5905zm-13.1363 4.1625c.6232 3.6555 3.2859 5.9331 6.8479 5.9331 2.6627 0 4.9288-1.3137 6.0548-3.4271l6.6212 1.8278c-2.606 5.1407-7.1878 8.0466-12.7397 8.0466-8.3209 0-14.2694-5.9332-14.2694-14.1583 0-8.275 5.7219-14.0939 13.8162-14.0939 8.3775 0 14.2127 5.9332 14.2127 14.4367l-.0567 1.4279h-20.487z"/><path d="m106.967 11.7596v3.2557c1.926-3.0272 3.852-4.1696 7.131-4.1696 2.493 0 4.872.9139 6.452 2.4561 1.699 1.7135 2.322 3.8269 2.322 8.1608v16.7214h-7.187v-16.3787c0-1.4851-.17-2.3419-.624-3.0844-.679-1.0852-2.039-1.7707-3.455-1.7707-2.776 0-4.646 2.1134-4.646 5.1907v16.0359h-7.1807v-26.4172z"/><path d="m157.353.114258-11.324 23.118642-11.267-23.118642h-8.774v38.069442h7.755v-23.747l12.286 24.8893 12.343-24.8893v23.747h7.755v-38.069442z"/><path d="m175.411 25.1675c0 4.6266 3.002 8.1036 6.904 8.1036 4.022 0 7.245-3.7698 7.245-8.3321 0-4.6837-2.946-7.9894-7.188-7.9894-4.072 0-6.961 3.3699-6.961 8.2179zm14.042-13.4086h7.188v26.4244h-7.188v-3.6556c-2.436 3.1416-5.261 4.5695-9.114 4.5695-7.357 0-12.626-5.7618-12.626-13.8155 0-8.3321 5.545-14.4438 13.193-14.4438 3.569 0 5.998 1.2566 8.547 4.2767z"/><path d="m206.661 11.7596v3.884c.737-1.942 1.247-2.7416 2.323-3.5413 1.133-.7996 2.663-1.2566 4.249-1.2566.17 0 .453 0 .85.0571v7.4183c-.567-.0571-1.133-.1143-1.53-.1143-1.983 0-3.795.9139-4.815 2.399-.85 1.1995-1.077 2.3419-1.077 4.8551v12.7302h-7.187v-26.4315z"/><path d="m213.743.114258v38.069442h7.188v-10.9596l7.301 10.9596h8.321l-8.887-13.7584 8.887-12.666h-8.321l-7.301 10.1599v-21.804942z"/><path d="m254.214 22.5472c-.623-3.4843-3.116-5.5905-6.678-5.5905-3.455 0-5.778 1.9991-6.451 5.5905zm-13.129 4.1625c.623 3.6555 3.286 5.9331 6.848 5.9331 2.663 0 4.929-1.3137 6.055-3.4271l6.621 1.8278c-2.606 5.1407-7.188 8.0466-12.74 8.0466-8.321 0-14.269-5.9332-14.269-14.1583 0-8.275 5.722-14.0939 13.816-14.0939 8.378 0 14.213 5.9332 14.213 14.4367l-.057 1.4279h-20.487z"/><path d="m270.013 30.4228c0 1.2566.453 1.5994 2.04 1.7136h1.246v6.0474h-5.715c-3.512-.1142-4.808-1.5422-4.752-5.0264v-15.4077h-3.002v-6.1045h3.002v-7.0827h7.188v7.0755h3.286v6.1046h-3.286v12.6802z"/><path d="m285.805 19.4063v-.4569c0-1.5993-1.416-2.7417-3.342-2.7417-1.757 0-2.89.971-2.89 2.399 0 .6854.284 1.3708.737 1.7135.793.6283.85.6283 4.475 1.7707 5.885 1.8278 8.208 4.1696 8.208 8.4464 0 5.1406-4.079 8.5606-10.191 8.5606-6.224 0-10.02-3.1986-10.303-8.6749h6.904c.34 2.2848 1.36 3.3129 3.456 3.3129 1.7 0 2.889-1.0281 2.889-2.5132 0-1.5993-1.019-2.3419-4.872-3.5414-5.658-1.7135-8.207-4.2838-8.207-8.4463 0-5.0265 4.022-8.3893 10.133-8.3893 5.999 0 9.624 3.1986 9.794 8.5606z"/><path d="m18.7744 0v7.33257c-3.8382.42125-6.9612 2.10624-9.19186 5.29063-1.60043 2.2847-2.32983 4.8622-2.18112 7.6538.31867 6.0546 4.85798 10.9168 10.78528 11.6165 3.4274.3998 6.5362-.5212 9.206-2.756 2.6343-2.199 4.0506-5.0835 4.4189-8.532h7.3507c-.17 3.8983-1.3597 7.3968-3.5904 10.5169-3.2858 4.598-7.7401 7.3682-13.3063 8.1251-11.5429 1.5707-21.549184-7.0613-22.2219329-18.2993-.7577281-12.59464 9.4538929-20.8982214 18.7307329-20.9482z"/><path d="m20.7207.056715c8.9015-.0285592 18.2492 8.167925 18.3767 18.634885h-7.2303c-.9914-6.4187-4.6809-10.24562-11.1535-11.38085v-7.254035z"/></g></svg>