<svg fill="none" height="32" viewBox="0 0 32 32" width="32" xmlns="http://www.w3.org/2000/svg" xmlns:xlink="http://www.w3.org/1999/xlink"><mask id="a" fill="#fff"><path d="m17 9c0 1.1046.9949 2 2.2222 2h7.7778v-1l-8.8889-8h-1.1111z" fill="#fff"/></mask><rect fill="#f1f9ff" height="32" rx="7" width="32"/><path d="m26.5 10.2212v17.7788c0 .8284-.6716 1.5-1.5 1.5h-18c-.82843 0-1.5-.6716-1.5-1.5v-24c0-.82843.67157-1.5 1.5-1.5h11.0067z" stroke="#49a9ff"/><path d="m27 11v1c.5523 0 1-.4477 1-1zm0-1h1c0-.28349-.1203-.55365-.331-.74329zm-10-8v-1c-.5523 0-1 .44772-1 1zm1.1111 0 .669-.74329c-.1836-.16527-.4219-.25671-.669-.25671zm1.1111 8c-.7767 0-1.2222-.54421-1.2222-1h-2c0 1.7534 1.5444 3 3.2222 3zm7.7778 0h-7.7778v2h7.7778zm-1 0v1h2v-1zm-8-1v-7h-2v7zm-.5579-6.25671 8.8889 8.00001 1.338-1.48659-8.8889-8zm-.4421.25671h1.1111v-2h-1.1111z" fill="#49a9ff" mask="url(#a)"/><g stroke="#49a9ff"><rect fill="#f1f9ff" height="13" rx=".5" width="27" x="2.5" y="12.5"/><path d="m6 14.5v1m0 7.5v-4m0-3.5h2.75c.9665 0 1.75.7835 1.75 1.75 0 .9665-.7835 1.75-1.75 1.75h-2.75m0-3.5v3.5" stroke-width="2"/><path d="m14 14.5v1m0 8v-1m0-7h2.5c1.1046 0 2 .8954 2 2v3c0 1.1046-.8954 2-2 2h-2.5m0-7v7" stroke-width="2"/></g><path d="m26 20c.5523 0 1-.4477 1-1s-.4477-1-1-1zm0-3.5c.5523 0 1-.4477 1-1s-.4477-1-1-1zm-5-2v1h2v-1zm0 1v3.5h2v-3.5zm0 3.5v4h2v-4zm5-1h-4v2h4zm0-3.5h-4v2h4z" fill="#49a9ff"/></svg>