<svg fill="none" height="57" viewBox="0 0 160 57" width="160" xmlns="http://www.w3.org/2000/svg" xmlns:xlink="http://www.w3.org/1999/xlink"><clipPath id="a"><path d="m0 0h160v57h-160z"/></clipPath><g clip-path="url(#a)"><path d="m52.207 57.0116c-1.6675-.3511-2.9555-1.4643-3.5067-3.0306-.1671-.4749-.1797-.5799-.1797-1.5 0-.9202.0126-1.0251.1797-1.5.4056-1.1525 1.2448-2.1052 2.2983-2.6089.3273-.1565.8025-.3301 1.0562-.3857.5887-.1291 1.7316-.1309 2.3759-.0036.6397.1264 1.5482.5696 1.9829.9672l.3363.3076-.6313.711-.6312.711-.3136-.2469c-1.2617-.9939-2.812-.9892-3.8163.0116-1.0908 1.0872-1.0481 3.0519.0902 4.1419.8961.858 2.5081.8882 3.5408.0664.6015-.4789.5334-.4902 1.2319.2059.7105.708.7129.6143-.0312 1.2049-.5143.4082-1.066.6933-1.6491.852-.4535.1235-1.9171.1838-2.3331.0962zm9.2827-.0273c-.999-.2139-1.7234-.5996-2.402-1.2795-.5709-.572-.8641-1.0218-1.089-1.6705-.5698-1.6435-.1956-3.4421.9757-4.6901.6049-.6444 1.4431-1.1185 2.3658-1.3382.4752-.1131.7043-.1301 1.4305-.1062.7544.0247.9362.0532 1.4258.223.7057.2446 1.1752.5218 1.6914.9984.5304.4896.9569 1.1387 1.1963 1.8204.1646.4688.1973.6683.2208 1.3504.0295.8563-.0363 1.2543-.326 1.969-.4737 1.1686-1.5355 2.125-2.8388 2.5571-.5516.1828-.7359.2127-1.4336.2326-.5263.0149-.9432-.0078-1.2169-.0664zm1.4731-1.7624c1.1948-.1915 2.0452-1.0543 2.2485-2.2817.2558-1.5434-.7431-2.9602-2.271-3.221-1.9435-.3317-3.5351 1.5141-3.0166 3.4984.3072 1.1753 1.2292 1.9191 2.5587 2.064.0353.0038.2515-.023.4804-.0597zm33.9152 1.8136c-1.6097-.2579-2.6224-1.1451-3.0194-2.6452-.0921-.3485-.112-.8526-.1342-3.3933l-.026-2.9841h2.0527l.019 2.9522c.0156 2.4262.0356 2.9862.1123 3.1436.2165.4443.4518.7142.7811.896.3186.1759.3895.1891 1.0151.1891.5657 0 .7133-.0218.9296-.1373.366-.1953.6017-.4485.7933-.8521l.1666-.351.019-2.9203.0191-2.9202h1.9868l-.02 3.0798-.019 3.0798-.178.4997c-.417 1.1746-1.213 1.9219-2.3884 2.2428-.3776.103-1.7347.1805-2.1096.1205zm-51.4652-1.1077v-1.0212h2.1137v2.0425h-2.1137zm23.6989-3.4468v-4.4681l1.0729.0002 1.0729.0002 1.1529 1.8291c.6341 1.0059 1.1808 1.8284 1.215 1.8277.0342-.0006.5803-.8238 1.2135-1.8291l1.1514-1.8281h2.1527v8.9361h-1.9843l-.0167-2.8814-.0166-2.8815-1.243 1.8602c-.6836 1.0232-1.2627 1.8603-1.2871 1.8603-.0243 0-.6035-.8372-1.2871-1.8603l-1.2429-1.8602-.0166 2.8815-.0167 2.8815h-1.9203zm10.8888 3.4468v-1.0212h2.1137v2.0425h-2.1137zm3.2689.9431c.0013-.0447.8588-2.0633 1.9056-4.4856l1.9031-4.4043.9306-.0176.9307-.0176 1.9196 4.4444c1.0558 2.4444 1.9293 4.4701 1.941 4.5016.0121.0323-.435.0573-1.0276.0573h-1.0489l-.4143-1.0053-.4141-1.0053-1.8973-.0169-1.8972-.017-.1674.3999c-.092.22-.2799.6728-.4174 1.0063l-.25.6064-.9993.0175c-.7776.0137-.9989-.0005-.9971-.0638zm5.8727-3.7675c-.2297-.5845-1.0991-2.6451-1.1311-2.6811-.0236-.0264-.1759.2752-.3385.6702-.1626.3951-.426 1.0271-.5852 1.4045l-.2895.6861h1.1879c.9242 0 1.1808-.0177 1.1564-.0797zm-54.5062-10.783-5.7488-3.0034-.7039.2618c-3.572 1.3289-7.5851 1.6571-11.3512.9284-4.0435-.7824-7.78512-2.763-10.71957-5.674-2.76932-2.7474-4.71481-6.2712-5.533384-10.0224-.5102961-2.3389-.5912568-5.0784-.219696-7.4362.548407-3.48 2.00429-6.7657 4.2425-9.57444.61303-.76934 2.0383-2.22357 2.82856-2.88613 3.00469-2.51898 6.66699-4.12621 10.66449-4.680125 1.0173-.1409358 3.2829-.191489 4.3954-.097978 7.9074.66434 14.6231 5.542153 17.5723 12.763173 1.5383 3.7666 1.8974 7.9553 1.0183 11.8798-.627 2.7989-1.7881 5.3421-3.5725 7.8244l-.2332.3245 1.5716 6.0904c.8645 3.3498 1.5877 6.1407 1.6073 6.2022.0195.0614.0119.1098-.0169.1075-.0289-.0023-2.6393-1.3557-5.8012-3.0075zm.0561-4.3128c-.0926-.3143-1.513-5.8478-1.513-5.894 0-.0298.3073-.45.6828-.9339.963-1.2407 1.6156-2.2558 2.1644-3.3668 1.818-3.6798 2.2294-7.6767 1.1898-11.5588-.7681-2.8681-2.2258-5.3792-4.3539-7.49988-2.6161-2.60706-5.8444-4.21531-9.6179-4.79138-1.1006-.168-3.3864-.20138-4.4447-.06498-3.8759.49979-7.3581 2.18751-10.02145 4.85719-2.54001 2.54595-4.14418 5.73435-4.72224 9.38555-.16429 1.038-.16359 3.742.00128 4.7743.32596 2.0403 1.01483 4.0306 1.97515 5.7064 2.46456 4.3007 6.57786 7.2373 11.51536 8.2212 1.3149.262 2.3479.3431 3.8355.3007 2.3781-.0676 4.1051-.465 6.6718-1.5353l.9928-.414 1.217.6305c.93.4829 1.8587.9683 2.7862 1.4561.8631.4542 1.5928.8287 1.6216.8323s.0376-.0438.0195-.1052zm-12.754-6.6532c-1.491-.2994-3.3836-.8363-4.7667-1.3521-1.9036-.7098-5.7374-2.3799-5.8893-2.5655-.0778-.0951-.4712-1.3682-.6734-2.1792-.3634-1.4581-.67468-3.1379-.87516-4.7234-.15564-1.2305-.28688-3.9835-.22482-4.7139l.04804-.565.90644-.5892c2.1108-1.3718 4.5396-2.7403 6.0069-3.3847 1.4924-.6553 2.408-.9422 3.1203-.9778 1.075-.0537 3.1912.1761 5.166.5608 1.9655.3829 5.0163 1.1812 5.2009 1.3609.1245.1211.5633 1.2871.8153 2.1662.7447 2.5986 1.2536 6.3738 1.2536 9.2995v1.2l-.4545.4273c-1.361 1.2795-4.6093 3.6509-6.7002 4.8915-.9059.5375-2.2571 1.2749-2.3196 1.2658-.0205-.0029-.2967-.0575-.6138-.1212zm58.5557 3.717c-1.7116-4.204-3.1313-7.6939-3.1546-7.7553-.0399-.1048.0753-.1117 1.8744-.1117h1.9168l2.0131 5.3607c1.1073 2.9483 2.0276 5.3608 2.0452 5.3609.0176.0002.9364-2.4121 2.0419-5.3606l2.0098-5.361h1.8793c1.7958 0 1.8771.0051 1.8331.117-.0252.0643-1.4438 3.5534-3.1524 7.7535l-3.1065 7.6366-1.5439.0018-1.5441.0018zm39.5323 7.4693c-.149-.3875-5.246-15.2402-5.246-15.2867 0-.0273.831-.0496 1.847-.0496h1.847l1.594 5.1369c.877 2.8252 1.613 5.1159 1.636 5.0904.023-.0256.812-2.3515 1.753-5.1688l1.71-5.1224h2.989l1.711 5.1224c.941 2.8172 1.729 5.1431 1.752 5.1685.023.0253.595-1.7412 1.272-3.9256.531-1.7124 1.062-3.4246 1.594-5.1366l.363-1.1648h1.816c.998 0 1.815.0076 1.815.0171 0 .0192-4.66 13.5677-5.071 14.7434l-.262.75h-3.026l-1.722-4.9308c-.947-2.712-1.74-4.9511-1.761-4.9759-.022-.0247-.822 2.187-1.777 4.9149l-1.737 4.96-1.515.0171-1.514.0171-.068-.1767zm-70.8982-7.6129v-7.7234l4.0192.0003c4.3448.0002 4.6605.0197 5.6735.3492 2.2792.7414 3.4884 2.5813 3.354 5.1029-.0657 1.2309-.4727 2.2655-1.2047 3.0616-.4745.516-.8961.8269-1.5715 1.1592l-.5258.2587 1.861 2.6776c1.0235 1.4728 1.8748 2.7136 1.8918 2.7575.0244.0628-.3975.0798-1.9802.0798h-2.0112l-1.691-2.4894-1.6912-2.4894h-2.6652v4.9788h-3.4587zm7.558-.3234c.8587-.1385 1.5019-.5801 1.8064-1.2404.1207-.2618.1472-.4281.1472-.9255 0-.5375-.0208-.6485-.1826-.9771-.2307-.4681-.6652-.821-1.2467-1.0124-.3987-.1313-.5725-.1427-2.5259-.1661l-2.0977-.0252v4.4148l1.8415-.0005c1.0128-.0003 2.0288-.0307 2.2578-.0677zm8.5829.323v-7.7238l4.591.0164 4.5912.0164.4969 1.4043c.2733.7723.4987 1.4544.501 1.5159.0038.105-.1973.1117-3.3587.1117h-3.3627v3.0638h7.3682l-.0171 1.516-.0172 1.516-3.6669.0164-3.667.0165v3.1905h8.4548v3.0638h-11.9135zm30.1041.0014v-7.7244h3.4592l-.0162 7.7075-.0163 7.7074-1.7134.017-1.7133.017v-7.7244zm7.2172 7.6802c-.024-.0236-.044-3.4993-.044-7.7237v-7.6809h9.197l.518 1.4841c.286.8162.506 1.5055.491 1.5319-.016.0263-1.54.0478-3.388.0478h-3.359v3.0639h7.366v3.0638h-7.366v3.1915h8.521l-.017 1.516-.017 1.5159-5.93.0163c-3.261.0089-5.949-.003-5.972-.0266zm-16.4086-19.5596c-1.5134-.1841-3.032-.7927-4.1828-1.6762-.8101-.6218-1.7098-1.7087-2.174-2.6262-.575-1.1363-.8125-2.1904-.8128-3.6064 0-1.0928.0445-1.4165.3236-2.3487.8301-2.772 3.1534-4.83497 6.1735-5.48157.7823-.16749 2.8792-.16634 3.6483.00204 3.5702.78166 6.0345 3.44443 6.4143 6.93053.4514 4.1439-2.3031 7.8375-6.4769 8.6851-.778.1581-2.1443.2149-2.9132.1214zm2.4293-3.276c1.5077-.4178 2.6374-1.5306 3.1483-3.1009.1579-.4854.1771-.6401.1818-1.4681.0061-1.0883-.0743-1.4615-.5022-2.3298-.6075-1.2328-1.6981-2.1107-3.027-2.4367-.5846-.1434-1.7008-.1425-2.2943.0019-.712.1733-1.4406.5677-1.9857 1.0749-.5878.5472-.9846 1.1692-1.2541 1.9663-.3676 1.0874-.3306 2.4696.0944 3.5182.5931 1.4633 1.7932 2.4836 3.3376 2.8377.5007.1147 1.7859.0793 2.3012-.0635zm32.5103 3.2738c-3.476-.2072-5.602-2.1663-6.018-5.5432-.041-.33-.067-2.402-.067-5.3139v-4.77292h3.459v4.58742c0 5.133.014 5.3359.416 6.1848.418.8837 1.128 1.4347 2.114 1.642 1.605.3373 3.156-.2963 3.747-1.5313.415-.8657.405-.7304.432-6.0479l.024-4.83508h3.459l-.024 5.02658c-.023 4.8368-.029 5.049-.159 5.6183-.375 1.6432-1.025 2.7855-2.041 3.5906-1.35 1.0688-3.108 1.5279-5.342 1.3947zm17.014.009c-1.738-.2193-3.34-.961-4.55-2.1063-1.168-1.1051-1.948-2.4987-2.287-4.0859-.186-.8687-.203-2.4243-.036-3.267.338-1.7034 1.019-2.968 2.248-4.16918.807-.78893 1.487-1.24647 2.424-1.63085 1.14-.46781 2.029-.63191 3.434-.63383 1.957-.00274 3.479.4186 4.844 1.34081.49.33128 1.217.94621 1.217 1.02957 0 .07156-2.1 2.46928-2.168 2.47498-.029.0024-.202-.1202-.384-.2726-1.901-1.5929-4.23-1.8785-6.004-.7363-1.854 1.1945-2.602 3.7331-1.77 6.0074.462 1.2639 1.512 2.296 2.754 2.7084.48.1593.611.1747 1.487.1748.911 0 .991-.0104 1.547-.2012.701-.2407 1.337-.6079 1.995-1.1523l.486-.4019 1.112 1.104 1.112 1.1039-.481.4556c-1.262 1.1947-2.52 1.8503-4.142 2.1593-.641.122-2.218.1769-2.838.0986zm-89.0072-7.9193v-7.72693l3.8591.02208 3.859.02209.6162.16723c2.6237.71222 4.0416 2.52153 4.0416 5.15753 0 2.5785-1.4133 4.3948-3.9924 5.1312-.8553.2441-1.4064.2944-3.232.2944h-1.6928v4.6596h-3.4587zm7.0872-.0854c1.1341-.3008 1.7663-1.1061 1.7593-2.2407-.0035-.578-.0616-.8211-.287-1.2022-.2106-.3559-.4517-.5732-.8634-.7783-.5382-.2682-1.1504-.3446-2.7802-.3471l-1.4572-.0022v4.6596l1.6494-.0008c1.1919-.0006 1.7407-.025 1.9791-.0883zm7.6446.0857v-7.72672l4.2754.02292c4.1238.02202 4.2937.0277 4.7928.15931 1.7369.45805 2.8608 1.27309 3.4745 2.51969.4163.8455.4877 1.1987.4877 2.4112 0 .8109-.0262 1.1486-.1138 1.4681-.3777 1.3765-1.3722 2.5231-2.7335 3.1515l-.4344.2005 1.8821 2.7123c1.0351 1.4917 1.8824 2.7338 1.8831 2.7601.0006.0263-.9007.0479-2.0026.0479h-2.0034l-1.688-2.4906-1.688-2.4907-1.3206.0173-1.3206.0172-.0167 2.4734-.0168 2.4734h-3.4572zm7.6583-.3218c.7914-.1453 1.4364-.5954 1.7156-1.1973.112-.2414.1377-.4165.1377-.9396 0-.5893-.0161-.6741-.1934-1.0194-.2382-.4643-.6651-.8061-1.2478-.9989-.3844-.1274-.5771-.1399-2.514-.1645l-2.0977-.0266v4.4161h1.9098c1.1073 0 2.0695-.0294 2.2898-.0698zm26.6568 8.011c-.0262-.0262-.0477-3.5057-.0477-7.7322v-7.68449l3.763.02426c3.591.02317 3.791.03064 4.384.16391.342.07686.875.2289 1.185.33786 3.661 1.28674 5.673 4.77866 4.98 8.64376-.489 2.7282-2.5 4.9465-5.281 5.8241-1.261.398-1.478.416-5.38.4444-1.9557.0143-3.577.0046-3.6033-.0215zm7.4783-3.2452c.211-.06.629-.2259.929-.3688.438-.2089.645-.3613 1.06-.7776.584-.5872.898-1.1225 1.128-1.9248.208-.7229.209-2.0117.003-2.729-.468-1.6315-1.529-2.6695-3.184-3.1163-.448-.121-.728-.1421-2.226-.1679l-1.713-.0294v9.2806l1.809-.029c1.447-.0231 1.887-.0507 2.194-.1378zm46.277-2.8768v-6.1596h-4.74v-3.12768h12.939v3.12768h-4.74v12.3191h-3.459z" fill="#a6d39d"/><path d="m52.3616 57.0108c-2.3624-.3623-3.9999-2.3956-3.8535-4.7851.0443-.7229.1687-1.2156.4595-1.8191.4149-.8614 1.1618-1.6054 2.0398-2.032.76-.3693 1.1675-.4522 2.2189-.4517 1.042.0005 1.548.0944 2.2139.4111.4288.2039 1.1715.7295 1.2241.8661.0258.0668-1.0977 1.4298-1.1785 1.4298-.0128 0-.1737-.1132-.3576-.2516-.184-.1384-.5358-.3466-.7819-.4628-.4221-.1991-.4875-.2111-1.152-.2111-.6304 0-.7431.018-1.0708.1711-2.0585.9615-2.1166 4.1327-.094 5.1267 1.0171.4998 2.1504.3283 3.1776-.4809l.3408-.2684.6166.6183.6166.6184-.4324.4039c-.4968.4641-1.2588.871-1.9111 1.0206-.5405.124-1.5818.1725-2.076.0967zm9.2448-.0341c-1.7851-.3218-3.0681-1.4119-3.6403-3.0928-.2173-.6383-.2506-1.7815-.0725-2.49.4182-1.6634 1.6202-2.8714 3.3391-3.3557.5789-.1631 2.0347-.1636 2.6261-.0008 1.5887.4372 2.751 1.5129 3.2493 3.0075.1518.4551.1702.6077.1703 1.4042 0 .7895-.0189.9506-.1639 1.3829-.2556.7617-.5921 1.3057-1.1387 1.8405-.5638.5518-1.0258.8433-1.7299 1.0916-.8684.3063-1.7337.376-2.6395.2126zm1.9322-1.8716c.6872-.2611 1.2758-.8633 1.5665-1.6028.1514-.3852.2015-1.2315.0985-1.6669-.1665-.7039-.5342-1.2685-1.0794-1.6576-.8554-.6104-2.0955-.6705-2.9968-.1452-.3944.23-.8381.7375-1.0627 1.216-.1708.3636-.203.515-.227 1.0674-.0234.5395-.0057.7091.1094 1.0477.3225.9481.9736 1.5711 1.9261 1.8431.4023.1149 1.2282.0645 1.6654-.1017zm33.4347 1.9093c-1.3289-.1651-2.2775-.7798-2.7828-1.8032-.3968-.8036-.4174-1.0138-.4187-4.278l-.0011-2.9203h1.9216v2.6372c0 1.6298.0267 2.781.0698 3.0134.1976 1.0653.8271 1.5846 1.9247 1.5879.4896.0014.5965-.0203.9261-.1882.2297-.1171.4528-.2948.5818-.4633.3927-.513.4047-.6251.4047-3.7581v-2.8289h1.9936l-.024 3.016c-.025 3.3172-.028 3.3383-.444 4.1968-.392.807-1.2673 1.4671-2.2343 1.6849-.5415.1219-1.398.1683-1.9174.1038zm-51.5612-1.1185v-.9893h2.0496v1.9787h-2.0496zm23.6989-3.4483v-4.4378l1.0701.0176 1.0701.0175 1.1617 1.8413c.639 1.0127 1.1809 1.8457 1.2044 1.8511.0234.0053.5686-.8233 1.2114-1.8414l1.1688-1.851 1.0724-.0175 1.0723-.0176v8.8755h-1.9856v-5.7766l-1.2648 1.8972c-.6957 1.0435-1.2793 1.8972-1.2969 1.8972-.0177-.0001-.5941-.8395-1.2811-1.8653l-1.249-1.8653-.0166 2.8564-.0167 2.8564h-1.9202v-4.4377zm10.9528 3.4483v-.9893h2.0496v1.9787h-2.0496zm3.2485.8793c.0237-.0623.886-2.0665 1.9162-4.4537l1.8732-4.3405h1.8268l1.9052 4.4043c1.0478 2.4223 1.9068 4.4257 1.9087 4.4521.0019.0263-.4527.0479-1.0102.0479h-1.0136l-.407-.9903-.407-.9903-1.9199.0169-1.92.0169-.3996.9574-.3995.9575-.9983.0175c-.9335.0164-.9954.0102-.955-.0957zm5.8467-3.6388c0-.0636-1.0989-2.7178-1.1499-2.7774-.0313-.0365-.5687 1.1952-1.2093 2.7716-.0117.0289.5143.0526 1.1689.0526.6548 0 1.1903-.0211 1.1903-.0468zm-54.5645-10.8673-5.7254-2.992-.3274.1308c-3.9594 1.5813-8.5566 1.8846-12.7386.8403-3.6404-.9091-6.86714-2.7005-9.51758-5.284-3.43923-3.3523-5.429177-7.4132-6.038881-12.3236-.10229-.8237-.10229-3.453 0-4.2766.325188-2.6189.953211-4.7316 2.061741-6.9356 1.73285-3.44522 4.30207-6.23905 7.59578-8.2599 6.90234-4.23504 15.62464-4.086319 22.44144.3826 4.8568 3.18395 8.0699 8.211 8.9783 14.047.1878 1.2062.2331 3.7556.0892 5.0106-.4054 3.5341-1.6984 6.8849-3.7601 9.7439-.2066.2864-.3755.5613-.3755.6111s.7062 2.8253 1.5693 6.1678c.8631 3.3424 1.5693 6.0906 1.5693 6.107s-.0217.0281-.0481.0261c-.0264-.0019-2.6245-1.35-5.7735-2.9955zm-.6148-7.1221c-.4073-1.5775-.7533-2.9112-.7689-2.9638-.0159-.0539.2549-.459.6189-.9256.7487-.96 1.5256-2.1065 1.9374-2.8594.8836-1.6155 1.5471-3.5852 1.8747-5.5661.1647-.9961.1647-3.6451 0-4.6915-.7632-4.8463-3.3873-8.92927-7.4552-11.59978-4.1136-2.70045-9.3494-3.4756-14.1588-2.09611-4.7988 1.37649-8.81437 4.90724-10.80566 9.50109-2.30059 5.3074-1.64112 11.477 1.72772 16.1629 2.18504 3.0392 5.34764 5.279 8.99864 6.3726 1.6493.494 3.1102.7015 4.9319.7002 2.5176-.0019 4.1475-.3417 6.8967-1.4381l1.2921-.5153 2.8072 1.4641c1.5438.8053 2.8154 1.4324 2.8255 1.3936.0101-.0389-.3149-1.3613-.7222-2.9388zm-12.715-3.9515c-2.7526-.632-5.7874-1.74-9.0473-3.3032l-.9449-.4532-.2193-.6758c-.4101-1.2647-.836-3.1287-1.12394-4.9205-.26517-1.6503-.33466-2.5106-.36598-4.5319l-.03113-2.0107.59805-.3903c3.3663-2.1973 5.9815-3.5789 8.1562-4.3089l.8326-.2795.8647.0134c2.0746.0319 4.5826.4283 7.6167 1.2039 1.1905.3044 2.1859.5949 2.2612.66.0252.0219-2.0789 1.2292-4.6758 2.6828-2.5969 1.4537-4.7295 2.6482-4.7389 2.6544-.0095.0062.4589 3.1053 1.0408 6.8869.582 3.7815 1.0581 6.9022 1.0581 6.9349 0 .0997-.3115.0603-1.2811-.1623zm59.2154 3.8201c-1.0538-2.5852-2.1071-5.1707-3.1598-7.7564-.0118-.0301.8385-.0542 1.8895-.0536l1.9108.0012 2.0176 5.3603c1.1097 2.9481 2.0322 5.3604 2.0499 5.3605.0178.0001.94-2.4125 2.0494-5.3614l2.017-5.3617h3.7298l-1.8258 4.484c-1.0042 2.4662-2.4221 5.949-3.1509 7.7394l-1.3251 3.2553-1.5319.017-1.532.017zm39.5819 7.6197c-.064-.1729-5.205-15.1527-5.247-15.2872l-.044-.1436h3.692l1.601 5.1666c.881 2.8417 1.619 5.1468 1.641 5.1224s.815-2.3638 1.761-5.1986l1.721-5.1542h2.948l1.721 5.1542c.946 2.8348 1.739 5.1739 1.761 5.1979.022.0239.76-2.2811 1.64-5.1224l1.6-5.1659h3.618l-.609 1.7713c-.889 2.5855-1.778 5.171-2.667 7.7564l-2.058 5.9852-1.511-.0171-1.51-.0171-1.707-4.8814c-.939-2.6846-1.733-4.9221-1.764-4.972-.04-.0625-.52 1.2298-1.552 4.1793-.822 2.3484-1.609 4.593-1.749 4.9879l-.255.7181h-1.501c-1.142 0-1.507-.0191-1.53-.0798zm-70.935-7.7394v-7.6915l3.9872.0003c3.2.0002 4.1017.0188 4.5674.094 1.3499.2182 2.332.6785 3.1403 1.4717.4354.4272.5716.6136.8168 1.117.4257.8741.5162 1.3072.513 2.4553-.0025.8534-.0216 1.0197-.1765 1.5302-.4176 1.3764-1.2052 2.3001-2.517 2.9515-.4832.24-.5793.3112-.5325.3949.0314.0562.876 1.2798 1.8768 2.7192l1.8197 2.617-1.9591.0168c-1.0775.0094-1.9897.0053-2.027-.009-.0374-.0143-.8104-1.1206-1.7179-2.4584l-1.6501-2.4324h-2.6823v4.9149h-3.4588zm7.6584-.2932c.7915-.1453 1.4364-.5954 1.7156-1.1973.1118-.241.1376-.4166.1376-.9351 0-.5693-.0192-.6774-.1787-1.0008-.2929-.5945-.7875-.9432-1.5735-1.1091-.3114-.0658-.9447-.0902-2.3631-.0911l-1.9375-.001v4.4042h1.9097c1.1074 0 2.0695-.0293 2.2899-.0698zm8.4825.2928v-7.6919l4.5874.0164 4.5872.0164.4639 1.3404c.2551.7373.4843 1.4051.5091 1.4841l.0452.1436h-6.734v3.1265l3.6669.0165 3.667.0165.0187 1.484.0186 1.4841h-7.3712v3.2553h8.4548v3h-11.9136zm30.1041.0004v-7.6915h3.4588v15.383h-3.4588zm7.174 0v-7.6915l4.595.0005 4.596.0004.518 1.4996.518 1.4996h-6.768v3.1277h7.365v3h-7.365v3.2553h8.454v3h-11.913v-7.6915zm-15.981-11.8156c-3.3495-.3425-5.867-2.1329-7.0124-4.9869-.3814-.9506-.5325-1.7745-.5356-2.9209-.0037-1.4337.2379-2.4659.8594-3.6702 1.3983-2.70982 4.1991-4.33972 7.4572-4.33972 2.7671 0 5.2034 1.17122 6.7442 3.24202 1.0082 1.3551 1.5046 2.8941 1.5067 4.6722.0029 2.2609-.7997 4.1778-2.3882 5.7038-1.5068 1.4475-3.389 2.2173-5.6196 2.2985-.4155.015-.8708.0156-1.0117.0012zm1.9273-3.2801c1.3512-.3403 2.3596-1.1518 2.9746-2.3936.352-.7107.4567-1.1519.4926-2.0745.0378-.9705-.1026-1.665-.498-2.4628-.5911-1.1926-1.5352-1.9783-2.8812-2.3976-.6888-.2146-1.9313-.2146-2.6238-.0001-1.5425.4778-2.5865 1.4983-3.1116 3.0413-.2344.6889-.2918 1.9319-.1241 2.6894.4276 1.9318 1.8061 3.2753 3.7801 3.6842.3952.0819 1.5168.0332 1.9914-.0863zm49.7297 3.251c-3.065-.3351-5.593-2.302-6.62-5.151-.606-1.6802-.606-3.8388 0-5.5192.946-2.62291 3.077-4.44525 5.931-5.0711.738-.16187 2.905-.1627 3.711-.0014.785.15683 1.465.3863 2.141.72255.601.2986 1.504.93485 1.861 1.31107l.203.21338-1.091 1.2308-1.091 1.2309-.201-.1629c-.868-.7058-1.783-1.2115-2.538-1.4019-2.615-.65984-5.031.8199-5.642 3.4549-.116.4978-.133.7229-.106 1.4076.038.966.139 1.3747.539 2.1872.574 1.1655 1.699 2.0579 2.941 2.3332.719.1595 1.924.1035 2.62-.1216.635-.2051 1.327-.6049 1.991-1.1501l.507-.4168 1.073 1.0653c.59.586 1.073 1.1 1.073 1.1422 0 .1096-1.097 1.0627-1.66 1.4419-.875.5894-1.826.9622-2.954 1.1571-.723.125-2.011.172-2.688.0979zm-17.902-.0849c-.836-.1378-1.304-.2866-2.068-.6574-.599-.2909-.816-.4383-1.267-.8645-1.075-1.0136-1.618-2.1499-1.855-3.8783-.073-.531-.092-1.6548-.093-5.4095l-.001-4.7394h3.458v4.654c0 3.744.018 4.7455.091 5.1223.334 1.7324 1.338 2.626 3.048 2.7153 1.809.0943 2.944-.6903 3.438-2.3746.102-.347.114-.8403.133-5.25l.022-4.867h3.46l-.026 4.9628c-.028 5.3991-.028 5.3999-.408 6.5585-.341 1.0398-.782 1.7443-1.537 2.4574-.782.739-1.677 1.1949-2.9 1.4783-.714.1653-2.729.2184-3.495.0921zm-71.1663-.1608c-.0147-.0147-.0267-3.4848-.0267-7.7116v-7.68487l3.8271.02451c3.6535.0233 3.8505.03064 4.3445.16002 1.2064.31615 2.0566.76398 2.747 1.44683.5105.5049.848 1.02561 1.0995 1.69601.2827.7533.3679 1.3655.3263 2.3442-.0628 1.476-.4583 2.4132-1.4211 3.3685-.6749.6697-1.2775 1.0375-2.2087 1.3484-.9611.3208-1.7261.4069-3.6139.4069h-1.6404l-.0168 2.3012-.0167 2.3011-1.6867.0127c-.9277.007-1.6987.0007-1.7134-.0139zm6.6457-7.6652c.9855-.1421 1.6677-.6017 2.0087-1.3535.1534-.3383.1825-.4871.1841-.9441.0026-.6959-.1362-1.1081-.514-1.5268-.6105-.6766-1.2397-.8323-3.3712-.8338l-1.5212-.0011v4.7234l1.3931-.0012c.7663-.0007 1.5854-.029 1.8205-.0629zm8.086 7.6652c-.0146-.0147-.0266-3.483-.0266-7.7075v-7.6808h3.915c3.1953 0 4.037.01807 4.5794.0983 2.324.34391 3.8291 1.54774 4.3903 3.5117.1219.4265.1451.6641.1465 1.4964.0014.8438-.0198 1.0639-.1449 1.4963-.402 1.3909-1.269 2.408-2.6184 3.0718l-.5285.26 1.881 2.7083c1.0346 1.4895 1.8703 2.7196 1.8571 2.7335-.0457.048-3.9661-.0014-4.0163-.0507-.0277-.0273-.7803-1.1242-1.6724-2.4376l-1.6221-2.388-1.354-.0172-1.3539-.0173v4.9494h-1.7027c-.9365 0-1.7146-.012-1.7293-.0266zm7.6621-7.9845c.7505-.1419 1.3137-.5197 1.6342-1.0962.1768-.3181.1887-.3837.1887-1.0417 0-.6386-.0155-.7315-.172-1.027-.192-.3626-.5021-.6613-.8923-.8597-.5021-.2553-1.0933-.3154-3.1046-.3154h-1.8839v4.4043h1.9448c1.0696 0 2.098-.029 2.2851-.0644zm26.6064 7.9855c-.0518-.0516-.0245-15.23247.0275-15.31379.0437-.06836.7386-.07927 3.7306-.05872 3.521.02432 3.703.0314 4.317.16806 1.711.38119 2.937 1.00628 4.037 2.05858 1.539 1.47257 2.276 3.22097 2.275 5.40327 0 2.1302-.645 3.8047-2.02 5.2411-1.422 1.4863-3.347 2.359-5.445 2.4686-.812.0425-6.8836.0713-6.9221.0329zm7.6261-3.2567c1.022-.3358 1.736-.8151 2.271-1.5243.917-1.215 1.16-3.0561.612-4.6297-.358-1.0302-1.098-1.8746-2.065-2.3567-.937-.4677-1.3-.5262-3.27-.5262h-1.683l-.014 4.6167-.014 4.6166 1.858-.0246c1.73-.0228 1.888-.0345 2.305-.1718zm46.325 3.2621-.176-.0202v-12.2468h-4.74v-3.1277h12.939v3.1277h-4.739l-.017 6.1358-.016 6.1358-1.537.0078c-.846.0043-1.617-.0013-1.714-.0124z" fill="#919296"/><path d="m34.5945 42.2691-5.7254-2.992-.3274.1308c-3.9594 1.5813-8.5566 1.8846-12.7386.8403-3.6404-.9091-6.86714-2.7005-9.51758-5.284-3.43923-3.3523-5.429177-7.4132-6.038881-12.3236-.10229-.8237-.10229-3.453 0-4.2766.325188-2.6189.953211-4.7316 2.061741-6.9356 1.73285-3.44522 4.30207-6.23905 7.59578-8.2599 6.90234-4.23504 15.62464-4.086319 22.44144.3826 4.8568 3.18395 8.0699 8.211 8.9783 14.047.1878 1.2062.2331 3.7556.0892 5.0106-.4054 3.5341-1.6984 6.8849-3.7601 9.7439-.2066.2864-.3755.5613-.3755.6111s.7062 2.8253 1.5693 6.1678c.8631 3.3424 1.5693 6.0906 1.5693 6.107s-.0217.0281-.0481.0261c-.0264-.0019-2.6245-1.35-5.7735-2.9955zm-.6148-7.1221c-.4073-1.5775-.7533-2.9112-.7689-2.9638-.0159-.0539.2549-.459.6189-.9256.7487-.96 1.5256-2.1065 1.9374-2.8594.8836-1.6155 1.5471-3.5852 1.8747-5.5661.1647-.9961.1647-3.6451 0-4.6915-.7632-4.8463-3.3873-8.92927-7.4552-11.59978-4.1136-2.70045-9.3494-3.4756-14.1588-2.09611-4.7988 1.37649-8.81437 4.90724-10.80566 9.50109-2.30059 5.3074-1.64112 11.477 1.72772 16.1629 2.18504 3.0392 5.34764 5.279 8.99864 6.3726 1.6493.494 3.1102.7015 4.9319.7002 2.5176-.0019 4.1475-.3417 6.8967-1.4381l1.2921-.5153 2.8072 1.4641c1.5438.8053 2.8154 1.4324 2.8255 1.3936.0101-.0389-.3149-1.3613-.7222-2.9388zm-12.5869-3.9492c-2.8158-.6402-5.4675-1.595-9.0384-3.2542l-1.064-.4944-.2317-.7447c-.3294-1.0583-.5174-1.801-.7706-3.0426-.50852-2.4946-.67544-3.9787-.7254-6.4502l-.03747-1.8545.24929-.1944c.31088-.2424 1.88898-1.2392 3.03858-1.9192 2.1756-1.2868 3.7475-2.0498 5.3451-2.5946l.9608-.3275.8647.0134c2.0746.0319 4.5826.4283 7.6167 1.2039 1.1905.3044 2.1859.5949 2.2612.66.0252.0219-2.0789 1.2292-4.6758 2.6828-2.5969 1.4537-4.7333 2.652-4.7475 2.6629-.0235.0181 2.0116 13.3996 2.0881 13.7291.0432.1869.0126.1848-1.1336-.0758zm62.2209 11.4375c-.018-.0439-1.4378-3.5266-3.155-7.7393l-3.1222-7.6596 1.8559-.017c1.0207-.0093 1.8759.0051 1.9005.0319.0246.0269.9487 2.4545 2.0537 5.3947 1.1049 2.9401 2.0235 5.3457 2.0413 5.3457.0177 0 .9428-2.4199 2.0558-5.3776l2.0233-5.3777 1.8356-.017c1.0095-.0093 1.8355-.0028 1.8355.0143s-1.3721 3.3997-3.0492 7.5169-3.0926 7.5935-3.1455 7.7252l-.0963.2393h-1.5002c-1.14 0-1.5082-.0191-1.5331-.0798zm35.5943-2.5531c-.498-1.4482-1.696-4.9309-2.661-7.7394l-1.755-5.1064 1.799-.017c.989-.0093 1.818.0051 1.842.0319.023.0269.76 2.3662 1.637 5.1985.876 2.8322 1.609 5.1353 1.626 5.1178.018-.0173.814-2.3633 1.768-5.2133l1.735-5.1817h2.925l1.734 5.1817c.954 2.85 1.749 5.1957 1.767 5.2128.018.0172.755-2.3003 1.638-5.1498l1.605-5.1809 1.773-.017c1.398-.0134 1.773.0002 1.77.0639-.002.0444-1.191 3.5276-2.643 7.7403l-2.64 7.6596-1.481.0171c-1.366.0158-1.484.0083-1.525-.0957-.025-.0621-.808-2.2958-1.741-4.9639s-1.718-4.8737-1.745-4.9013c-.028-.0275-.84 2.2057-1.805 4.9628l-1.756 5.0129h-2.961zm-70.081-5.1904v-7.6957l4.1794.0251c3.9332.0236 4.2133.0328 4.7558.1561 2.21.5022 3.5311 1.7181 3.9668 3.651.1358.6027.1422 1.857.0125 2.4766-.1148.549-.3353 1.1096-.6259 1.5913-.4341.7193-1.3756 1.4927-2.2483 1.8466-.1672.0678-.3041.147-.3042.1759-.0002.0288.8356 1.2571 1.8572 2.7295 1.0216 1.4723 1.8575 2.691 1.8575 2.7081s-.8889.0311-1.9752.0311h-1.9752l-1.6597-2.4542-1.6597-2.4545-1.3611-.0031-1.3611-.0032v4.9149h-3.4588zm7.763-.2911c.7439-.1572 1.3157-.5767 1.5985-1.1723.1567-.33.1821-.4612.1821-.9397.0001-.7386-.1513-1.1478-.5684-1.5366-.6713-.6257-.9595-.6817-3.5148-.6829l-2.0016-.0009v4.4042h1.9824c1.2239 0 2.1124-.0274 2.3218-.0718zm8.3779.2952v-7.6915h9.1432l.5122 1.4841.5123 1.484-3.3865.0165-3.3864.0166v3.1265h7.3658v3h-7.3658v3.2553h8.5188v3h-11.9136zm30.1041 0v-7.6915h3.3947v15.383h-3.3947zm7.238-.0004v-7.692l4.555.0164 4.555.0164.464 1.3404c.255.7372.484 1.4051.509 1.4841l.046.1436h-6.734v3.1266l3.666.0165 3.667.0164.018 1.4841.017 1.484h-7.368v3.2553h8.454v3h-11.849zm-16.9417-11.9617c-3.4498-.6431-5.9542-3.0881-6.5315-6.3763-.1253-.7137-.1253-2.0706 0-2.7968.4992-2.8953 2.6081-5.28386 5.4508-6.17352.9781-.30613 1.5688-.38808 2.7781-.3854.9025.00204 1.2487.02968 1.7764.14189 3.8803.82494 6.4207 3.89843 6.4219 7.76963.0008 2.1405-.7649 4.0296-2.2353 5.5159-1.1124 1.1244-2.5414 1.8961-4.2015 2.2691-.7283.1638-2.6644.1835-3.4588.0354zm2.8502-3.1117c1.1489-.2844 2.2012-1.0652 2.8096-2.0848.6345-1.0632.8405-2.4882.5483-3.7929-.3936-1.7583-1.8269-3.1877-3.5717-3.5624-.7272-.1562-1.819-.1037-2.5083.1205-1.3251.4311-2.3909 1.4478-2.8828 2.7502-.6239 1.6517-.3536 3.5493.7035 4.9395.7151.9403 1.8833 1.5876 3.1721 1.7576.3732.0492 1.2874-.0183 1.7293-.1277zm32.1085 3.1632c-2.568-.2978-4.357-1.6534-5.119-3.8772-.428-1.2499-.424-1.1809-.454-6.6962l-.027-4.9947h3.463l.018 4.9309.019 4.9308.177.4997c.403 1.1354 1.071 1.7763 2.141 2.054.48.1247 1.549.1233 2.034-.0026 1.182-.3066 1.974-1.1804 2.24-2.4686.087-.4226.101-1.1594.101-5.2181v-4.7261h3.395l-.001 4.8351c-.001 5.2443-.015 5.5113-.355 6.5907-.751 2.3842-2.469 3.7581-5.153 4.1194-.73.0983-1.749.1077-2.48.0229zm17.252 0c-1.623-.2361-3.257-1.0429-4.402-2.1728-1.496-1.4772-2.3-3.4608-2.3-5.6748 0-2.9073 1.42-5.44248 3.843-6.85758 2.498-1.45947 6.207-1.47524 8.728-.03715.585.33364 1.619 1.16725 1.608 1.29708-.004.05407-.477.62935-1.051 1.27845l-1.043 1.1802-.472-.3745c-1.172-.9274-2.239-1.3327-3.511-1.3327-.79 0-1.314.1182-2.012.4542-.436.21-.643.3648-1.089.8112-.627.6292-.903 1.0595-1.163 1.8117-.571 1.6554-.288 3.522.742 4.887.939 1.245 2.521 1.8849 4.145 1.6772 1.115-.1425 1.935-.5116 2.948-1.3267l.515-.4139 1.079 1.074 1.079 1.074-.368.3735c-.865.8784-2.264 1.7241-3.346 2.0223-1.07.2949-2.844.4074-3.93.2492zm-88.752-7.8766v-7.6915h3.2919c3.3853 0 4.2322.04258 5.0647.25475 1.1232.28627 1.7788.65381 2.5642 1.43744.6589.65745.9498 1.14321 1.2229 2.04181.1585.5217.1746.6685.1755 1.5958.0007.854-.022 1.1042-.1389 1.5282-.3972 1.4411-1.2756 2.4831-2.6701 3.1674-1.195.5864-2.2584.7618-4.617.7618h-1.4344v4.5958h-3.4588zm6.8606.0306c.8299-.1569 1.5255-.6593 1.8409-1.3297.1481-.3148.1696-.4417.1696-1.0002 0-.5944-.0149-.6698-.211-1.0668-.2319-.4693-.509-.7363-1.006-.9692-.5335-.25-.9094-.2924-2.5972-.2924h-1.5981v4.7234h1.5285c.8406 0 1.6836-.0293 1.8732-.0651zm7.9353-.0351v-7.69613l4.1153.02605c3.9731.02521 4.1374.03102 4.7558.16857 2.4388.54255 3.8048 1.9747 4.0693 4.26661.0579.5024.0579.8062 0 1.3085-.2111 1.8289-1.1062 3.1009-2.7352 3.8866-.2934.1415-.5335.2705-.5335.2865s.8359 1.2336 1.8575 2.7057 1.8575 2.6916 1.8575 2.71c0 .0185-.8879.0336-1.9731.0336h-1.9732l-1.6617-2.455-1.6618-2.4551-1.3611-.0024-1.3611-.0024v4.9149h-3.3947v-7.6962zm8.1503-.3999c.49-.1959 1.0145-.6794 1.2045-1.1103.1192-.2701.1484-.4495.1484-.9108 0-.7204-.1543-1.1102-.6065-1.5317-.6445-.6008-1.0102-.6705-3.5196-.6705h-1.9824v4.4119l2.1937-.0206c2.1169-.02 2.2067-.0259 2.5619-.1679zm26.1171.4085v-7.6956l3.1867.00166c3.214.00166 4.012.03766 4.905.22162 3.303.67978 5.643 3.03172 6.164 6.19432.126.7645.095 2.1711-.062 2.8911-.667 3.042-2.85 5.1377-6.143 5.8963-.556.1283-.793.1371-4.32.161l-3.7307.0253zm7.3017 4.532c1.334-.3075 2.402-1.1243 2.971-2.273.164-.3319.341-.8046.392-1.0503.111-.528.125-1.7033.027-2.2384-.239-1.3039-1.155-2.521-2.327-3.0925-.898-.4381-1.067-.4648-3.129-.4939l-1.841-.0259v4.6221c0 2.5422.022 4.6443.048 4.6713s.797.0362 1.713.0202c1.271-.022 1.78-.0551 2.146-.1396zm46.437-2.9723v-6.1276h-4.74v-3.1277h12.939v3.1277h-4.74v12.2553h-3.459z" fill="#85ba2f"/><path d="m39.1976 44.64c-3.7833-1.9651-4.5975-2.4038-4.5636-2.4585.0208-.0333.0057-.041-.0334-.0169s-1.3416-.6194-2.8944-1.4301l-2.8232-1.4739-.4943.1884c-1.2672.4831-2.8439.913-4.1131 1.1216-1.2365.2032-1.9254.2546-3.4267.2553-1.6559.0008-2.6665-.0937-4.0993-.3833-5.7167-1.1553-10.66968-4.5936-13.64525-9.4723-.41761-.6847-1.29006-2.3909-1.32189-2.5851-.01153-.0702-.03888-.142-.06085-.1596-.06527-.052-.47756-1.1891-.7184-1.9811-1.109365-3.6483-1.108404-7.8733.00263-11.4844.12464-.4051.24096-.7868.25845-.8483.01755-.0614.05899-.1117.09223-.1117.03318 0 .04355-.0271.02293-.0603-.0556-.0897.36554-1.1213.90043-2.2056 1.04762-2.12382 2.35843-3.90607 4.13624-5.62373 5.40008-5.217451 13.21958-7.08747 20.48138-4.89805 2.078.62649 4.3375 1.73924 6.1142 3.01098 5.3044 3.79692 8.4923 9.9822 8.4934 16.4789.0007 4.3094-1.4158 8.4987-4.1223 12.1915l-.1637.2234.7352 2.8404c.4042 1.5622.9794 3.7883 1.2781 4.9468.2852 1.1066.5711 2.2129.8576 3.3192.1731.667.3102 1.2173.3046 1.2228-.0056.0056-.5442-.2673-1.197-.6064zm-4.4421-6.5686c-.1217-.4094-1.5127-5.8666-1.5127-5.9342 0-.0465.3531-.5417.7846-1.1005 1.4608-1.8918 2.2702-3.3718 2.9335-5.3643.5998-1.8011.8455-3.3133.8455-5.2021 0-1.8973-.244-3.3914-.8551-5.234-.1746-.5266-.3142-.983-.3102-1.0141.0041-.0312-.0187-.0743-.0504-.0958s-.1709-.2832-.3093-.5816c-2.1463-4.62955-6.2172-7.99331-11.201-9.25529-5.9316-1.50185-12.0964.18102-16.36926 4.46853-3.25067 3.26186-4.99728 7.68916-4.8474 12.28676.04381 1.3429.15308 2.1406.46777 3.4149.57262 2.3183 1.569 4.3544 3.09258 6.3192.53547.6904 1.9888 2.1487 2.69621 2.7053 4.2452 3.3403 9.7767 4.5214 14.988 3.2001.8622-.2187 1.6435-.4904 2.9247-1.0175l1.027-.4225 2.8121 1.4693c1.5465.8081 2.8355 1.4693 2.8642 1.4693.0288.0002.0375-.05.0192-.1114zm-13.3622-6.8737c-2.8158-.6402-5.4676-1.595-9.0384-3.2542l-1.064-.4944-.2318-.7447c-.3293-1.0583-.5174-1.801-.7705-3.0426-.50928-2.4979-.67549-3.9783-.72571-6.4627l-.03759-1.867.15333-.0051c.08436-.0028.1151-.0203.06835-.0389-.2067-.0823 3.79102-2.5188 5.67732-3.4602.959-.4787 1.8398-.8529 2.7664-1.1756.684-.2381.7968-.2584 1.5795-.2838 2.0086-.0653 5.4713.5107 8.9431 1.4876.5713.1608 1.0601.3133 1.0862.3389.0529.052-9.2857 5.3067-9.4337 5.3082-.0634.0007-.07.0161-.0205.0479.042.0269.5134 2.9177 1.1061 6.781.5681 3.7037 1.0491 6.813 1.069 6.9095.0457.2232.0477.2232-1.1271-.0439zm-1.2343-13.734c-.0213-.0212-.0766-.0235-.1228-.0051-.0511.0204-.0359.0356.0387.0386.0675.0028.1053-.0123.0841-.0335zm-.3202-.0638c-.0214-.0213-.0766-.0235-.1229-.0051-.051.0204-.0359.0355.0388.0386.0675.0027.1053-.0123.084-.0335zm-.3203-.0638c-.0213-.0213-.0766-.0235-.1228-.0051-.0511.0204-.0359.0355.0387.0386.0675.0027.1053-.0123.084-.0335zm-.5765-.1277c-.0213-.0213-.0766-.0235-.1228-.0051-.0511.0204-.0359.0355.0387.0386.0676.0028.1053-.0123.0841-.0335zm-.3202-.0638c-.0213-.0213-.0766-.0235-.1229-.0051-.051.0204-.0358.0355.0388.0386.0675.0027.1053-.0123.084-.0335zm-.3203-.0639c-.0213-.0212-.0766-.0234-.1228-.0051-.0511.0205-.0359.0356.0387.0387.0675.0027.1053-.0124.0841-.0336zm-.3202-.0638c-.0214-.0212-.0766-.0235-.1229-.0051-.051.0204-.0358.0356.0388.0386.0675.0028.1053-.0123.084-.0335zm-.2562-.0638c-.0214-.0213-.0766-.0235-.1229-.0051-.051.0204-.0358.0355.0388.0386.0675.0027.1053-.0123.084-.0335zm-.3203-.0638c-.0213-.0213-.0766-.0235-.1228-.0052-.0511.0205-.0359.0356.0387.0387.0675.0027.1053-.0124.0841-.0335zm-.3202-.0639c-.0214-.0212-.0766-.0235-.1229-.0051-.051.0204-.0359.0356.0388.0386.0675.0028.1053-.0123.084-.0335zm-.3203-.0638c-.0213-.0213-.0766-.0235-.1228-.0051-.0511.0204-.0359.0355.0387.0386.0675.0027.1053-.0123.084-.0335zm-.2562-.0638c-.0213-.0213-.0766-.0235-.1229-.0051-.051.0204-.0358.0355.0388.0386.0675.0027.1053-.0123.084-.0335zm-.3203-.0639c-.0213-.0212-.0766-.0235-.1227-.0051-.0512.0205-.036.0356.0386.0386.0676.0028.1053-.0123.0841-.0335zm-.3202-.0638c-.0213-.0213-.0766-.0235-.1228-.0051-.0511.0204-.0359.0356.0387.0386.0675.0028.1053-.0123.084-.0335zm-.3203-.0638c-.0213-.0213-.0766-.0235-.1228-.0051-.0511.0204-.0359.0355.0387.0386.0675.0027.1053-.0123.0841-.0335zm-.3202-.0639c-.0214-.0212-.0766-.0234-.1228-.0051-.0511.0205-.0359.0356.0387.0387.0675.0027.1053-.0124.084-.0336zm-.2562-.0638c-.0214-.0212-.0766-.0235-.1228-.0051-.0511.0204-.0359.0356.0387.0386.0675.0028.1053-.0123.084-.0335zm-.3203-.0638c-.0213-.0213-.0766-.0235-.1228-.0051-.0511.0204-.0359.0355.0387.0386.0675.0027.1053-.0123.084-.0335zm-.3202-.0638c-.0214-.0213-.0766-.0235-.1228-.0052-.0511.0205-.036.0356.0387.0387.0675.0027.1053-.0124.084-.0335zm-.3203-.0639c-.0213-.0212-.0766-.0235-.1228-.0051-.0511.0204-.0359.0356.0387.0386.0675.0028.1053-.0123.084-.0335zm-.2562-.0638c-.0213-.0213-.0766-.0235-.1228-.0051-.0511.0204-.0359.0355.0387.0386.0675.0027.1053-.0123.084-.0335zm-.3203-.0638c-.0213-.0213-.0766-.0235-.1227-.0051-.0512.0204-.036.0355.0386.0386.0675.0027.1053-.0123.0841-.0335zm-.3202-.0639c-.0213-.0212-.0766-.0235-.1228-.0051-.0511.0205-.0359.0356.0387.0386.0675.0028.1053-.0123.084-.0335zm-.3203-.0638c-.0213-.0212-.0766-.0235-.1228-.0051-.0511.0204-.0359.0356.0387.0386.0675.0028.1053-.0123.0841-.0335zm-.2562-.0638c-.0213-.0213-.0766-.0235-.1228-.0051-.0511.0204-.0359.0355.0387.0386.0675.0027.1053-.0123.0841-.0335zm-.3202-.0639c-.0214-.0212-.0766-.0234-.1228-.0051-.0511.0205-.036.0356.0387.0387.0675.0027.1053-.0124.084-.0336zm-.3203-.0638c-.0213-.0212-.0766-.0235-.1228-.0051-.0511.0204-.0359.0356.0387.0386.0675.0028.1053-.0123.084-.0335zm-.3202-.0638c-.0214-.0213-.0767-.0235-.1228-.0051-.0511.0204-.036.0355.0387.0386.0675.0027.1053-.0123.084-.0335zm-.3203-.0638c-.0213-.0213-.0766-.0235-.1228-.0051-.0511.0204-.0359.0355.0387.0386.0675.0027.1053-.0124.084-.0335zm-.2562-.0639c-.0213-.0212-.0766-.0235-.1228-.0051-.0511.0204-.0359.0356.0387.0386.0675.0028.1053-.0123.084-.0335zm-.3203-.0638c-.0213-.0213-.0766-.0235-.1228-.0051-.0511.0204-.0359.0355.0387.0386.0675.0028.1053-.0123.0841-.0335zm-.3202-.0638c-.0214-.0213-.0766-.0235-.1228-.0051-.0511.0204-.0359.0355.0387.0386.0675.0027.1053-.0123.084-.0335zm-.3203-.0639c-.0213-.0212-.07658-.0235-.12276-.0051-.05112.0205-.03594.0356.03868.0386.06748.0028.10528-.0123.08408-.0335zm73.5754 27.278c-.0181-.044-1.4379-3.5266-3.1551-7.7394l-3.1222-7.6596 1.8558-.017c1.0207-.0093 1.8759.0051 1.9005.032.0246.0268.9488 2.4544 2.0537 5.3946 1.105 2.9401 2.0236 5.3457 2.0413 5.3457.0178 0 .9429-2.4199 2.0558-5.3776l2.0234-5.3777 1.8355-.017c1.0096-.0093 1.8355-.0028 1.8355.0143s-1.3721 3.3997-3.0492 7.5169-3.0925 7.5935-3.1454 7.7252l-.0963.2393h-1.5003c-1.14 0-1.5081-.0191-1.533-.0797zm35.5937-2.5532c-.498-1.4482-1.695-4.9309-2.661-7.7394l-1.755-5.1064 1.799-.017c.99-.0093 1.819.0051 1.842.032.024.0268.76 2.3661 1.637 5.1984.877 2.8322 1.609 5.1353 1.627 5.1179s.813-2.3634 1.767-5.2134l1.735-5.1817h2.925l1.735 5.1817c.954 2.85 1.749 5.1957 1.767 5.2128.017.0172.754-2.3003 1.637-5.1497l1.606-5.181 1.773-.017c1.398-.0134 1.772.0002 1.77.0639-.002.0444-1.192 3.5276-2.644 7.7404l-2.639 7.6595-1.481.0171c-1.366.0158-1.485.0083-1.526-.0957-.025-.0621-.808-2.2958-1.741-4.9639-.932-2.6681-1.718-4.8737-1.745-4.9013-.027-.0275-.839 2.2057-1.805 4.9628l-1.755 5.0129h-2.962zm-70.0805-5.1904v-7.6956l4.1793.0251c3.9332.0236 4.2133.0328 4.7558.1561 2.2101.5022 3.5312 1.7181 3.9668 3.651.1358.6027.1422 1.857.0126 2.4765-.1148.549-.3354 1.1097-.626 1.5913-.434.7194-1.3755 1.4927-2.2482 1.8467-.1672.0678-.3041.1469-.3043.1758-.0001.0289.8356 1.2572 1.8573 2.7295 1.0216 1.4724 1.8574 2.6911 1.8574 2.7081 0 .0171-.8888.0312-1.9752.0312h-1.9751l-1.6598-2.4543-1.6597-2.4544-1.3611-.0032-1.3611-.0031v4.9149h-3.4587v-7.6955zm7.763-.291c.7438-.1572 1.3157-.5767 1.5985-1.1723.1566-.33.1821-.4612.1821-.9397 0-.7386-.1513-1.1478-.5684-1.5366-.6713-.6257-.9595-.6817-3.5149-.683l-2.0016-.0009v4.4043h1.9824c1.2239 0 2.1124-.0275 2.3219-.0718zm8.3779.2952v-7.6915h9.1431l.5123 1.484.5123 1.4841-3.3865.0165-3.3865.0166v3.1265h7.3659v3h-7.3659v3.2553h8.5188v3h-11.9135zm30.1041 0v-7.6915h3.3947v15.383h-3.3947zm7.2375-.0005v-7.6919l4.556.0164 4.555.0164.464 1.3404c.255.7372.484 1.4051.509 1.484l.045.1436h-6.734v3.1267l3.667.0164 3.667.0165.017 1.4841.017 1.484h-7.368v3.2553h8.455v3h-11.85zm-16.9413-11.9617c-3.4498-.643-5.9542-3.088-6.5314-6.3762-.1253-.7138-.1254-2.0706 0-2.7969.4991-2.8952 2.6081-5.28379 5.4507-6.17345.9781-.30613 1.5688-.38809 2.7782-.38541.9025.00205 1.2487.02968 1.7764.1419 3.8803.82493 6.4206 3.89836 6.4219 7.76966.0007 2.1405-.7649 4.0296-2.2353 5.5159-1.1124 1.1243-2.5414 1.8961-4.2016 2.2691-.7282.1637-2.6643.1835-3.4588.0354zm2.8503-3.1117c1.1488-.2843 2.2011-1.0652 2.8096-2.0848.6345-1.0631.8405-2.4882.5483-3.7929-.3937-1.7582-1.827-3.1876-3.5718-3.5623-.7272-.1562-1.8189-.1037-2.5083.1205-1.3251.431-2.3908 1.4478-2.8827 2.7502-.6239 1.6517-.3536 3.5493.7035 4.9395.7151.9403 1.8832 1.5876 3.172 1.7576.3732.0492 1.2874-.0183 1.7294-.1277zm32.108 3.1633c-2.567-.2979-4.357-1.6534-5.119-3.8772-.428-1.25-.423-1.181-.453-6.6963l-.028-4.99463h3.463l.019 4.93083.018 4.9309.177.4996c.403 1.1354 1.071 1.7764 2.141 2.0541.481.1246 1.55.1233 2.035-.0026 1.181-.3066 1.974-1.1804 2.239-2.4687.087-.4225.101-1.1593.101-5.218v-4.72613h3.395l-.001 4.83513c0 5.2442-.014 5.5113-.354 6.5907-.751 2.3842-2.47 3.7581-5.154 4.1194-.73.0983-1.748.1077-2.479.0229zm17.252 0c-1.622-.2362-3.256-1.043-4.401-2.1729-1.497-1.4771-2.301-3.4607-2.301-5.6748 0-2.9072 1.421-5.44241 3.843-6.85752 2.498-1.45947 6.207-1.47523 8.729-.03715.585.33364 1.618 1.16726 1.608 1.29709-.005.05406-.478.62938-1.051 1.27848l-1.043 1.1802-.473-.3745c-1.171-.9275-2.239-1.3328-3.51-1.3328-.791 0-1.314.1182-2.012.4543-.436.21-.644.3648-1.089.8112-.628.6292-.904 1.0595-1.163 1.8117-.571 1.6554-.288 3.522.741 4.8869.94 1.245 2.521 1.8849 4.146 1.6772 1.115-.1424 1.935-.5115 2.948-1.3266l.514-.4139 1.079 1.0739 1.079 1.074-.367.3736c-.865.8784-2.264 1.724-3.346 2.0222-1.07.2949-2.844.4075-3.931.2493zm-88.7515-7.8766v-7.69153h3.2918c3.3853 0 4.2323.04257 5.0648.25474 1.1232.28628 1.7788.65381 2.5641 1.43745.6589.65745.9498 1.14324 1.2229 2.04184.1585.5216.1747.6684.1755 1.5958.0008.854-.0219 1.1042-.1388 1.5282-.3973 1.4411-1.2756 2.4831-2.6702 3.1674-1.195.5863-2.2583.7618-4.617.7618h-1.4344v4.5957h-3.4587zm6.8605.0305c.83-.1569 1.5256-.6593 1.841-1.3296.1481-.3148.1696-.4417.1696-1.0002 0-.5944-.0149-.6698-.2111-1.0669-.2318-.4692-.5089-.7362-1.0059-.9692-.5335-.25-.9095-.2923-2.5973-.2923h-1.5981v4.7234h1.5286c.8406 0 1.6836-.0294 1.8731-.0652zm7.9353-.0351v-7.69606l4.1153.02604c3.9731.02522 4.1375.03102 4.7558.16858 2.4389.54255 3.8048 1.9747 4.0693 4.26664.058.5023.058.8062 0 1.3085-.211 1.8289-1.1062 3.1009-2.7352 3.8866-.2934.1415-.5334.2704-.5334.2865 0 .0159.8358 1.2335 1.8574 2.7057 1.0217 1.4721 1.8575 2.6916 1.8575 2.71 0 .0185-.8879.0335-1.9731.0335h-1.9731l-1.6618-2.455-1.6618-2.4551-1.3611-.0023-1.3611-.0024v4.9148h-3.3947v-7.6961zm8.1503-.3998c.49-.196 1.0146-.6795 1.2046-1.1103.1192-.2702.1484-.4496.1484-.9109 0-.7203-.1544-1.1102-.6065-1.5316-.6446-.6009-1.0103-.6705-3.5196-.6705h-1.9825v4.4119l2.1938-.0207c2.1169-.0199 2.2066-.0258 2.5618-.1678zm26.1171.4085v-7.69563l3.1863.00166c3.215.00166 4.012.03766 4.906.22161 3.302.67979 5.642 3.03176 6.163 6.19436.126.7644.096 2.1711-.062 2.8911-.667 3.042-2.85 5.1377-6.142 5.8963-.557.1283-.794.1371-4.32.161l-3.7313.0252zm7.3023 4.5319c1.334-.3074 2.401-1.1242 2.97-2.2729.164-.3319.341-.8046.393-1.0504.11-.528.124-1.7033.026-2.2383-.239-1.304-1.154-2.521-2.326-3.0925-.899-.4382-1.067-.4648-3.129-.4939l-1.842-.026v4.6222c0 2.5421.022 4.6442.048 4.6712.027.0271.798.0362 1.714.0203 1.27-.022 1.779-.0552 2.146-.1396zm46.437-2.9722v-6.1277h-4.74v-3.12763h12.938v3.12763h-4.739v12.2553h-3.459z" fill="#7db726"/><path d="m83.6145 42.6352c-.0181-.0439-1.4379-3.5266-3.1551-7.7393l-3.1222-7.6596 1.8558-.017c1.0207-.0093 1.876.0051 1.9006.0319.0245.0269.9487 2.4545 2.0536 5.3947 1.105 2.9401 2.0236 5.3457 2.0413 5.3457.0178 0 .9429-2.42 2.0558-5.3777l2.0234-5.3776 1.8355-.017c1.0096-.0093 1.8355-.0029 1.8355.0142s-1.3721 3.3998-3.0492 7.5169c-1.677 4.1173-3.0925 7.5936-3.1454 7.7252l-.0963.2394h-1.5003c-1.1399 0-1.5081-.0191-1.533-.0798zm35.5945-2.5532c-.499-1.4481-1.696-4.9308-2.661-7.7393l-1.755-5.1064 1.799-.017c.989-.0093 1.818.005 1.842.0319.023.0269.76 2.3662 1.636 5.1984.877 2.8323 1.609 5.1354 1.627 5.1179.018-.0173.813-2.3633 1.767-5.2133l1.735-5.1817h2.925l1.735 5.1817c.954 2.85 1.749 5.1957 1.767 5.2128.017.0172.754-2.3003 1.637-5.1498l1.606-5.1809 1.773-.017c1.398-.0134 1.772.0001 1.77.0638-.002.0445-1.192 3.5276-2.643 7.7404l-2.64 7.6596-1.481.0171c-1.366.0158-1.484.0083-1.526-.0957-.024-.0622-.808-2.2959-1.74-4.964-.933-2.6681-1.718-4.8736-1.746-4.9012-.027-.0276-.839 2.2056-1.805 4.9628l-1.755 5.0129h-2.962zm-70.0813-5.1903v-7.6956l4.1793.0251c3.9332.0236 4.2133.0328 4.7558.1561 2.2101.5021 3.5312 1.718 3.9669 3.6509.1358.6028.1422 1.857.0125 2.4766-.1148.549-.3354 1.1096-.626 1.5913-.434.7194-1.3755 1.4927-2.2482 1.8466-.1672.0678-.3041.147-.3043.1759-.0001.0288.8357 1.2571 1.8573 2.7295 1.0216 1.4723 1.8575 2.6911 1.8575 2.7081 0 .0171-.8889.0311-1.9753.0311h-1.9751l-1.6598-2.4542-1.6597-2.4545-1.361-.0031-1.3611-.0032v4.9149h-3.4588zm7.763-.2911c.7438-.1572 1.3157-.5767 1.5985-1.1723.1566-.33.1821-.4611.1821-.9397 0-.7385-.1513-1.1477-.5684-1.5365-.6713-.6258-.9595-.6817-3.5148-.683l-2.0016-.0009v4.4042h1.9824c1.2238 0 2.1124-.0274 2.3218-.0718zm8.3779.2953v-7.6915h9.1431l.5123 1.484.5123 1.4841-3.3865.0164-3.3865.0166v3.1265h7.3659v3h-7.3659v3.2553h8.5188v3h-11.9135zm30.1041 0v-7.6915h3.3947v15.3829h-3.3947zm7.2373-.0005v-7.6919l4.556.0164 4.555.0163.464 1.3404c.255.7373.484 1.4051.509 1.4841l.045.1436h-6.734v3.1266l3.667.0165 3.667.0165.017 1.484.017 1.4841h-7.368v3.2553h8.455v3h-11.85zm-81.2165-3.6977c-2.8158-.6402-5.4675-1.595-9.0384-3.2542l-1.064-.4945-.2317-.7447c-.6074-1.9518-1.10473-4.4119-1.35703-6.7127-.1372-1.2511-.20791-4.6596-.09672-4.6596.09064 0 10.77915 2.2279 10.79965 2.251.0072.0082.478 3.0453 1.0462 6.749.5683 3.7037 1.0494 6.813 1.0692 6.9096.0457.2231.0476.2232-1.1272-.0439zm64.2754-8.2641c-3.4498-.643-5.9542-3.088-6.5314-6.3762-.1253-.7137-.1254-2.0705 0-2.7968.4991-2.8953 2.6081-5.28382 5.4508-6.17348.978-.30613 1.5688-.38809 2.7781-.38541.9025.00204 1.2487.02968 1.7764.1419 3.8803.82493 6.4206 3.89839 6.4219 7.76969.0007 2.1405-.7649 4.0296-2.2353 5.5158-1.1124 1.1244-2.5414 1.8962-4.2016 2.2692-.7282.1637-2.6645.1834-3.4589.0353zm2.8503-3.1115c1.1488-.2845 2.2011-1.0653 2.8096-2.0849.6345-1.0631.8405-2.4882.5483-3.7929-.3937-1.7582-1.8269-3.1877-3.5718-3.5623-.7271-.1562-1.8189-.1038-2.5083.1205-1.3251.431-2.3908 1.4478-2.8827 2.7501-.6239 1.6518-.3536 3.5494.7035 4.9396.7151.9403 1.8832 1.5876 3.172 1.7575.3732.0492 1.2874-.0182 1.7294-.1276zm32.1078 3.1632c-2.567-.2979-4.357-1.6535-5.118-3.8772-.429-1.25-.424-1.181-.454-6.6963l-.028-4.99466h3.464l.018 4.93086.018 4.9308.178.4997c.403 1.1354 1.071 1.7764 2.14 2.054.481.1247 1.55.1234 2.035-.0025 1.182-.3067 1.974-1.1804 2.239-2.4687.087-.4225.102-1.1593.102-5.2181v-4.72606h3.394v4.83506c-.001 5.2443-.015 5.5114-.355 6.5907-.751 2.3843-2.47 3.7581-5.153 4.1195-.731.0983-1.749.1076-2.48.0229zm17.252-.0001c-1.622-.2361-3.256-1.0429-4.401-2.1728-1.496-1.4772-2.301-3.4607-2.301-5.6748 0-2.9073 1.421-5.44244 3.843-6.85755 2.499-1.45947 6.208-1.47523 8.729-.03715.585.33364 1.618 1.16726 1.608 1.29709-.004.05406-.477.62931-1.051 1.27841l-1.043 1.1802-.473-.3744c-1.171-.9275-2.239-1.3328-3.51-1.3328-.791 0-1.314.1182-2.012.4543-.436.21-.644.3648-1.089.8112-.627.6292-.904 1.0594-1.163 1.8117-.571 1.6553-.288 3.522.742 4.8869.939 1.245 2.52 1.8849 4.145 1.6772 1.115-.1424 1.935-.5115 2.948-1.3266l.514-.4139 1.08 1.0739 1.079 1.074-.368.3735c-.865.8785-2.264 1.7241-3.346 2.0223-1.07.2949-2.844.4075-3.931.2493zm-88.7513-7.8766v-7.69146h3.2918c3.3853 0 4.2323.04257 5.0648.25474 1.1232.28628 1.7788.65381 2.5641 1.43745.6589.65745.9499 1.14317 1.223 2.04187.1584.5216.1746.6684.1755 1.5957.0007.8541-.022 1.1043-.1389 1.5282-.3972 1.4412-1.2756 2.4831-2.6702 3.1675-1.195.5863-2.2583.7618-4.617.7618h-1.4343v4.5957h-3.4588zm6.8605.0306c.83-.1569 1.5256-.6593 1.841-1.3296.1481-.3148.1696-.4417.1696-1.0003 0-.5943-.0149-.6697-.2111-1.0668-.2318-.4693-.5089-.7363-1.0059-.9692-.5335-.25-.9094-.2923-2.5973-.2923h-1.598v4.7234h1.5285c.8406 0 1.6836-.0294 1.8732-.0652zm7.9353-.0351v-7.69609l4.1153.02604c3.9731.02522 4.1375.03102 4.7558.16858 2.4389.54255 3.8049 1.9747 4.0693 4.26667.058.5023.058.8061 0 1.3085-.211 1.8288-1.1061 3.1008-2.7351 3.8866-.2935.1415-.5335.2704-.5335.2864s.8358 1.2336 1.8575 2.7057c1.0216 1.4721 1.8574 2.6917 1.8574 2.71 0 .0185-.8878.0336-1.9731.0336h-1.9731l-1.6618-2.455-1.6618-2.4551-1.3611-.0024-1.3611-.0024v4.9149h-3.3947zm8.1504-.3998c.49-.196 1.0145-.6795 1.2045-1.1104.1192-.2701.1484-.4495.1484-.9108 0-.7203-.1543-1.1102-.6065-1.5317-.6445-.6008-1.0103-.6704-3.5196-.6704h-1.9825v4.4119l2.1938-.0207c2.1169-.02 2.2066-.0259 2.5619-.1679zm26.117.4085v-7.69566l3.1861.00166c3.215.00166 4.012.03766 4.906.22161 3.303.67979 5.643 3.03169 6.163 6.19439.126.7644.096 2.1711-.062 2.8911-.666 3.042-2.85 5.1376-6.142 5.8963-.557.1283-.794.1371-4.32.1609l-3.7311.0253zm7.3021 4.5319c1.334-.3074 2.401-1.1242 2.97-2.2729.165-.3319.341-.8047.393-1.0504.11-.528.124-1.7033.026-2.2383-.239-1.304-1.154-2.521-2.326-3.0925-.898-.4382-1.067-.4648-3.129-.4939l-1.841-.026v4.6222c0 2.5421.021 4.6442.048 4.6712.026.0271.797.0362 1.713.0202 1.27-.022 1.779-.0552 2.146-.1396zm46.437-2.9722v-6.1277h-4.74v-3.12766h12.938v3.12766h-4.739v12.2553h-3.459z" fill="#042c19"/></g></svg>