<svg fill="none" height="21" viewBox="0 0 21 21" width="21" xmlns="http://www.w3.org/2000/svg"><path d="m14.1941 15.2608.4608-.1942-.3883-.9215-.4607.1941zm-6.99997-.9216-.46078-.1941-.38825.9215.46077.1942zm3.30587-11.8392.0879-.49221c-.1457-.02602-.2954.01384-.4089.10884-.1134.095-.179.23538-.179.38337zm5.5121 1.49219c.2718.04854.5316-.13248.5801-.40432.0486-.27184-.1325-.53157-.4043-.58011zm1.9879 9.30781c0 1.1878-.7437 2.351-2.0978 3.2409-1.3486.8863-3.2502 1.4591-5.4022 1.4591v1c2.3193 0 4.4178-.6155 5.9514-1.6234 1.528-1.0042 2.5486-2.4411 2.5486-4.0766zm-7.5 4.7c-2.15213 0-4.05364-.5728-5.40222-1.4591-1.3541-.8899-2.09778-2.0531-2.09778-3.2409h-1c0 1.6355 1.02056 3.0724 2.54857 4.0766 1.53353 1.0079 3.632 1.6234 5.95143 1.6234zm-7.5-4.7c0-1.2041.76154-2.5221 2.12605-3.56091 1.35372-1.0306 3.24724-1.73909 5.37395-1.73909v-1c-2.34485 0-4.45131.77985-5.9797 1.94343-1.5176 1.15537-2.5203 2.73737-2.5203 4.35657zm7.5-5.3c2.1266 0 4.0202.70849 5.3739 1.73909 1.3645 1.03881 2.1261 2.35681 2.1261 3.56091h1c0-1.6192-1.0027-3.2012-2.5204-4.35657-1.5284-1.16358-3.6348-1.94343-5.9796-1.94343zm3.3059 6.3392c-.9863.4155-1.8945.6608-3.3059.6608v1c1.5611 0 2.601-.2787 3.6941-.7392zm-3.3059.6608c-1.41137 0-2.31962-.2453-3.30587-.6608l-.38826.9216c1.09311.4605 2.13304.7392 3.69413.7392zm.5-7.5v-5h-1l-.00004 5zm-.5879-4.50779 5.6.99998.1758-.98443-5.6-.99997zm7.0879 1.00779c-.2761 0-.5-.22386-.5-.5h-1c0 .82843.6716 1.5 1.5 1.5zm.5-.5c0 .27614-.2239.5-.5.5v1c.8284 0 1.5-.67157 1.5-1.5zm-.5-.5c.2761 0 .5.22386.5.5h1c0-.82843-.6716-1.5-1.5-1.5zm0-1c-.8284 0-1.5.67157-1.5 1.5h1c0-.27614.2239-.5.5-.5zm-10.5 10h1v-1h-1zm6 0h1v-1h-1zm7-1.5c0 .8284-.6716 1.5-1.5 1.5v1c1.3807 0 2.5-1.1193 2.5-2.5zm1 0c0-1.38071-1.1193-2.5-2.5-2.5v1c.8284 0 1.5.67157 1.5 1.5zm-3.8769-.59637c.2311-.53265.7613-.90363 1.3769-.90363v-1c-1.0281 0-1.9102.62058-2.2943 1.50557zm-17.1231.59637c0 1.3807 1.11929 2.5 2.5 2.5v-1c-.82843 0-1.5-.6716-1.5-1.5zm1 0c0-.82843.67157-1.5 1.5-1.5v-1c-1.38071 0-2.5 1.11929-2.5 2.5zm3.79427-.99443c-.38401-.88499-1.26611-1.50557-2.29427-1.50557v1c.61565 0 1.14578.37098 1.37691.90363z" fill="#3b414b"/></svg>