<svg fill="none" height="52" viewBox="0 0 203 52" width="203" xmlns="http://www.w3.org/2000/svg"><g clip-rule="evenodd" fill-rule="evenodd"><path d="m41.1707 18.4452h-9.1601c0-5.6094 8.9139-6.2158 9.1601 0zm25.9044-16.42375h.9357c.2955 0 1.2805.05053 1.773.05053v4.49757c-.2955 0-1.4282 0-2.167-.05053-.7387 0-1.4281.1516-1.6744.50534-.2955.35374-.4432.75802-.4432 1.1623v1.86974h3.9398v4.0428h-3.9398v17.3333h-5.565v-17.2828h-3.3489v-4.0427h3.2996v-1.415c0-4.5481 2.3639-6.67055 7.1902-6.67055zm-11.918 29.46165h-5.6635v-29.61326h5.6635zm-50.38063-15.1604c-2.80714-1.9708-3.6936-6.46841-2.31466-9.50048.49248-1.06122 1.2312-1.92031 2.21616-2.88046 1.92067-1.76871 4.67856-2.6278 8.37213-2.6278 3.0534 0 5.762.80856 7.9289 2.47619 2.1669 1.66764 3.1519 4.04276 3.0534 7.17595-1.9207 0-4.0876 0-6.0575 0-.0985-1.76875-.3447-3.03212-1.7729-3.79013-1.7729-.90962-5.171-1.1623-6.89472 0-1.52669 1.06122-2.01917 2.88043-.68947 4.04273 1.08345 1.0107 3.00409 1.6677 4.92479 2.173 1.5267.4043 3.0534.7075 4.1861.9602 1.5267.3537 2.9549.9601 4.0876 1.8192 2.0191 1.4655 3.2996 3.6385 3.2996 6.519 0 1.6171-.3448 2.9815-.8865 4.1438-.6402 1.2633-1.5759 2.3246-2.7579 3.0826-2.1669 1.4655-5.0725 2.1224-7.9289 2.1224-3.79209 0-7.14095-.9096-9.35711-2.6278-2.21616-1.7181-3.201115-4.8513-3.201115-7.9339h6.106745c-.0985 3.6385 2.3639 5.7104 7.04248 5.4578 1.7729-.1011 3.3488-.4549 4.2353-1.5161 1.1327-1.4149.8372-3.4869-.6402-4.3965-3.4474-2.1224-8.32293-1.7182-12.95223-4.6997zm31.81413-6.77161c-6.1067 0-10.2928 5.05341-10.2928 11.26921 0 6.2157 3.9891 11.1176 10.2436 11.2186 4.4816.0506 8.7661-2.0719 10.0466-7.1253h-4.9248c-2.2654 4.6491-9.8989 3.2847-9.6526-2.6278.9849 0 14.8729.0505 14.8729-.0506.7387-7.7823-4.1861-12.68411-10.2929-12.68411z" fill="#444c4e"/><path d="m122.726 18.4449h-9.16c0-5.6093 8.914-6.2157 9.16 0zm77.122 12.9874c-.492 0-.935-.1011-1.379-.3537-.443-.2527-.738-.5559-.985-1.0107-.246-.4548-.394-.8591-.394-1.3645 0-.5053.099-.9096.394-1.3644.247-.4043.591-.758.985-1.0107.444-.2527.887-.3537 1.379-.3537.493 0 .936.101 1.379.3537.444.2527.739.5559.985 1.0107s.394.8591.394 1.3644c0 .5054-.098.9602-.394 1.3645-.295.4042-.591.758-.985 1.0107-.443.2526-.886.3537-1.379.3537zm0-4.8008c-.394 0-.738.1011-1.083.3032-.345.2022-.591.4548-.788.7581-.197.3032-.296.6569-.296 1.0612s.099.758.296 1.0612.443.6064.788.758c.345.2022.689.3032 1.083.3032s.739-.101 1.084-.3032c.345-.2021.591-.4548.788-.758s.295-.6569.295-1.0612-.098-.758-.295-1.0612c-.197-.3033-.443-.5559-.788-.7581-.345-.2021-.69-.3032-1.084-.3032zm-1.034.8086v2.5267h.493v-.7075h.492l.197.2527s.099.1011.246.3032c.05.0505.099.1011.099.1516h.591c-.148-.2021-.345-.5053-.591-.758.197-.1011.295-.2022.394-.3538.098-.1516.148-.3032.148-.5053 0-.2527-.099-.5053-.247-.6569-.147-.1517-.394-.2527-.64-.2527zm1.231 1.3139c.099 0 .197 0 .296-.1011.098-.0505.148-.1516.148-.3032 0-.2527-.148-.4043-.394-.4043h-.69v.8086zm-12.706-19.25366c1.33 0 2.512.10106 3.595.55586 1.084.4548 1.97 1.1118 2.66 2.0719.591.8086.936 1.6677 1.083 2.5268.148.859.197 2.4256.197 4.3965v12.4314h-5.762v-12.8863c0-1.1623-.197-2.1224-.591-2.8804-.492-1.0107-1.477-1.5161-2.856-1.5161-3.152 0-4.432 1.5666-4.432 5.4072v11.8756h-5.713v-29.5121h5.713v10.8649c1.132-1.8192 3.545-3.33526 6.106-3.33526zm-26.938 4.64916v-4.0428h3.496v-6.41783h5.664v6.41783h4.137v4.0428h-4.137v11.0671c0 2.0719 1.773 2.1224 4.137 1.7687v4.4975l-3.251.1011c-2.659.1011-4.678-.4548-5.614-1.4655-.64-.6569-.936-1.6676-.936-3.0321v-12.9368zm-1.625 17.3333h-5.664v-29.61317h5.664zm-18.616-12.7347c1.083-.1516 1.871-.3032 2.314-.5053.838-.3537 1.232-.9096 1.232-1.6171 0-2.6783-1.675-2.9815-3.792-2.9815-2.217 0-3.103 1.0612-3.596 3.032h-5.663c.394-3.4363 1.97-5.5082 5.22-6.5189 1.231-.35376 2.61-.65696 4.236-.65696 2.462 0 4.777.3032 6.648 1.26336 1.921.9602 2.856 2.8299 2.856 5.4577l-.049 10.0564c0 .7075 0 1.516.049 2.5267.05.758.148 1.8698.345 2.1225.099.101.197.2526.296.3032v.2526h-5.812c-.098-.3032-.197-.6569-.246-.9096-.049-.4043-.098-.8085-.148-1.3139-1.477 2.2741-5.072 2.7794-7.19 2.7794-2.019 0-3.546-.5053-4.875-1.6171-2.216-1.9203-2.561-5.0534-1.429-7.4791 1.576-3.3353 4.384-3.5879 7.585-3.9417zm3.595 2.3246c-1.182.7075-1.33.6064-2.709.8591l-1.329.2527c-1.232.2021-2.118.4548-2.66.758-.936.5054-1.28 1.1623-1.28 2.2741 0 .9601.295 1.6676.837 2.1224s1.33.657 2.118.657c1.871 0 3.398-.4043 4.235-1.6171.985-1.3645.788-3.588.788-5.3062zm-65.0566-19.20307 4.3831 21.02237 4.974-21.02237h6.0083l4.8755 20.76967 4.5307-20.76967h6.353l-7.633 29.61317h-6.6488l-4.6293-19.9106-4.6293 19.9106h-6.5992l-7.535-29.61317zm39.4476 7.68124c-6.107 0-10.293 5.05343-10.293 11.26923 0 6.2157 3.989 11.1175 10.244 11.2186 4.481.0506 8.766-2.0719 10.046-7.1253h-4.924c-2.217 4.6491-9.899 3.2847-9.604-2.6278.985 0 14.873.0505 14.873-.0506.739-7.7823-4.186-12.68413-10.342-12.68413z" fill="#7ab942"/><path d="m90.8126 47.6542-.788.8591c.2462.2021.7387.5559 1.0342.6569.4432.2022.9357.2527 1.4282.2527.5417 0 1.182-.1516 1.6252-.4548.9357-.6569.8372-2.2235-.197-2.7794-.5417-.3032-1.8714-.3032-2.2654-.6569-.197-.2022-.197-.4548 0-.657.2462-.2527.6402-.3032.9357-.3032.394 0 1.0835.2527 1.3789.5054l.788-.8591c-.2462-.2022-.6895-.4548-.985-.5559-.3939-.1516-.9849-.2022-1.3789-.2022-.9357 0-1.8714.5054-2.0192 1.5161-.0492.2527-.0492.5053 0 .7075.0985.6569.6403.9601 1.2312 1.1623.4433.101 1.0342.101 1.4775.2526.197.0506.394.1516.4432.2527.1478.2021.0985.4548-.0985.657-.591.6569-2.1669.101-2.6101-.3538zm42.1074.0505c.443 0 .788.3538.788.8591 0 .5054-.345.8591-.788.8591-.444 0-.788-.3537-.788-.8591-.05-.5053.344-.8591.788-.8591zm56.438-1.2128c0-1.7687 1.083-3.0321 2.807-3.0321 1.773 0 2.708 1.3139 2.708 3.0321v.6064h-4.186c.148 1.5666 2.463 1.4655 3.3.6064l.492.8591c-.394.6064-1.181.9097-2.314.9097-.837 0-1.527-.3033-2.019-.8086-.493-.6064-.788-1.3139-.788-2.173zm4.383-.4043c0-1.9708-3.004-2.0719-3.004 0zm-12.214-2.4761h-1.231v5.6598h1.231v-.6064-1.1623-1.4655-.6064c.296-.5053.887-.8086 1.428-.8086.739 0 .739.4043.739 1.1118v3.689h1.133v-.8085-2.931c0-.1011 0-.2022 0-.3032.345-.4548.985-.7581 1.477-.7581.739 0 .739.4043.739 1.1118v3.689h1.133v-.8085-2.931c0-1.0107-.05-1.6171-.837-1.9709-.247-.101-.542-.1516-.838-.1516-.689 0-1.428.4548-1.822.9096-.098-.3537-.295-.5558-.739-.758-.246-.101-.541-.1516-.837-.1516-.689 0-1.28.3538-1.625.8086zm15.661 4.0932c.443 0 .788.3538.788.8591 0 .5054-.345.8591-.788.8591s-.788-.3537-.788-.8591c0-.5053.345-.8591.788-.8591zm-19.847-4.1438h1.034v5.7104h-1.034zm.542-2.2235c.443 0 .788.3537.788.8591 0 .5053-.345.8591-.788.8591s-.788-.3538-.788-.8591c-.049-.5054.345-.8591.788-.8591zm-3.447.6569h-1.232v1.5666h-.985v1.1118h.985v3.3353c0 1.6171 1.823 1.7181 2.561.7074l-.443-.6064c-.591.6064-.886.1516-.886-.5053v-2.83h1.28v-1.1117h-1.28zm-10.096 1.6677 1.625 4.2954 1.625-4.2954h1.084l-2.167 5.7609c-.05.1011-.197.4548-.394.9096-.394.657-1.084 1.415-2.413 1.0107l.196-.9601c.591.2021 1.035 0 1.281-.3538.197-.2526.295-.5558.148-.9096l-2.069-5.4072h1.084zm-2.216-.1516c-.838.0505-1.527.4548-1.97 1.1117v-1.0612h-1.035v5.7104h1.035v-3.7395c.443-.5559 1.132-.9097 1.92-.9097h.05zm-10.096 2.9815c0-1.7687 1.083-3.0321 2.807-3.0321 1.773 0 2.709 1.3139 2.709 3.0321v.6064h-4.187c.148 1.5666 2.463 1.4655 3.3.6064l.493.8591c-.394.6064-1.182.9097-2.315.9097-.837 0-1.527-.3033-2.019-.8086-.542-.6064-.788-1.3139-.788-2.173zm4.334-.4043c0-1.9708-3.005-2.0719-3.005 0zm-9.653-2.4256 1.625 4.2954 1.625-4.2954h1.084l-2.167 5.7609h-1.084l-2.166-5.7609zm-6.353 1.1623h4.038v1.0612h-4.038v2.3246h4.038v1.0612h-4.038-1.034v-1.0612-2.3246-1.0612-2.3246-1.0612h1.034 4.038v1.0612h-4.038zm-8.668-1.3139c-.837.0505-1.526.4548-1.97 1.1117v-1.0612h-1.034v5.7104h1.034v-3.7395c.444-.5559 1.133-.9097 1.921-.9097h.049zm-10.292 2.9815c0-1.7687 1.083-3.0321 2.807-3.0321 1.773 0 2.708 1.3139 2.708 3.0321v.6064h-4.186c.148 1.5666 2.463 1.4655 3.3.6064l.492.8591c-.394.6064-1.182.9097-2.314.9097-.838 0-1.527-.3033-2.019-.8086-.493-.6064-.788-1.3139-.788-2.173zm4.383-.4043c0-1.9708-3.005-2.0719-3.005 0zm-6.452-4.0933h-1.231v1.5666h-.985v1.1118h.985v3.3353c0 1.6171 1.822 1.7181 2.561.7074l-.443-.6064c-.591.6064-.887.1516-.887-.5053v-2.83h1.281v-1.1117h-1.281zm-3.299 1.5161c-.838.0505-1.527.4548-1.921 1.1117v-1.0612h-1.034v5.7104h1.034v-3.7395c.443-.5559 1.133-.9097 1.921-.9097h.049v-1.1117zm-9.555.7075c.69-.4548 1.527-.7581 2.463-.7581.64 0 1.231.2022 1.625.6065.394.4042.591.9601.591 1.7687v3.4869h-1.231v-.4549c-.443.3032-1.231.5559-1.576.5559-2.807 0-2.709-3.0321-.788-3.5879.739-.2022 1.724-.1011 2.413.4548v-.8086c0-.7075-.689-.9096-1.28-.9601-.641 0-1.232.4043-1.576.6569zm3.399 3.7395v-.8591c-.197-.4042-.591-.6064-1.232-.6064-.788.1011-1.182.4548-1.231 1.0612.049.6065.443.9602 1.231 1.0107.69 0 1.084-.2021 1.232-.6064zm-12.1647-4.3459h-1.2312v5.6598h1.2312v-.6064-1.1623-1.4655-.6064c.2955-.5053.8865-.8086 1.4282-.8086.6894 0 .7387.4043.7387 1.1118v3.689h1.1328v-.8085-2.931c0-.1011 0-.2022 0-.3032.345-.4548.985-.7581 1.477-.7581.69 0 .739.4043.739 1.1118v3.689h1.133v-.8085-2.931c0-1.0107-.049-1.6171-.837-1.9709-.247-.101-.542-.1516-.838-.1516-.689 0-1.428.4548-1.822.9096-.098-.3537-.295-.5558-.739-.758-.2458-.101-.5413-.1516-.8368-.1516-.6894 0-1.2804.3538-1.6252.8086zm-20.7826-2.173h1.2312v7.8328h-1.2312v-.6064c-.3448.4548-.9358.758-1.6252.758-3.3981.1516-3.4474-6.1652 0-6.0641.6894 0 1.2804.3032 1.6252.758zm0 6.0641v-2.0719c-.4433-.7075-1.3297-.9602-2.0192-.657-1.2805.6065-1.182 3.1837.2462 3.5375.6403.101 1.4282-.2527 1.773-.8086zm-10.2929-3.2342c.6895-.5559 1.5267-.8591 2.4624-.8591.6403 0 1.2312.2527 1.6252.657.394.4042.591.9601.591 1.7687v3.4869h-1.2312v-.4549c-.4432.4043-1.3789.6065-2.0684.5054-2.2654-.3538-2.0684-3.0321-.2955-3.588.7387-.2021 1.7237-.101 2.4131.4548v-.758c0-.7075-.6894-.9096-1.2804-.9601-.6402 0-1.2312.3537-1.6252.6064zm3.4474 3.6385v-.8086c-.0493-.101-.0985-.1516-.1477-.2021-.591-.7075-2.3147-.6064-2.3147.6569 0 1.2129 1.7237 1.2129 2.3147.5559.0492-.0505.0984-.101.1477-.2021zm-14.3312-5.2556v-1.2128h2.2655 1.1819 2.2654v1.2128h-2.2654v6.6706h-1.1819v-6.6706zm9.5049.8591c-.8372.0505-1.5267.4548-1.9207 1.1117v-1.0612h-1.0342v5.7104h1.0342v-3.7395c.4433-.5559 1.1327-.9097 1.9207-.9097h.0492v-1.1117zm14.6266 2.9815c0-1.7687 1.0835-3.0321 2.8072-3.0321 1.7729 0 2.7086 1.3139 2.7086 3.0321v.6064h-4.1861c.1478 1.5666 2.4624 1.4655 3.2996.6064l.4925.8591c-.394.6064-1.1819.9097-2.3146.9097-.8373 0-1.5267-.3033-2.0192-.8086-.5417-.6064-.788-1.3139-.788-2.173zm4.3339-.4043c0-1.9708-3.0042-2.0719-3.0042 0z" fill="#444c4e"/></g></svg>