<svg fill="none" height="18" viewBox="0 0 18 18" width="18" xmlns="http://www.w3.org/2000/svg"><path d="m8.53722 1.14604c.16853-.416725.75853-.416725.92706 0l2.01742 4.98854c.0716.1771.2379.29792.4285.31131l5.3678.37715c.4484.0315.6307.59263.2865.88168l-4.121 3.46028c-.1463.1228-.2098.3183-.1637.5037l1.3001 5.2216c.1086.4362-.3687.783-.75.5449l-4.56433-2.85c-.16205-.1012-.36759-.1012-.52964 0l-4.56432 2.85c-.38129.2381-.85861-.1087-.75001-.5449l1.30005-5.2216c.04616-.1854-.01736-.3809-.16366-.5037l-4.120963-3.46028c-.3442495-.28905-.161929-.85018.286477-.88168l5.367796-.37715c.19058-.01339.35686-.13421.42849-.31132z"/></svg>