<svg fill="none" height="21" viewBox="0 0 21 21" width="21" xmlns="http://www.w3.org/2000/svg"><path d="m20.4691 2 .4989-.03308c-.0133-.20057-.1454-.37368-.3353-.43942-.19-.06574-.4008-.01134-.5353.1381zm-.9263 4.22701c0-.27615-.2239-.5-.5-.5-.2762 0-.5.22385-.5.5zm-9.0428 1.27299v.5h.5v-.5zm-8.57363-5.5.46825-.17532c-.06977-.18634-.24338-.31358-.44207-.32399-.1987-.01042-.38466.09796-.47353.27598zm5.57363 13 .35383.3533c.12236-.1226.17259-.2997.13278-.4683-.03982-.1685-.16401-.3044-.32828-.3593zm-7 2.7143v-.5c-.220268 0-.4145891.1441-.4784943.3549-.0639053.2108.017661.4386.2008473.5609zm17.4515-14.32376-.3709.33535.1802.19924.2656-.04022zm2.0187-1.35746c.0744 1.12191.0081 1.83087-.1864 2.37935-.1909.53804-.5229.97176-1.087 1.51227l.6919.72203c.6146-.58893 1.0718-1.15103 1.3375-1.89997.262-.73849.3196-1.60767.2418-2.77984zm-.4274 5.23477v-.98214h-1v.98214zm0-.98214v-.0587h-1v.0587zm-9.5428.21429v1h1v-1zm4.8223-5c-2.6973 0-4.8223 2.35065-4.8223 5h1c0-2.14937 1.7282-4 3.8223-4zm3.7205 5.76785c0 6.29205-5.2804 11.73215-11.5428 11.73215v1c6.8342 0 12.5428-5.9075 12.5428-12.73215zm-17.08469-5.09253c.76494 2.04298 3.6435 5.82468 9.04189 5.82468v-1c-4.87145 0-7.44395-3.40878-8.10538-5.17532zm.02091-.39865c-1.47347137 2.95149-1.721424 5.82048-.703947 8.25543 1.017487 2.4349 3.259597 4.3381 6.566597 5.4422l.31666-.9486c-3.11165-1.0388-5.08272-2.7784-5.96057-4.87919-.877865-2.1008-.703308-4.66038.67596-7.42318zm5.66715 12.87003c-.87971.8811-3.38452 2.5676-6.64617 2.5676v1c3.58491 0 6.33174-1.8373 7.35383-2.861zm11.17623-11.5915c-.863-.95436-2.1117-1.5552-3.5001-1.5552v1c1.0937 0 2.0768.47214 2.7583 1.22589zm-.296.82971c1.0355-.15683 2.0511-.70199 2.8145-1.55051l-.7435-.6688c-.6145.68312-1.4231 1.10977-2.2208 1.23058zm-17.804047 14.24519c2.247807 1.5009 4.410777 1.8699 6.777647 1.8699v-1c-2.24287 0-4.19105-.3452-6.222353-1.7015z"/></svg>