<svg fill="none" height="21" viewBox="0 0 21 21" width="21" xmlns="http://www.w3.org/2000/svg"><path d="m2.20091 17.8398-.09806.4903zm16.59819 0 .0981.4903zm.1139-14.53739.1048-.4889zm-16.82604 0 .10476.48891zm6.41304 4.19721.25725-.42875c-.15447-.09268-.34685-.0951-.5036-.00635s-.25365.25496-.25365.4351zm0 5.99998h-.5c0 .1802.0969.3464.25365.4351.15676.0888.34913.0863.5036-.0063zm5-3 .2572.4288c.1507-.0904.2428-.2531.2428-.4288 0-.1756-.0921-.3384-.2428-.4287zm-13.5-5.23414v10.49954h1v-10.49954zm21 10.49954v-10.49954h-1v10.49954zm-18.89715 2.5651c5.54321 1.1086 11.25105 1.1086 16.79435 0l-.1962-.9806c-5.4137 1.0828-10.98829 1.0828-16.40203 0zm16.91495-15.51659c-5.6148-1.20317-11.4208-1.20317-17.03561 0l.20953.97781c5.47669-1.17358 11.13988-1.17358 16.61658 0zm1.9822 2.45195c0-1.18244-.826-2.20419-1.9822-2.45195l-.2095.97781c.6951.14895 1.1917.76324 1.1917 1.47414zm-1 10.49954c0 .7703-.5437 1.4335-1.299 1.5845l.1962.9806c1.2227-.2446 2.1028-1.3181 2.1028-2.5651zm-20 0c0 1.247.880133 2.3205 2.10285 2.5651l.19612-.9806c-.7553-.151-1.29897-.8142-1.29897-1.5845zm1-10.49954c0-.7109.49661-1.32519 1.19172-1.47414l-.20953-.97781c-1.156184.24776-1.98219 1.26952-1.98219 2.45195zm7 2.23416v5.99998h1v-5.99998zm.75725 6.42878 4.99995-3-.5144-.8575-5.00005 3zm4.99995-3.8575-4.99995-3.00003-.5145.8575 5.00005 3.00003z" fill="#3b414b"/></svg>